<?xml version="1.0" encoding="utf-8"?>
<!-- Generator: Adobe Illustrator 27.5.0, SVG Export Plug-In . SVG Version: 6.00 Build 0)  -->
<svg version="1.1" xmlns="http://www.w3.org/2000/svg" xmlns:xlink="http://www.w3.org/1999/xlink" x="0px" y="0px"
	 viewBox="-80 0 650 500" style="enable-background:new 0 0 500 500;" xml:space="preserve">
<g id="BACKGROUND">
	<g>
		
		
			<ellipse transform="matrix(0.158 -0.9874 0.9874 0.158 -31.2786 214.3189)" style="fill:#0be88f;" cx="110.032" cy="125.5" rx="44.057" ry="44.057"/>
		
			<ellipse transform="matrix(0.1585 -0.9874 0.9874 0.1585 142.635 519.2933)" style="fill:#0be88f;" cx="375.976" cy="175.966" rx="33.644" ry="33.643"/>
		<path style="fill:#0be88f;" d="M421.675,317.206c-2.929-25.204-12.588-50.426-30.057-69.153
			c-16.351-17.528-39.729-19.368-57.414-34.226c-18.954-15.927-11.056-42.825-6.092-63.308c6.155-25.396,6.274-52.485-7.951-75.555
			c-27.774-45.044-87.885-35.573-116.446-1.587c-17.749,21.121-22.207,55.967-30.079,81.894
			c-11.369,37.444-34.604,61.872-66.917,82.127c-22.473,14.088-46.002,28.533-55.91,54.343
			c-13.575,35.366-1.834,75.471,23.46,102.542c24.131,25.827,57.944,40.538,92.05,49.819c35.835,9.751,73.092,14.26,110.218,13.338
			c30.205-0.75,60.92-5.27,87.879-18.913c20.107-10.175,40.091-26.135,50.289-46.652c5.067-10.193,5.378-23.294,6.785-34.551
			C423.152,344.023,423.222,330.522,421.675,317.206z"/>
	</g>
</g>
<g id="OBJECTS">
	<g>
		<g>
			<path style="fill:#73382D;stroke:#73382D;stroke-width:0.0687;stroke-miterlimit:10;" d="M76.092,354.032H67.87
				c-3.465,0-6.275-2.809-6.275-6.275v-8.447h20.772v8.447C82.367,351.223,79.557,354.032,76.092,354.032z"/>
			<g>
				<g>
					<g>
						<path style="fill:#00954F;" d="M90.626,321.248c-3.239,6.041-8.968,9.275-12.797,7.222c-3.829-2.053-4.307-8.614-1.069-14.655
							c3.239-6.041,8.968-9.274,12.797-7.222C93.386,308.646,93.864,315.207,90.626,321.248z"/>
						<path style="fill:none;stroke:#BFBF5B;stroke-width:0.4664;stroke-linecap:round;stroke-miterlimit:10;" d="M89.954,320.888
							c-2.95,5.504-8.145,8.462-11.603,6.608c-3.458-1.854-3.869-7.818-0.919-13.322c2.95-5.504,8.146-8.462,11.603-6.609
							C92.493,309.42,92.904,315.384,89.954,320.888z"/>
						
							<line style="fill:none;stroke:#BFBF5B;stroke-width:0.4664;stroke-linecap:round;stroke-miterlimit:10;" x1="81" y1="309.871" x2="83.336" y2="317.605"/>
						
							<line style="fill:none;stroke:#BFBF5B;stroke-width:0.4664;stroke-linecap:round;stroke-miterlimit:10;" x1="81.253" y1="322.31" x2="90.622" y2="319.48"/>
						
							<line style="fill:none;stroke:#BFBF5B;stroke-width:0.4664;stroke-linecap:round;stroke-miterlimit:10;" x1="86.211" y1="313.203" x2="91.377" y2="311.643"/>
						
							<line style="fill:none;stroke:#BFBF5B;stroke-width:0.4664;stroke-linecap:round;stroke-miterlimit:10;" x1="79.08" y1="326.219" x2="88.553" y2="323.358"/>
						
							<line style="fill:none;stroke:#BFBF5B;stroke-width:0.4664;stroke-linecap:round;stroke-miterlimit:10;" x1="80.913" y1="322.512" x2="78.138" y2="313.321"/>
						
							<line style="fill:none;stroke:#BFBF5B;stroke-width:0.4664;stroke-linecap:round;stroke-miterlimit:10;" x1="84.115" y1="316.539" x2="91.868" y2="314.198"/>
						
							<line style="fill:none;stroke:#BFBF5B;stroke-width:0.4664;stroke-linecap:round;stroke-miterlimit:10;" x1="78.63" y1="326.055" x2="76.038" y2="317.474"/>
					</g>
					<g>
						
							<line style="fill:none;stroke:#3D3F54;stroke-width:0.6835;stroke-linecap:round;stroke-miterlimit:10;" x1="69.156" y1="344.646" x2="86.69" y2="311.941"/>
						
							<line style="fill:none;stroke:#3D3F54;stroke-width:0.6835;stroke-linecap:round;stroke-miterlimit:10;" x1="78.286" y1="319.703" x2="79.836" y2="324.836"/>
						
							<line style="fill:none;stroke:#3D3F54;stroke-width:0.6835;stroke-linecap:round;stroke-miterlimit:10;" x1="82.942" y1="319.334" x2="87.755" y2="317.88"/>
						
							<line style="fill:none;stroke:#3D3F54;stroke-width:0.6835;stroke-linecap:round;stroke-miterlimit:10;" x1="84.764" y1="310.675" x2="85.619" y2="313.504"/>
					</g>
				</g>
				<g>
					<g>
						<path style="fill:#00954F;" d="M69.855,308.51c2.064,6.536,0.378,12.896-3.764,14.204c-4.143,1.308-9.174-2.93-11.238-9.467
							s-0.378-12.896,3.764-14.204C62.76,297.735,67.791,301.974,69.855,308.51z"/>
						<path style="fill:none;stroke:#BFBF5B;stroke-width:0.4664;stroke-linecap:round;stroke-miterlimit:10;" d="M69.128,308.74
							c1.88,5.955,0.371,11.74-3.37,12.921c-3.741,1.181-8.299-2.688-10.179-8.643c-1.88-5.955-0.371-11.74,3.37-12.921
							C62.691,298.915,67.248,302.785,69.128,308.74z"/>
						
							<line style="fill:none;stroke:#BFBF5B;stroke-width:0.4664;stroke-linecap:round;stroke-miterlimit:10;" x1="54.99" y1="307.458" x2="62.157" y2="311.185"/>
						
							<line style="fill:none;stroke:#BFBF5B;stroke-width:0.4664;stroke-linecap:round;stroke-miterlimit:10;" x1="64.071" y1="315.962" x2="68.587" y2="307.278"/>
						
							<line style="fill:none;stroke:#BFBF5B;stroke-width:0.4664;stroke-linecap:round;stroke-miterlimit:10;" x1="61.014" y1="306.054" x2="63.504" y2="301.266"/>
						
							<line style="fill:none;stroke:#BFBF5B;stroke-width:0.4664;stroke-linecap:round;stroke-miterlimit:10;" x1="65.353" y1="320.247" x2="69.919" y2="311.467"/>
						
							<line style="fill:none;stroke:#BFBF5B;stroke-width:0.4664;stroke-linecap:round;stroke-miterlimit:10;" x1="63.979" y1="316.346" x2="55.461" y2="311.916"/>
						
							<line style="fill:none;stroke:#BFBF5B;stroke-width:0.4664;stroke-linecap:round;stroke-miterlimit:10;" x1="61.939" y1="309.884" x2="65.675" y2="302.699"/>
						
							<line style="fill:none;stroke:#BFBF5B;stroke-width:0.4664;stroke-linecap:round;stroke-miterlimit:10;" x1="64.921" y1="320.455" x2="56.968" y2="316.319"/>
					</g>
					<g>
						
							<line style="fill:none;stroke:#3D3F54;stroke-width:0.6835;stroke-linecap:round;stroke-miterlimit:10;" x1="71.617" y1="340.217" x2="60.444" y2="304.83"/>
						
							<line style="fill:none;stroke:#3D3F54;stroke-width:0.6835;stroke-linecap:round;stroke-miterlimit:10;" x1="60.134" y1="316.266" x2="64.891" y2="318.739"/>
						
							<line style="fill:none;stroke:#3D3F54;stroke-width:0.6835;stroke-linecap:round;stroke-miterlimit:10;" x1="63.12" y1="312.674" x2="65.44" y2="308.214"/>
						
							<line style="fill:none;stroke:#3D3F54;stroke-width:0.6835;stroke-linecap:round;stroke-miterlimit:10;" x1="58.193" y1="305.325" x2="60.815" y2="306.688"/>
					</g>
				</g>
				<g>
					<g>
						<path style="fill:#00C76A;" d="M81.415,306.534c0,6.504-3.342,11.777-7.464,11.777c-4.122,0-7.464-5.273-7.464-11.777
							c0-6.504,3.342-11.777,7.464-11.777C78.073,294.758,81.415,300.03,81.415,306.534z"/>
						
							<ellipse style="fill:none;stroke:#FFFF79;stroke-width:0.4664;stroke-linecap:round;stroke-miterlimit:10;" cx="73.951" cy="306.534" rx="6.741" ry="10.729"/>
						
							<line style="fill:none;stroke:#FFFF79;stroke-width:0.4664;stroke-linecap:round;stroke-miterlimit:10;" x1="68.265" y1="301.336" x2="73.686" y2="306.756"/>
						
							<line style="fill:none;stroke:#FFFF79;stroke-width:0.4664;stroke-linecap:round;stroke-miterlimit:10;" x1="74.053" y1="311.625" x2="80.619" y2="305.058"/>
						
							<line style="fill:none;stroke:#FFFF79;stroke-width:0.4664;stroke-linecap:round;stroke-miterlimit:10;" x1="74.117" y1="301.786" x2="77.738" y2="298.165"/>
						
							<line style="fill:none;stroke:#FFFF79;stroke-width:0.4664;stroke-linecap:round;stroke-miterlimit:10;" x1="73.988" y1="315.869" x2="80.628" y2="309.229"/>
						
							<line style="fill:none;stroke:#FFFF79;stroke-width:0.4664;stroke-linecap:round;stroke-miterlimit:10;" x1="73.86" y1="311.946" x2="67.418" y2="305.504"/>
						
							<line style="fill:none;stroke:#FFFF79;stroke-width:0.4664;stroke-linecap:round;stroke-miterlimit:10;" x1="73.86" y1="305.516" x2="79.293" y2="300.082"/>
						
							<line style="fill:none;stroke:#FFFF79;stroke-width:0.4664;stroke-linecap:round;stroke-miterlimit:10;" x1="73.538" y1="315.933" x2="67.524" y2="309.918"/>
					</g>
					<g>
						
							<line style="fill:none;stroke:#3D3F54;stroke-width:0.6835;stroke-linecap:round;stroke-miterlimit:10;" x1="73.951" y1="342.003" x2="73.951" y2="300.516"/>
						
							<line style="fill:none;stroke:#3D3F54;stroke-width:0.6835;stroke-linecap:round;stroke-miterlimit:10;" x1="70.403" y1="310.775" x2="74.001" y2="314.372"/>
						
							<line style="fill:none;stroke:#3D3F54;stroke-width:0.6835;stroke-linecap:round;stroke-miterlimit:10;" x1="74.131" y1="308.378" x2="77.504" y2="305.005"/>
						
							<line style="fill:none;stroke:#3D3F54;stroke-width:0.6835;stroke-linecap:round;stroke-miterlimit:10;" x1="71.773" y1="300.32" x2="73.755" y2="302.303"/>
					</g>
				</g>
				<g>
					<g>
						<path style="fill:#00C76A;" d="M58.407,318.978c3.964,3.306,5.478,8.022,3.383,10.534c-2.095,2.512-7.007,1.869-10.97-1.437
							c-3.964-3.306-5.478-8.022-3.383-10.534C49.532,315.029,54.443,315.673,58.407,318.978z"/>
						<path style="fill:none;stroke:#FFFF79;stroke-width:0.4664;stroke-linecap:round;stroke-miterlimit:10;" d="M58.039,319.419
							c3.611,3.012,5.004,7.292,3.112,9.561c-1.892,2.269-6.353,1.667-9.964-1.345c-3.611-3.012-5.004-7.292-3.112-9.561
							C49.967,315.806,54.429,316.408,58.039,319.419z"/>
						
							<line style="fill:none;stroke:#FFFF79;stroke-width:0.4664;stroke-linecap:round;stroke-miterlimit:10;" x1="48.556" y1="324.35" x2="54.614" y2="323.802"/>
						
							<line style="fill:none;stroke:#FFFF79;stroke-width:0.4664;stroke-linecap:round;stroke-miterlimit:10;" x1="57.767" y1="326.052" x2="57.103" y2="318.713"/>
						
							<line style="fill:none;stroke:#FFFF79;stroke-width:0.4664;stroke-linecap:round;stroke-miterlimit:10;" x1="51.804" y1="321.013" x2="51.438" y2="316.966"/>
						
							<line style="fill:none;stroke:#FFFF79;stroke-width:0.4664;stroke-linecap:round;stroke-miterlimit:10;" x1="60.321" y1="328.248" x2="59.649" y2="320.827"/>
						
							<line style="fill:none;stroke:#FFFF79;stroke-width:0.4664;stroke-linecap:round;stroke-miterlimit:10;" x1="57.865" y1="326.333" x2="50.665" y2="326.985"/>
						
							<line style="fill:none;stroke:#FFFF79;stroke-width:0.4664;stroke-linecap:round;stroke-miterlimit:10;" x1="53.946" y1="323.065" x2="53.396" y2="316.992"/>
						
							<line style="fill:none;stroke:#FFFF79;stroke-width:0.4664;stroke-linecap:round;stroke-miterlimit:10;" x1="60.131" y1="328.555" x2="53.409" y2="329.164"/>
					</g>
					<g>
						
							<line style="fill:none;stroke:#3D3F54;stroke-width:0.6835;stroke-linecap:round;stroke-miterlimit:10;" x1="72.404" y1="338.364" x2="50.945" y2="320.468"/>
						
							<line style="fill:none;stroke:#3D3F54;stroke-width:0.6835;stroke-linecap:round;stroke-miterlimit:10;" x1="55.394" y1="327.844" x2="59.415" y2="327.48"/>
						
							<line style="fill:none;stroke:#3D3F54;stroke-width:0.6835;stroke-linecap:round;stroke-miterlimit:10;" x1="55.829" y1="324.354" x2="55.488" y2="320.584"/>
						
							<line style="fill:none;stroke:#3D3F54;stroke-width:0.6835;stroke-linecap:round;stroke-miterlimit:10;" x1="49.72" y1="321.696" x2="51.935" y2="321.496"/>
					</g>
				</g>
				<g>
					<g>
						<path style="fill:#00C76A;" d="M92.588,329.446c-4.117,3.97-9.495,5.074-12.011,2.464c-2.516-2.609-1.219-7.944,2.899-11.914
							c4.117-3.97,9.495-5.074,12.011-2.464C98.003,320.142,96.705,325.476,92.588,329.446z"/>
						<path style="fill:none;stroke:#FFFF79;stroke-width:0.4664;stroke-linecap:round;stroke-miterlimit:10;" d="M92.147,328.988
							c-3.751,3.617-8.634,4.639-10.907,2.282c-2.273-2.357-1.074-7.199,2.677-10.816c3.751-3.617,8.634-4.639,10.907-2.282
							C97.096,320.529,95.898,325.371,92.147,328.988z"/>
						
							<line style="fill:none;stroke:#FFFF79;stroke-width:0.4664;stroke-linecap:round;stroke-miterlimit:10;" x1="87.852" y1="317.949" x2="87.729" y2="324.689"/>
						
							<line style="fill:none;stroke:#FFFF79;stroke-width:0.4664;stroke-linecap:round;stroke-miterlimit:10;" x1="84.872" y1="327.893" x2="93.037" y2="328.041"/>
						
							<line style="fill:none;stroke:#FFFF79;stroke-width:0.4664;stroke-linecap:round;stroke-miterlimit:10;" x1="91.139" y1="321.928" x2="95.641" y2="322.009"/>
						
							<line style="fill:none;stroke:#FFFF79;stroke-width:0.4664;stroke-linecap:round;stroke-miterlimit:10;" x1="82.146" y1="330.443" x2="90.402" y2="330.593"/>
						
							<line style="fill:none;stroke:#FFFF79;stroke-width:0.4664;stroke-linecap:round;stroke-miterlimit:10;" x1="84.55" y1="327.967" x2="84.696" y2="319.957"/>
						
							<line style="fill:none;stroke:#FFFF79;stroke-width:0.4664;stroke-linecap:round;stroke-miterlimit:10;" x1="88.621" y1="324.042" x2="95.378" y2="324.164"/>
						
							<line style="fill:none;stroke:#FFFF79;stroke-width:0.4664;stroke-linecap:round;stroke-miterlimit:10;" x1="81.83" y1="330.197" x2="81.966" y2="322.718"/>
					</g>
					<g>
						
							<line style="fill:none;stroke:#3D3F54;stroke-width:0.6835;stroke-linecap:round;stroke-miterlimit:10;" x1="69.551" y1="342.542" x2="91.842" y2="321.047"/>
						
							<line style="fill:none;stroke:#3D3F54;stroke-width:0.6835;stroke-linecap:round;stroke-miterlimit:10;" x1="83.182" y1="325.064" x2="83.101" y2="329.537"/>
						
							<line style="fill:none;stroke:#3D3F54;stroke-width:0.6835;stroke-linecap:round;stroke-miterlimit:10;" x1="86.975" y1="325.961" x2="91.169" y2="326.037"/>
						
							<line style="fill:none;stroke:#3D3F54;stroke-width:0.6835;stroke-linecap:round;stroke-miterlimit:10;" x1="90.636" y1="319.549" x2="90.591" y2="322.014"/>
					</g>
				</g>
				<g>
					<g>
						<path style="fill:#00954F;" d="M58.004,329.976c6.32,0.258,11.311,3.714,11.148,7.72c-0.163,4.006-5.419,7.044-11.739,6.786
							c-6.32-0.258-11.311-3.714-11.148-7.72C46.428,332.757,51.684,329.719,58.004,329.976z"/>
						<path style="fill:none;stroke:#BFBF5B;stroke-width:0.4664;stroke-linecap:round;stroke-miterlimit:10;" d="M57.976,330.679
							c5.758,0.235,10.306,3.358,10.158,6.975c-0.147,3.618-4.935,6.36-10.692,6.125c-5.758-0.235-10.306-3.358-10.158-6.975
							C47.431,333.186,52.218,330.444,57.976,330.679z"/>
						
							<line style="fill:none;stroke:#BFBF5B;stroke-width:0.4664;stroke-linecap:round;stroke-miterlimit:10;" x1="52.432" y1="342.548" x2="57.913" y2="337.496"/>
						
							<line style="fill:none;stroke:#BFBF5B;stroke-width:0.4664;stroke-linecap:round;stroke-miterlimit:10;" x1="62.658" y1="337.332" x2="56.538" y2="330.691"/>
						
							<line style="fill:none;stroke:#BFBF5B;stroke-width:0.4664;stroke-linecap:round;stroke-miterlimit:10;" x1="53.101" y1="336.88" x2="49.726" y2="333.218"/>
						
							<line style="fill:none;stroke:#BFBF5B;stroke-width:0.4664;stroke-linecap:round;stroke-miterlimit:10;" x1="66.78" y1="337.563" x2="60.591" y2="330.848"/>
						
							<line style="fill:none;stroke:#BFBF5B;stroke-width:0.4664;stroke-linecap:round;stroke-miterlimit:10;" x1="62.963" y1="337.532" x2="56.448" y2="343.537"/>
						
							<line style="fill:none;stroke:#BFBF5B;stroke-width:0.4664;stroke-linecap:round;stroke-miterlimit:10;" x1="56.715" y1="337.278" x2="51.65" y2="331.782"/>
						
							<line style="fill:none;stroke:#BFBF5B;stroke-width:0.4664;stroke-linecap:round;stroke-miterlimit:10;" x1="66.825" y1="338.003" x2="60.742" y2="343.609"/>
					</g>
					<g>
						
							<line style="fill:none;stroke:#3D3F54;stroke-width:0.6835;stroke-linecap:round;stroke-miterlimit:10;" x1="69.651" y1="337.716" x2="51.86" y2="336.991"/>
						
							<line style="fill:none;stroke:#3D3F54;stroke-width:0.6835;stroke-linecap:round;stroke-miterlimit:10;" x1="61.688" y1="340.845" x2="65.326" y2="337.491"/>
						
							<line style="fill:none;stroke:#3D3F54;stroke-width:0.6835;stroke-linecap:round;stroke-miterlimit:10;" x1="59.507" y1="337.127" x2="56.363" y2="333.716"/>
						
							<line style="fill:none;stroke:#3D3F54;stroke-width:0.6835;stroke-linecap:round;stroke-miterlimit:10;" x1="51.584" y1="339.099" x2="53.589" y2="337.251"/>
					</g>
				</g>
				<g>
					<g>
						<path style="fill:#00C76A;" d="M74.308,323.054c2.055,5.338,0.978,10.721-2.405,12.023c-3.383,1.302-7.792-1.969-9.846-7.307
							c-2.055-5.338-0.978-10.721,2.405-12.023C67.845,314.444,72.253,317.716,74.308,323.054z"/>
						<path style="fill:none;stroke:#FFFF79;stroke-width:0.4664;stroke-linecap:round;stroke-miterlimit:10;" d="M73.714,323.282
							c1.872,4.863,0.913,9.759-2.143,10.935c-3.056,1.176-7.05-1.813-8.922-6.676c-1.872-4.863-0.913-9.759,2.143-10.935
							C67.848,315.431,71.843,318.419,73.714,323.282z"/>
						
							<line style="fill:none;stroke:#FFFF79;stroke-width:0.4664;stroke-linecap:round;stroke-miterlimit:10;" x1="61.873" y1="322.942" x2="68.034" y2="325.678"/>
						
							<line style="fill:none;stroke:#FFFF79;stroke-width:0.4664;stroke-linecap:round;stroke-miterlimit:10;" x1="69.873" y1="329.557" x2="73.188" y2="322.093"/>
						
							<line style="fill:none;stroke:#FFFF79;stroke-width:0.4664;stroke-linecap:round;stroke-miterlimit:10;" x1="66.818" y1="321.462" x2="68.646" y2="317.347"/>
						
							<line style="fill:none;stroke:#FFFF79;stroke-width:0.4664;stroke-linecap:round;stroke-miterlimit:10;" x1="71.161" y1="333.061" x2="74.513" y2="325.513"/>
						
							<line style="fill:none;stroke:#FFFF79;stroke-width:0.4664;stroke-linecap:round;stroke-miterlimit:10;" x1="69.817" y1="329.882" x2="62.495" y2="326.63"/>
						
							<line style="fill:none;stroke:#FFFF79;stroke-width:0.4664;stroke-linecap:round;stroke-miterlimit:10;" x1="67.785" y1="324.605" x2="70.528" y2="318.428"/>
						
							<line style="fill:none;stroke:#FFFF79;stroke-width:0.4664;stroke-linecap:round;stroke-miterlimit:10;" x1="70.812" y1="333.256" x2="63.976" y2="330.219"/>
					</g>
					<g>
						
							<line style="fill:none;stroke:#3D3F54;stroke-width:0.6835;stroke-linecap:round;stroke-miterlimit:10;" x1="73.892" y1="340.213" x2="66.281" y2="320.472"/>
						
							<line style="fill:none;stroke:#3D3F54;stroke-width:0.6835;stroke-linecap:round;stroke-miterlimit:10;" x1="66.61" y1="330.013" x2="70.699" y2="331.829"/>
						
							<line style="fill:none;stroke:#3D3F54;stroke-width:0.6835;stroke-linecap:round;stroke-miterlimit:10;" x1="68.913" y1="326.868" x2="70.615" y2="323.034"/>
						
							<line style="fill:none;stroke:#3D3F54;stroke-width:0.6835;stroke-linecap:round;stroke-miterlimit:10;" x1="64.432" y1="321" x2="66.685" y2="322.001"/>
					</g>
				</g>
				<g>
					<g>
						<path style="fill:#00C76A;" d="M85.646,346.026c-5.662-0.813-9.834-4.381-9.319-7.97c0.515-3.588,5.523-5.838,11.185-5.025
							c5.662,0.813,9.834,4.381,9.318,7.97C96.315,344.59,91.308,346.839,85.646,346.026z"/>
						<path style="fill:none;stroke:#FFFF79;stroke-width:0.4664;stroke-linecap:round;stroke-miterlimit:10;" d="M85.737,345.397
							c-5.158-0.741-8.962-3.968-8.497-7.209c0.465-3.241,5.024-5.267,10.182-4.527c5.158,0.741,8.962,3.968,8.497,7.209
							C95.453,344.111,90.895,346.137,85.737,345.397z"/>
						
							<line style="fill:none;stroke:#FFFF79;stroke-width:0.4664;stroke-linecap:round;stroke-miterlimit:10;" x1="91.815" y1="335.229" x2="86.42" y2="339.27"/>
						
							<line style="fill:none;stroke:#FFFF79;stroke-width:0.4664;stroke-linecap:round;stroke-miterlimit:10;" x1="82.136" y1="338.981" x2="87.031" y2="345.518"/>
						
							<line style="fill:none;stroke:#FFFF79;stroke-width:0.4664;stroke-linecap:round;stroke-miterlimit:10;" x1="90.692" y1="340.267" x2="93.391" y2="343.871"/>
						
							<line style="fill:none;stroke:#FFFF79;stroke-width:0.4664;stroke-linecap:round;stroke-miterlimit:10;" x1="78.45" y1="338.395" x2="83.399" y2="345.004"/>
						
							<line style="fill:none;stroke:#FFFF79;stroke-width:0.4664;stroke-linecap:round;stroke-miterlimit:10;" x1="81.88" y1="338.773" x2="88.293" y2="333.971"/>
						
							<line style="fill:none;stroke:#FFFF79;stroke-width:0.4664;stroke-linecap:round;stroke-miterlimit:10;" x1="87.478" y1="339.577" x2="91.528" y2="344.986"/>
						
							<line style="fill:none;stroke:#FFFF79;stroke-width:0.4664;stroke-linecap:round;stroke-miterlimit:10;" x1="78.45" y1="337.995" x2="84.437" y2="333.511"/>
					</g>
					<g>
						
							<line style="fill:none;stroke:#3D3F54;stroke-width:0.6835;stroke-linecap:round;stroke-miterlimit:10;" x1="74.143" y1="337.743" x2="91.819" y2="340.281"/>
						
							<line style="fill:none;stroke:#3D3F54;stroke-width:0.6835;stroke-linecap:round;stroke-miterlimit:10;" x1="83.332" y1="335.911" x2="79.751" y2="338.592"/>
						
							<line style="fill:none;stroke:#3D3F54;stroke-width:0.6835;stroke-linecap:round;stroke-miterlimit:10;" x1="84.952" y1="339.456" x2="87.466" y2="342.813"/>
						
							<line style="fill:none;stroke:#3D3F54;stroke-width:0.6835;stroke-linecap:round;stroke-miterlimit:10;" x1="92.261" y1="338.41" x2="90.287" y2="339.888"/>
					</g>
				</g>
				<g>
					<g>
						<path style="fill:#00C76A;" d="M63.835,342.611c2.321-5.228,6.889-8.272,10.203-6.801c3.313,1.471,4.117,6.902,1.795,12.129
							c-2.322,5.228-6.889,8.272-10.203,6.801C62.317,353.269,61.513,347.839,63.835,342.611z"/>
						<path style="fill:none;stroke:#FFFF79;stroke-width:0.4664;stroke-linecap:round;stroke-miterlimit:10;" d="M64.416,342.869
							c2.115-4.762,6.255-7.546,9.247-6.217c2.992,1.329,3.703,6.267,1.588,11.029c-2.115,4.762-6.255,7.546-9.247,6.217
							C63.012,352.569,62.301,347.632,64.416,342.869z"/>
						
							<line style="fill:none;stroke:#FFFF79;stroke-width:0.4664;stroke-linecap:round;stroke-miterlimit:10;" x1="72.548" y1="351.483" x2="70.126" y2="345.192"/>
						
							<line style="fill:none;stroke:#FFFF79;stroke-width:0.4664;stroke-linecap:round;stroke-miterlimit:10;" x1="71.569" y1="341.148" x2="63.947" y2="344.082"/>
						
							<line style="fill:none;stroke:#FFFF79;stroke-width:0.4664;stroke-linecap:round;stroke-miterlimit:10;" x1="68.005" y1="349.033" x2="63.803" y2="350.65"/>
						
							<line style="fill:none;stroke:#FFFF79;stroke-width:0.4664;stroke-linecap:round;stroke-miterlimit:10;" x1="73.135" y1="337.76" x2="65.429" y2="340.727"/>
						
							<line style="fill:none;stroke:#FFFF79;stroke-width:0.4664;stroke-linecap:round;stroke-miterlimit:10;" x1="71.839" y1="340.959" x2="74.717" y2="348.436"/>
						
							<line style="fill:none;stroke:#FFFF79;stroke-width:0.4664;stroke-linecap:round;stroke-miterlimit:10;" x1="69.543" y1="346.127" x2="63.237" y2="348.555"/>
						
							<line style="fill:none;stroke:#FFFF79;stroke-width:0.4664;stroke-linecap:round;stroke-miterlimit:10;" x1="73.52" y1="337.869" x2="76.207" y2="344.85"/>
					</g>
					<g>
						
							<line style="fill:none;stroke:#3D3F54;stroke-width:0.6835;stroke-linecap:round;stroke-miterlimit:10;" x1="73.857" y1="335.864" x2="67.685" y2="350.113"/>
						
							<line style="fill:none;stroke:#3D3F54;stroke-width:0.6835;stroke-linecap:round;stroke-miterlimit:10;" x1="74.198" y1="343.134" x2="72.591" y2="338.958"/>
						
							<line style="fill:none;stroke:#3D3F54;stroke-width:0.6835;stroke-linecap:round;stroke-miterlimit:10;" x1="70.347" y1="343.729" x2="66.432" y2="345.236"/>
						
							<line style="fill:none;stroke:#3D3F54;stroke-width:0.6835;stroke-linecap:round;stroke-miterlimit:10;" x1="69.366" y1="351.047" x2="68.48" y2="348.746"/>
					</g>
				</g>
			</g>
		</g>
		<g>
			<rect x="176.234" y="359.716" style="fill:#3D3F54;" width="2.543" height="96.466"/>
			<rect x="189.664" y="359.716" style="fill:#3D3F54;" width="2.543" height="96.466"/>
			<rect x="73.491" y="359.716" style="fill:#3D3F54;" width="2.543" height="96.466"/>
			<rect x="84.905" y="359.716" style="fill:#3D3F54;" width="2.543" height="96.466"/>
			
				<rect x="85.927" y="362.429" transform="matrix(-1 -1.224647e-16 1.224647e-16 -1 278.1347 731.7174)" style="fill:#707078;" width="106.28" height="6.86"/>
			
				<rect x="79.77" y="353.637" transform="matrix(-1 -1.224647e-16 1.224647e-16 -1 285.3734 716.0652)" style="fill:#A9A8B5;" width="125.833" height="8.792"/>
			
				<rect x="68.513" y="362.429" transform="matrix(-1 -1.224647e-16 1.224647e-16 -1 183.8203 731.7171)" style="fill:#5B5A61;" width="46.793" height="6.86"/>
			
				<line style="fill:none;stroke:#3D3F54;stroke-width:0.6835;stroke-linecap:round;stroke-miterlimit:10;" x1="103.489" y1="365.479" x2="75.04" y2="365.654"/>
			
				<rect x="64.213" y="353.636" transform="matrix(-1 -1.224647e-16 1.224647e-16 -1 187.0074 716.0649)" style="fill:#68676F;" width="58.581" height="8.792"/>
		</g>
		<g>
			<g>
				<path style="fill:#F1F0FF;" d="M126.56,306.297h55.538c1.568,0,2.928,1.086,3.275,2.615l9.318,41.065
					c0.37,1.633-0.871,3.187-2.545,3.187h-55.702c-2.021,0-3.772-1.399-4.219-3.369l-8.939-39.398
					C122.808,308.297,124.405,306.297,126.56,306.297z"/>
				<path style="fill:#3D3F54;" d="M157.256,307.595c0,0.435-0.352,0.787-0.787,0.787c-0.435,0-0.787-0.352-0.787-0.787
					c0-0.435,0.352-0.787,0.787-0.787C156.904,306.808,157.256,307.16,157.256,307.595z"/>
				<path style="fill:#FB4B62;" d="M129.33,308.906h50.793c1.434,0,2.677,0.993,2.995,2.392l8.521,37.557
					c0.339,1.493-0.796,2.915-2.328,2.915h-50.943c-1.848,0-3.45-1.279-3.859-3.081l-8.175-36.032
					C125.899,310.735,127.359,308.906,129.33,308.906z"/>
				<g>
					<path style="fill:#FFFFFF;" d="M139.98,318.206h32.318l5.505,24.264h-31.918c-0.234,0-0.437-0.162-0.489-0.39L139.98,318.206z"
						/>
					<g>
						<g>
							<polygon style="fill:#FB4B62;" points="169.602,339.446 166.902,327.763 169.221,327.763 171.921,339.446 							"/>
							<polygon style="fill:#FB4B62;" points="165.462,330.787 167.463,339.446 165.144,339.446 163.143,330.787 							"/>
							<polygon style="fill:#FB4B62;" points="161.004,330.787 163.006,339.446 160.686,339.446 158.685,330.787 							"/>
							<polygon style="fill:#FB4B62;" points="157.22,333.699 158.548,339.446 156.228,339.446 154.9,333.699 							"/>
							<polygon style="fill:#FB4B62;" points="153.282,335.949 154.09,339.446 151.77,339.446 150.962,335.949 							"/>
						</g>
						<polyline style="fill:none;stroke:#4E506B;stroke-width:0.4557;stroke-linecap:round;stroke-miterlimit:10;" points="
							145.855,324.985 149.373,339.493 173.729,339.493 						"/>
						<g>
							<path style="fill:none;stroke:#4E506B;stroke-width:0.4557;stroke-linecap:round;stroke-miterlimit:10;" d="M150.057,336.196
								c6.009-3.847,12.018-7.695,18.026-11.542"/>
							<polyline style="fill:none;stroke:#4E506B;stroke-width:0.4557;stroke-linecap:round;stroke-miterlimit:10;" points="
								166.655,324.519 168.101,324.519 168.101,325.934 							"/>
						</g>
					</g>
					
						<polygon style="fill:#4E506B;stroke:#4E506B;stroke-width:0.6835;stroke-linecap:round;stroke-linejoin:round;stroke-miterlimit:10;" points="
						173.101,321.742 172.299,318.206 139.98,318.206 140.783,321.742 					"/>
				</g>
			</g>
			<g>
				<path style="fill:#F1F0FF;" d="M218.036,353.592L218.036,353.592h-82.654c-1.74,0-3.151-1.41-3.151-3.15v-0.781h80.881
					C215.47,349.661,217.514,351.293,218.036,353.592z"/>
				<path style="fill:#FFFFFF;" d="M155.172,353.592c0-2.171,1.76-3.931,3.931-3.931h54.01c2.358,0,4.401,1.632,4.923,3.931H155.172
					L155.172,353.592z"/>
			</g>
		</g>
	</g>
	<g>
		<g>
			<g>
				<path style="fill:#FFFFFF;" d="M294.219,456.076h1.434h52.145c0.108-0.579,0.186-1.166,0.228-1.761h0.158
					c-0.047-0.013-0.107-0.032-0.156-0.046c0.039-0.579,0.049-1.164,0.023-1.755c-0.276-6.161-3.283-11.73-7.957-15.128
					c-0.103-0.764-0.205-1.528-0.308-2.292c-1.179-4.204-3.306-7.854-6.382-10.95c-1.674-1.294-3.348-2.587-5.022-3.88
					c-3.87-2.245-8.045-3.374-12.525-3.388c-3.417-0.129-6.603,0.584-9.561,2.137c-0.649,0.211-1.275,0.461-1.888,0.735
					c-0.046-0.047-0.088-0.097-0.135-0.144l-3.683-2.846c-2.838-1.646-5.9-2.474-9.185-2.485c-2.505-0.095-4.843,0.428-7.011,1.567
					c-0.257,0.084-0.496,0.198-0.745,0.295c-27.699-50.148-24.103-161.829-24.103-161.829h-19.13c0,0,4.021,125.048-29.27,169.914
					c-1.707-1.069-3.547-1.654-5.522-1.743c-1.336-0.359-2.671-0.359-4.007,0c-2.006,0.091-3.874,0.687-5.604,1.789
					c-1.017,0.786-2.034,1.571-3.051,2.357c-0.694,0.898-1.388,1.796-2.082,2.694c-2.275-0.936-4.716-1.467-7.302-1.467
					c-2.733-0.103-5.283,0.467-7.649,1.71c-2.461,0.801-4.591,2.169-6.389,4.105c-1.212,1.126-2.176,2.398-2.943,3.784
					c-2.306-1.671-5.13-2.665-8.272-2.665c-7.596,0-14.873,6.679-14.522,14.522c0.109,2.425,0.76,4.733,1.843,6.768H294.219z"/>
			</g>
			<path style="fill:#FFFFFF;" d="M162.334,416.135c-7.097,0-7.108,11.029,0,11.029
				C169.431,427.164,169.443,416.135,162.334,416.135z"/>
			<path style="fill:#FFFFFF;" d="M312.486,385.737c-1.618-1.486-3.608-2.423-5.849-2.423c-1.139-0.043-2.201,0.194-3.187,0.712
				c-1.025,0.334-1.913,0.904-2.662,1.71c-0.807,0.749-1.377,1.637-1.71,2.662c-0.518,0.986-0.755,2.048-0.712,3.187
				c0.096,2.139,0.798,4.358,2.423,5.849c1.618,1.486,3.608,2.423,5.849,2.423c1.139,0.043,2.201-0.194,3.187-0.712
				c1.025-0.334,1.913-0.904,2.662-1.71c0.807-0.749,1.377-1.637,1.71-2.662c0.518-0.986,0.755-2.048,0.712-3.187
				C314.813,389.447,314.111,387.228,312.486,385.737z"/>
			<path style="fill:#EDF0FF;" d="M182.376,438.031c-7.806,0-7.819,12.132,0,12.132
				C190.183,450.163,190.196,438.031,182.376,438.031z"/>
			<path style="fill:#EDF0FF;" d="M215.245,434.809c-4.731,0-4.739,7.353,0,7.353C219.977,442.161,219.984,434.809,215.245,434.809z
				"/>
			<path style="fill:#EDF0FF;" d="M229.796,452.394c0.868,0.671,1.736,1.341,2.604,2.012c1.587,0.921,3.275,1.474,5.06,1.671h3.094
				c1.153-0.144,2.255-0.474,3.298-1.022c1.595-0.519,2.975-1.406,4.141-2.661c1.255-1.165,2.142-2.546,2.661-4.141
				c0.806-1.533,1.175-3.186,1.108-4.957c-0.153-1.14-0.307-2.281-0.46-3.421c-0.611-2.18-1.714-4.072-3.309-5.678
				c-0.868-0.671-1.736-1.341-2.604-2.012c-2.007-1.164-4.172-1.749-6.494-1.757c-1.772-0.067-3.424,0.303-4.958,1.108
				c-1.595,0.519-2.975,1.406-4.141,2.661c-1.255,1.165-2.142,2.546-2.661,4.141c-0.806,1.533-1.175,3.186-1.108,4.958
				c0.153,1.14,0.307,2.28,0.46,3.421C227.099,448.895,228.202,450.788,229.796,452.394z"/>
			<path style="fill:#EDF0FF;" d="M269.487,456.076h7.756c6.795-3.468,5.52-16.026-3.876-16.026
				C263.987,440.05,262.687,452.608,269.487,456.076z"/>
			<path style="fill:#EDF0FF;" d="M293.009,429.381c-4.495,0-4.502,6.985,0,6.985C297.503,436.366,297.511,429.381,293.009,429.381z
				"/>
			<path style="fill:#EDF0FF;" d="M298.62,350.844c-16.322,0-16.349,25.367,0,25.367C314.943,376.211,314.97,350.844,298.62,350.844
				z"/>
			<path style="fill:#EDF0FF;" d="M344.835,400.287c-1.475-1.354-3.287-2.207-5.329-2.207c-1.932,0-3.962,0.841-5.329,2.207
				c-0.735,0.683-1.254,1.491-1.558,2.426c-0.472,0.898-0.688,1.866-0.649,2.904c0.087,1.949,0.728,3.971,2.207,5.329
				c1.475,1.354,3.287,2.207,5.329,2.207c1.933,0,3.963-0.841,5.329-2.207c0.735-0.683,1.254-1.491,1.558-2.425
				c0.472-0.898,0.688-1.866,0.649-2.904C346.955,403.667,346.315,401.645,344.835,400.287z"/>
			<path style="fill:#EDF0FF;" d="M202.84,386.355c-1.115-1.023-2.485-1.669-4.029-1.669c-1.461,0-2.996,0.636-4.029,1.669
				c-0.988,0.988-1.733,2.61-1.669,4.029c0.066,1.474,0.55,3.002,1.669,4.029c1.115,1.023,2.485,1.669,4.029,1.669
				c1.461,0,2.996-0.636,4.029-1.669c0.988-0.988,1.732-2.61,1.669-4.029C204.443,388.91,203.959,387.382,202.84,386.355z"/>
			<path style="fill:#EDF0FF;" d="M313.852,424.915c-7.549,0-13.97,6.421-13.97,13.97c0,7.577,6.393,13.97,13.97,13.97
				c7.549,0,13.97-6.421,13.97-13.97C327.823,431.309,321.429,424.915,313.852,424.915z"/>
			<path style="fill:#EDF0FF;" d="M343.627,456.076c0.071-0.375,0.106-0.759,0.091-1.157c-0.077-1.711-0.639-3.486-1.938-4.679
				c-1.295-1.189-2.886-1.938-4.679-1.938c-1.697,0-3.479,0.738-4.679,1.938c-0.645,0.599-1.101,1.309-1.368,2.13
				c-0.414,0.789-0.604,1.638-0.57,2.55c0.017,0.385,0.063,0.773,0.132,1.157H343.627z"/>
			<path style="fill:#EDF0FF;" d="M262.144,414.596c-13.72,0-13.743,21.323,0,21.323
				C275.864,435.919,275.887,414.596,262.144,414.596z"/>
			<path style="fill:none;stroke:#DFE3FC;stroke-width:0.7059;stroke-linecap:round;stroke-miterlimit:10;" d="M247.784,264.502
				c0.189,45.244-3.964,91.053-11.705,136.216"/>
			<path style="fill:none;stroke:#DFE3FC;stroke-width:0.7059;stroke-linecap:round;stroke-miterlimit:10;" d="M255.983,305.805
				c0.147,30.714,5.018,61.402,14.391,90.652"/>
			
				<line style="fill:none;stroke:#DFE3FC;stroke-width:0.7059;stroke-linecap:round;stroke-miterlimit:10;" x1="252.123" y1="282.157" x2="252.123" y2="348.307"/>
			<path style="fill:none;stroke:#DFE3FC;stroke-width:0.7059;stroke-linecap:round;stroke-miterlimit:10;" d="M218.943,419.695
				c6.387-11.505,10.938-24.027,13.429-36.948"/>
			<path style="fill:#D1D5ED;" d="M199.212,433.537c-9.462,0-9.478,14.705,0,14.705C208.674,448.243,208.69,433.537,199.212,433.537
				z"/>
			<path style="fill:#D1D5ED;" d="M284.19,380.595c-3.312,0-3.317,5.147,0,5.147C287.502,385.742,287.507,380.595,284.19,380.595z"
				/>
			<path style="fill:#FFFFFF;" d="M322.671,338.724c-3.548,0-3.554,5.515,0,5.515C326.219,344.239,326.225,338.724,322.671,338.724z
				"/>
			
				<line style="fill:none;stroke:#DFE3FC;stroke-width:0.7059;stroke-linecap:round;stroke-miterlimit:10;" x1="248.267" y1="356.167" x2="248.267" y2="402.591"/>
			<path style="fill:none;stroke:#DFE3FC;stroke-width:0.7059;stroke-linecap:round;stroke-miterlimit:10;" d="M256.112,367.663
				c1.198,15.744,5.219,31.268,11.815,45.614"/>
		</g>
		<g>
			<g>
				<g>
					<path style="fill:#FB4B62;" d="M273.636,198.39l16.559,8.112c0,0,2.65,37.392-13.247,60.144l-5.299-52.538L273.636,198.39z"/>
					<path style="fill:none;stroke:#4E506B;stroke-width:0.7059;stroke-linecap:round;stroke-miterlimit:10;" d="M276.781,235.87
						c0.9,6.838,1.799,13.676,2.699,20.513"/>
				</g>
				<g>
					<path style="fill:#FB4B62;" d="M226.98,198.39l-16.559,8.112c0,0-2.65,37.392,13.248,60.144l5.299-52.538L226.98,198.39z"/>
					<path style="fill:none;stroke:#4E506B;stroke-width:0.7059;stroke-linecap:round;stroke-miterlimit:10;" d="M214.363,208.819
						c-0.984,9.403-0.306,18.978,1.994,28.149"/>
				</g>
			</g>
			<rect x="241.111" y="242.353" style="fill:#808080;" width="18.393" height="25.187"/>
			<g>
				<path style="fill:#FFE7A0;" d="M263.847,245.878c-9.026,0-18.052,0-27.078,0c-4.807,0-8.939-4.136-9.88-9.867
					c-6.288-38.295-6.287-75.839,0-114.129c0.941-5.731,5.073-9.867,9.88-9.867c9.026,0,18.052,0,27.078,0
					c4.807,0,8.939,4.136,9.88,9.867c6.287,38.29,6.288,75.834,0,114.129C272.786,241.742,268.654,245.878,263.847,245.878z"/>
			</g>
			
				<line style="fill:none;stroke:#4E506B;stroke-width:0.7059;stroke-linecap:round;stroke-miterlimit:10;" x1="253.211" y1="240.737" x2="253.211" y2="223.154"/>
			
				<line style="fill:none;stroke:#4E506B;stroke-width:0.7059;stroke-linecap:round;stroke-miterlimit:10;" x1="250.308" y1="246.276" x2="250.308" y2="112.134"/>
			<g>
				
					<ellipse transform="matrix(0.2279 -0.9737 0.9737 0.2279 26.0582 376.3236)" style="fill:#FFFFFF;stroke:#4E506B;stroke-width:0.7059;stroke-linecap:round;stroke-miterlimit:10;" cx="250.308" cy="171.732" rx="19.364" ry="19.364"/>
				<circle style="fill:#8AB5FF;" cx="250.308" cy="171.732" r="13.01"/>
				<g>
					<path style="fill:#FFE7A0;" d="M256.35,169.791c0-3.367-2.754-6.091-6.132-6.042c-3.3,0.048-6.036,2.904-5.95,6.202
						c0.063,2.394,1.52,4.437,3.589,5.356c0.539,0.24,0.895,0.762,0.895,1.352v3.342h3.112v-3.341c0-0.594,0.362-1.115,0.904-1.357
						C254.878,174.362,256.35,172.251,256.35,169.791z"/>
					<path style="fill:none;stroke:#4E506B;stroke-width:0.7059;stroke-linecap:round;stroke-miterlimit:10;" d="M249.528,176.763
						c-0.161-1.884-0.648-3.74-1.431-5.461"/>
					<path style="fill:none;stroke:#4E506B;stroke-width:0.7059;stroke-linecap:round;stroke-miterlimit:10;" d="M250.921,176.763
						c0.161-1.884,0.648-3.74,1.431-5.461"/>
					<path style="fill:#4E506B;" d="M250.308,181.003L250.308,181.003c-0.754,0-1.366-0.611-1.366-1.365v-0.28
						c0-0.754,0.611-1.366,1.366-1.366l0,0c0.754,0,1.365,0.611,1.365,1.366v0.28C251.673,180.391,251.062,181.003,250.308,181.003z
						"/>
					<path style="fill:#999999;" d="M251.649,180.065h-2.681c-0.241,0-0.437-0.196-0.437-0.437v-2.243
						c0-0.241,0.196-0.437,0.437-0.437h2.681c0.241,0,0.437,0.196,0.437,0.437v2.243
						C252.086,179.869,251.89,180.065,251.649,180.065z"/>
				</g>
			</g>
			<g>
				<path style="fill:#FB4B62;" d="M226.889,121.882l19.185-49.139c2.364-6.056,9.528-5.788,11.581,0.434l16.072,48.705
					c0,0-4.812-9.371-23.273-9.371C233.303,112.511,226.889,121.882,226.889,121.882z"/>
				<path style="fill:none;stroke:#4E506B;stroke-width:0.7059;stroke-linecap:round;stroke-miterlimit:10;" d="M234.702,110.158
					c4.533-10.717,9.066-21.434,13.598-32.151"/>
			</g>
			<rect x="230.21" y="260.783" style="fill:#808080;" width="40.196" height="11.712"/>
			<path style="fill:#4E506B;" d="M270.434,263.373h-40.251v-5.073c0-3.893,3.156-7.048,7.049-7.048h26.154
				c3.893,0,7.049,3.156,7.049,7.048V263.373z"/>
			<g>
				
					<line style="fill:none;stroke:#4E506B;stroke-width:0.7059;stroke-linecap:round;stroke-miterlimit:10;" x1="234.747" y1="272.218" x2="234.747" y2="259.207"/>
				
					<line style="fill:none;stroke:#4E506B;stroke-width:0.7059;stroke-linecap:round;stroke-miterlimit:10;" x1="245.121" y1="272.218" x2="245.121" y2="259.207"/>
				
					<line style="fill:none;stroke:#4E506B;stroke-width:0.7059;stroke-linecap:round;stroke-miterlimit:10;" x1="255.495" y1="272.218" x2="255.495" y2="259.207"/>
				
					<line style="fill:none;stroke:#4E506B;stroke-width:0.7059;stroke-linecap:round;stroke-miterlimit:10;" x1="265.869" y1="272.218" x2="265.869" y2="259.207"/>
			</g>
		</g>
		<g>
			<path style="fill:#FFFFFF;" d="M219.062,211.324c-1.901,0-3.361,0.683-4.39,1.729c-0.299-0.389-0.623-0.763-0.977-1.119
				c-0.756-0.584-1.513-1.169-2.269-1.753c-1.749-1.014-3.635-1.525-5.659-1.531c-1.544-0.058-2.984,0.264-4.32,0.966
				c-1.39,0.452-2.593,1.225-3.609,2.318c-1.093,1.016-1.866,2.218-2.318,3.609c-0.702,1.336-1.024,2.776-0.966,4.32
				c0.134,0.994,0.267,1.987,0.4,2.981c0.022,0.077,0.055,0.148,0.078,0.224c-0.875,0.414-1.674,0.959-2.381,1.661
				c-1.056,1.063-1.786,2.316-2.191,3.76c-0.207,0.911-0.292,1.833-0.248,2.743c-0.8,0.276-1.546,0.722-2.127,1.303
				c-0.957,0.956-1.677,2.526-1.615,3.899c0.064,1.426,0.532,2.905,1.615,3.899c1.079,0.99,2.405,1.615,3.899,1.615
				c1.414,0,2.899-0.615,3.899-1.615c0.356-0.356,0.678-0.796,0.94-1.28c2.84,0.63,5.791-0.247,7.877-2.275
				c0.04-0.038,0.079-0.077,0.118-0.115c0.441-0.571,0.883-1.143,1.324-1.714c0.619-0.972,0.954-2.021,1.005-3.148
				c0.073-0.27,0.11-0.54,0.13-0.81c0.981-0.131,1.92-0.414,2.809-0.881c1.39-0.452,2.593-1.225,3.609-2.318
				c1.093-1.016,1.866-2.219,2.318-3.609c0.1-0.19,0.174-0.386,0.259-0.58c0.793,0.372,1.721,0.589,2.79,0.589
				C227.341,224.191,227.355,211.324,219.062,211.324z"/>
			<path style="fill:#FFFFFF;" d="M229.8,202.071c-7.57,0-7.582,11.764,0,11.764C237.37,213.835,237.382,202.071,229.8,202.071z"/>
			<path style="fill:#FFFFFF;" d="M237.27,196.623c-4.968,0-4.976,7.72,0,7.72C242.238,204.343,242.246,196.623,237.27,196.623z"/>
			<path style="fill:#FFFFFF;" d="M254.077,204.638c-0.061,0-0.061,0.094,0,0.094S254.138,204.638,254.077,204.638z"/>
			<path style="fill:#FFFFFF;" d="M298.43,186.381c-3.605,0-5.436,2.754-5.499,5.554c-1.143-0.759-2.573-1.224-4.306-1.224
				c-4.453,0-6.959,3.029-7.516,6.435c-1.299,0.128-2.603,0.729-3.517,1.642c-0.988,0.988-1.733,2.61-1.669,4.029
				c0.066,1.474,0.55,3.002,1.669,4.029c1.115,1.023,2.485,1.669,4.029,1.669c1.461,0,2.996-0.636,4.029-1.669
				c0.198-0.198,0.383-0.428,0.557-0.67c0.73,0.217,1.533,0.343,2.417,0.343c5.634,0,8.146-4.848,7.542-9.175
				c0.656,0.273,1.407,0.433,2.263,0.433C305.764,197.778,305.776,186.381,298.43,186.381z"/>
			<path style="fill:#FFFFFF;" d="M299.831,186.43c-0.06,0-0.061,0.094,0,0.094C299.891,186.524,299.892,186.43,299.831,186.43z"/>
			<path style="fill:#FFFFFF;" d="M310.569,158.159c-0.429,0-0.838,0.03-1.238,0.072c-1.492-1.272-3.287-2.068-5.298-2.068
				c-2.027,0-4.156,0.882-5.589,2.315c-0.771,0.716-1.316,1.564-1.634,2.544c-0.495,0.942-0.722,1.957-0.681,3.045
				c0.092,2.044,0.763,4.164,2.315,5.589c0.835,0.767,1.777,1.373,2.801,1.776c0.472,1.653,1.325,3.181,2.561,4.38
				c-5.48,3.44-4.172,14,3.962,14c6.841,0,8.858-7.495,6.047-11.914C323.471,174.841,322.407,158.159,310.569,158.159z"/>
			<path style="fill:#FFFFFF;" d="M292.602,160.558c-0.971-0.891-2.165-1.454-3.509-1.454c-1.273,0-2.609,0.554-3.509,1.454
				c-0.861,0.861-1.509,2.273-1.454,3.509c0.057,1.284,0.479,2.615,1.454,3.51c0.971,0.891,2.165,1.454,3.509,1.454
				c1.273,0,2.609-0.554,3.509-1.454c0.861-0.861,1.509-2.273,1.454-3.51C293.998,162.784,293.577,161.452,292.602,160.558z"/>
			<path style="fill:#FFFFFF;" d="M327.843,149.568c-5.441,0-5.45,8.456,0,8.456C333.284,158.024,333.293,149.568,327.843,149.568z"
				/>
			<path style="fill:#FFFFFF;" d="M225.131,132.434c-1.656,0-1.659,2.573,0,2.573C226.787,135.007,226.79,132.434,225.131,132.434z"
				/>
			<path style="fill:#FFFFFF;" d="M218.257,127.531c-0.002-0.723-0.185-1.397-0.547-2.021c-0.323-0.993-0.875-1.852-1.656-2.578
				l-0.049-0.062c-1.004-0.997-2.188-1.687-3.551-2.069c-1.426-0.383-2.852-0.383-4.278,0c-1.363,0.382-2.547,1.072-3.551,2.069
				c-0.785,0.729-1.339,1.592-1.664,2.59c-0.504,0.959-0.735,1.992-0.693,3.1c0.004,1.452,0.371,2.806,1.098,4.061
				c1.427,2.438,4.115,3.999,6.948,3.985c0.025,0,0.049,0,0.074,0c0.71-0.095,1.42-0.191,2.129-0.286
				c0.638-0.269,1.276-0.538,1.913-0.808c0.54-0.417,1.081-0.835,1.621-1.252c0.781-0.726,1.333-1.585,1.656-2.578
				c0.362-0.625,0.545-1.298,0.547-2.021C218.448,128.95,218.448,128.241,218.257,127.531z"/>
			<path style="fill:#FFFFFF;" d="M199.92,115.005c-1.731,0-3.389,1.522-3.309,3.309c0.08,1.793,1.454,3.309,3.309,3.309
				c1.731,0,3.389-1.522,3.309-3.309C203.148,116.521,201.775,115.005,199.92,115.005z"/>
			<path style="fill:#FFFFFF;" d="M203.188,110.108c-0.946,0-0.948,1.471,0,1.471C204.134,111.579,204.136,110.108,203.188,110.108z
				"/>
			<path style="fill:#FFFFFF;" d="M216.727,95.892c-6.624,0-6.635,10.294,0,10.294C223.351,106.186,223.362,95.892,216.727,95.892z"
				/>
			<path style="fill:#FFFFFF;" d="M234.935,92.849c-2.129,0-2.132,3.309,0,3.309C237.064,96.158,237.068,92.849,234.935,92.849z"/>
			<path style="fill:#FFFFFF;" d="M253.61,82.169c-6.86,0-6.871,10.662,0,10.662C260.471,92.831,260.482,82.169,253.61,82.169z"/>
			<path style="fill:#FFFFFF;" d="M277.888,78.956c-3.785,0-3.791,5.882,0,5.882C281.673,84.839,281.679,78.956,277.888,78.956z"/>
		</g>
	</g>
	<g>
		<g>
			<g>
				<path style="fill:#FFBF9D;" d="M46.974,439.569c-0.228-1.436,1.205-2.161,2.298-3.087c1.182-0.303,2.543-2.238,3.313-3.1
					c2.201-2.464,9.166-12.49,9.166-12.49l7.242,2.16c0,0-7.46,10.469-7.811,11.3c-0.719,3.237-0.294,6.092,0.718,8.52
					c0.253,0.608,0.204,1.299-0.102,1.882l0,0c-0.583,1.115-1.961,1.546-3.076,0.963L46.974,439.569z"/>
			</g>
			<path style="fill:#3D3F54;" d="M94.281,389.852l15.023-47.341l3.441-13.571c3.804-15.003-18.7-21.411-22.974-6.535
				c-0.302,1.053-0.535,2.172-0.693,3.358l-2.182,16.458l-5.28,34.262l-8.774,12.246l-17.583,40.145
				c1.977,1.757,3.757,3.595,7.006,3.878L94.281,389.852z"/>
			<g>
				
					<path style="fill:#4E506B;stroke:#4E506B;stroke-width:0.6835;stroke-linecap:round;stroke-linejoin:round;stroke-miterlimit:10;" d="
					M43.646,446.027l26.8,14.023c0.659,0.345,1.473,0.09,1.818-0.569l0,0c0.345-0.659,0.09-1.473-0.569-1.818l-26.8-14.023
					c-0.659-0.345-1.473-0.09-1.818,0.569l0,0C42.732,444.868,42.987,445.682,43.646,446.027z"/>
				<path style="fill:#FB4B62;" d="M62.003,440.41l3.747,8.216c0,0,6.988,4.611,7.836,8.46c0,0-0.417,2.098-1.486,1.539
					L44.685,444.28c-0.698-0.365-0.941-1.246-0.529-1.918l6.071-9.897c0,0,2.638,0.426,1.922,4.139
					C51.432,440.317,62.003,440.41,62.003,440.41z"/>
				
					<path style="fill:#4E506B;stroke:#4E506B;stroke-width:0.6835;stroke-linecap:round;stroke-linejoin:round;stroke-miterlimit:10;" d="
					M56.887,441.049c-1.933-0.395-4.127-0.827-5.547-2.307c-1.343-1.4,0.705-3.033-0.528-4.621
					c-0.302-0.389-0.584-0.781-0.908-1.129l0.323-0.527c0,0,2.638,0.427,1.922,4.139c-0.716,3.712,9.854,3.806,9.854,3.806
					l0.363,0.795C62.365,441.205,58.789,441.438,56.887,441.049z"/>
				<path style="fill:none;stroke:#4E506B;stroke-width:0.9114;stroke-linecap:round;stroke-miterlimit:10;" d="M63.543,443.396
					c-0.551-0.266-1.219-0.274-1.777-0.022"/>
				<path style="fill:none;stroke:#4E506B;stroke-width:0.9114;stroke-linecap:round;stroke-miterlimit:10;" d="M64.581,445.535
					c-0.48-0.304-1.135-0.302-1.613,0.005"/>
				<path style="fill:none;stroke:#4E506B;stroke-width:0.9114;stroke-linecap:round;stroke-miterlimit:10;" d="M65.64,447.75
					c-0.531-0.272-1.217-0.211-1.691,0.152"/>
				<path style="fill:none;stroke:#4E506B;stroke-width:0.4557;stroke-linecap:round;stroke-miterlimit:10;" d="M57.121,440.625
					c2.591-0.88,3.775,2.189,4.181,4.113c0.251,1.189,0.51,2.438,1.298,3.363c0.415,0.488,0.953,0.853,1.421,1.291
					c0.467,0.438,0.882,0.992,0.928,1.631"/>
				<path style="fill:none;stroke:#4E506B;stroke-width:0.4557;stroke-linecap:round;stroke-miterlimit:10;" d="M49.211,446.918
					c0.56-3.016-0.414-6.276-2.536-8.491"/>
				<path style="fill:none;stroke:#4E506B;stroke-width:0.4557;stroke-linecap:round;stroke-miterlimit:10;" d="M66.205,449.132
					c-0.67,0.133-1.34,0.266-2.011,0.399"/>
				
					<line style="fill:none;stroke:#4E506B;stroke-width:0.4557;stroke-linecap:round;stroke-miterlimit:10;" x1="73.045" y1="458.227" x2="49.538" y2="445.927"/>
				<path style="fill:none;stroke:#4E506B;stroke-width:0.4557;stroke-linecap:round;stroke-miterlimit:10;" d="M48.57,440.726
					c1.336-1.222,2.298-2.848,2.726-4.607"/>
			</g>
		</g>
		<g>
			<g>
				<path style="fill:#FFBF9D;" d="M96.706,455.063c-0.868-1.166,0.066-2.473,0.605-3.801c0.907-0.816,1.215-3.162,1.498-4.283
					c0.808-3.203,2.331-15.316,2.331-15.316l7.418-1.444c0,0-1.756,12.735-1.682,13.634c0.864,3.202,2.564,5.534,4.586,7.216
					c0.506,0.421,0.783,1.056,0.783,1.715l0,0c0,1.259-1.02,2.279-2.279,2.279H96.706z"/>
			</g>
			
				<path style="fill:#4E506B;stroke:#4E506B;stroke-width:0.6835;stroke-linecap:round;stroke-linejoin:round;stroke-miterlimit:10;" d="
				M115.572,389.079l2.442-47.34l-0.814-21.43c0.045-15.478-23.341-16.227-23.874-0.758c-0.038,1.094,0.008,2.237,0.144,3.425
				l2.736,23.925l1.946,36.204l-2.097,14.918l3.032,43.722c2.566,0.64,4.995,1.444,8.005,0.188L115.572,389.079z"/>
			<g>
				
					<path style="fill:#4E506B;stroke:#4E506B;stroke-width:0.6835;stroke-linecap:round;stroke-linejoin:round;stroke-miterlimit:10;" d="
					M96.751,462.327h30.247c0.744,0,1.347-0.603,1.347-1.347l0,0c0-0.744-0.603-1.347-1.347-1.347H96.751
					c-0.744,0-1.347,0.603-1.347,1.347l0,0C95.404,461.724,96.007,462.327,96.751,462.327z"/>
				<path style="fill:#FB4B62;" d="M110.411,448.84l7.13,5.543c0,0,8.33,0.845,10.865,3.863c0,0,0.604,2.052-0.604,2.052H96.861
					c-0.788,0-1.412-0.668-1.358-1.454l0.791-11.584c0,0,2.535-0.845,3.622,2.776C101.003,453.658,110.411,448.84,110.411,448.84z"
					/>
				
					<path style="fill:#4E506B;stroke:#4E506B;stroke-width:0.6835;stroke-linecap:round;stroke-linejoin:round;stroke-miterlimit:10;" d="
					M106.175,451.778c-1.896,0.546-4.04,1.181-5.985,0.527c-1.84-0.618-0.782-3.014-2.61-3.849c-0.448-0.204-0.88-0.421-1.328-0.579
					l0.042-0.616c0,0,2.535-0.845,3.622,2.776c1.086,3.622,10.495-1.197,10.495-1.197l0.69,0.536
					C111.101,449.376,108.041,451.241,106.175,451.778z"/>
				<path style="fill:none;stroke:#4E506B;stroke-width:0.9114;stroke-linecap:round;stroke-miterlimit:10;" d="M113.161,450.771
					c-0.611,0.02-1.208,0.323-1.585,0.804"/>
				<path style="fill:none;stroke:#4E506B;stroke-width:0.9114;stroke-linecap:round;stroke-miterlimit:10;" d="M115.072,452.185
					c-0.566-0.047-1.146,0.259-1.427,0.752"/>
				<path style="fill:none;stroke:#4E506B;stroke-width:0.9114;stroke-linecap:round;stroke-miterlimit:10;" d="M117.038,453.657
					c-0.597,0.005-1.176,0.377-1.428,0.919"/>
				<path style="fill:none;stroke:#4E506B;stroke-width:0.4557;stroke-linecap:round;stroke-miterlimit:10;" d="M106.186,451.294
					c1.888-1.981,4.36,0.19,5.612,1.706c0.774,0.937,1.582,1.924,2.709,2.378c0.594,0.24,1.24,0.314,1.857,0.486
					c0.617,0.171,1.241,0.47,1.579,1.014"/>
				<path style="fill:none;stroke:#4E506B;stroke-width:0.4557;stroke-linecap:round;stroke-miterlimit:10;" d="M102.095,460.537
					c-0.902-2.932-3.277-5.369-6.184-6.348"/>
				<path style="fill:none;stroke:#4E506B;stroke-width:0.4557;stroke-linecap:round;stroke-miterlimit:10;" d="M118.179,454.62
					c-0.532,0.429-1.064,0.857-1.597,1.286"/>
				
					<line style="fill:none;stroke:#4E506B;stroke-width:0.4557;stroke-linecap:round;stroke-miterlimit:10;" x1="128.456" y1="459.507" x2="101.926" y2="459.507"/>
				<path style="fill:none;stroke:#4E506B;stroke-width:0.4557;stroke-linecap:round;stroke-miterlimit:10;" d="M98.656,455.348
					c0.617-1.702,0.716-3.589,0.28-5.346"/>
			</g>
		</g>
		<g>
			<path style="fill:#FFBF9D;" d="M143.745,228.309l-19.153,26.975l-24.584-5.878c0,0-10.234,2.577-9.45,8.205
				c0.439,3.15,20.991,10.86,36.985,8.933c7.227-8.734,21.256-37.447,21.256-37.447L143.745,228.309z"/>
			<path style="fill:#FF957D;" d="M100.008,249.406l18.028,4.311c0.746,4.248-0.007,8.683-1.308,12.864
				c-13.159-1.244-25.826-6.503-26.17-8.969C89.774,251.983,100.008,249.406,100.008,249.406z"/>
			<g>
				<path style="fill:#D13E52;" d="M113.639,267.724c-13.501-1.457-24.722-7.443-25.05-9.796
					c-0.853-6.113,3.426-11.585,9.242-11.922l16.104,5.558C116.002,256.913,115.401,262.342,113.639,267.724z"/>
				<path style="fill:none;stroke:#3D3F54;stroke-width:0.6835;stroke-linecap:round;stroke-miterlimit:10;" d="M113.888,251.313
					c2.123,5.191,1.284,11.084-0.654,16.347"/>
			</g>
			<g>
				<polygon style="fill:#FFBF9D;" points="142.684,230.07 145.568,222.754 151.342,221.488 154.305,222.918 154.537,228.013 
					148.119,229.651 				"/>
				
					<path style="fill:#FFBF9D;stroke:#3D3F54;stroke-width:0.6835;stroke-linecap:round;stroke-linejoin:round;stroke-miterlimit:10;" d="
					M150.152,221.754c2.214-0.287,4.493-0.059,6.606,0.662c0.243,0.083,0.53,0.239,0.513,0.495c-0.02,0.299-0.416,0.384-0.716,0.385
					c-1.041,0.003-2.082,0.005-3.124,0.008"/>
				<g>
					<g>
						
							<rect x="148.086" y="215.825" transform="matrix(0.9895 -0.1443 0.1443 0.9895 -30.7258 24.0396)" style="fill:#3D3F54;" width="4.556" height="16.033"/>
					</g>
					<g>
						<path style="fill:#3D3F54;" d="M147.534,217.725l-1.442,0.262c-1.858,0.338-3.639-0.894-3.977-2.753l0,0
							c-0.338-1.858,0.894-3.639,2.753-3.977l1.442-0.262L147.534,217.725z"/>
						<path style="fill:#FFFFFF;" d="M144.149,210.033l4.176-0.76c4.111-0.748,12.334-4.281,14.093-8.071l2.139-4.607l5.136,28.231
							l-3.624-3.559c-2.981-2.928-11.931-3.389-16.042-2.641l-4.176,0.76L144.149,210.033z"/>
						
							<rect x="146.037" y="209.597" transform="matrix(0.9838 -0.179 0.179 0.9838 -35.997 29.7729)" style="fill:#FB4B62;" width="1.879" height="9.505"/>
						<path style="fill:#FB4B62;" d="M148.176,209.301l0.149-0.027c0.628-0.114,1.234-0.288,1.829-0.49l1.757,9.657
							c-0.628,0.02-1.257,0.071-1.884,0.185l-0.149,0.027L148.176,209.301z"/>
						<path style="fill:#FB4B62;" d="M170.169,225.461L170.169,225.461c0.531-0.097,0.883-0.605,0.786-1.136l-5.152-28.318
							c-0.097-0.531-0.605-0.883-1.136-0.786l0,0c-0.531,0.097-0.883,0.605-0.787,1.136l5.152,28.318
							C169.129,225.206,169.638,225.558,170.169,225.461z"/>
					</g>
				</g>
				
					<path style="fill:#FFBF9D;stroke:#3D3F54;stroke-width:0.6835;stroke-linecap:round;stroke-linejoin:round;stroke-miterlimit:10;" d="
					M154.111,228.145c-1.432,0.38-2.864,0.76-4.295,1.14c-0.132,0.035-0.269,0.07-0.402,0.044c-0.134-0.026-0.262-0.133-0.264-0.27
					c-0.003-0.127,0.098-0.23,0.192-0.316c0.935-0.861,2.213-1.47,3.414-1.873"/>
				
					<path style="fill:#FFBF9D;stroke:#3D3F54;stroke-width:0.6835;stroke-linecap:round;stroke-linejoin:round;stroke-miterlimit:10;" d="
					M154.043,226.895c-1.653,0.515-3.379,0.796-5.11,0.832c-0.032-0.518,0.431-0.922,0.873-1.195
					c1.127-0.699,2.411-1.145,3.729-1.295"/>
				
					<path style="fill:#FFBF9D;stroke:#3D3F54;stroke-width:0.6835;stroke-linecap:round;stroke-linejoin:round;stroke-miterlimit:10;" d="
					M153.528,225.203c-1.142,0.467-2.348,0.775-3.573,0.912c-0.312,0.035-0.69,0.03-0.862-0.233
					c-0.149-0.228-0.051-0.55,0.146-0.737c0.197-0.188,0.467-0.273,0.727-0.354c1.257-0.387,2.513-0.773,3.769-1.16"/>
				
					<path style="fill:#FFBF9D;stroke:#3D3F54;stroke-width:0.6835;stroke-linecap:round;stroke-linejoin:round;stroke-miterlimit:10;" d="
					M147.465,223.151l5.599-0.787c0.268,0.023,0.682,0.295,0.667,0.564c-0.015,0.269-0.197,0.506-0.42,0.655
					c-0.223,0.15-0.486,0.227-0.745,0.302c-1.005,0.292-2.009,0.584-3.014,0.876c-0.107,1.035-1.012,2.099-2.03,2.315"/>
			</g>
		</g>
		<g>
			<path style="fill:#FFBF9D;" d="M83.187,249.616l7.898,3.884l9.218-3.85c-0.344-0.883-1.858-4.528-3.231-7.829
				c-0.082-0.195-0.163-0.389-0.243-0.579c-1.172-2.808-2.181-5.219-2.181-5.219l-10.139-2.992l-3.78-1.116
				c0.023,0.06,1.008,3.169,1.15,3.624C84.411,243.604,83.187,249.616,83.187,249.616z"/>
			<path style="fill:#FF957D;" d="M90.177,238.257c2.274,1.757,4.7,3.13,7.196,4.292c-0.101-0.243-0.202-0.486-0.302-0.727
				c-0.082-0.195-0.163-0.389-0.243-0.579c-1.172-2.808-2.181-5.219-2.181-5.219l-9.932-2.931
				C86.462,234.922,88.217,236.742,90.177,238.257z"/>
		</g>
		<g>
			<path style="fill:#FFBF9D;" d="M104.777,234.315c-0.126-3.521-1.357-10.436-1.357-10.436s-2.012-3.091-3.317-6.13
				c-0.41-0.955,0.034-2.141-0.307-2.801c-2.559-4.965-6.864-10.126-12.354-11.472c-7.211-1.768-14.624,2.484-16.237,9.631
				c-1.438,6.372,2.487,14.351,7.4,18.674c3.832,3.372,8.737,3.873,13.483,4.131c3.373,0.184,6.77,0.141,10.07-0.492
				C103.097,235.241,104.107,234.947,104.777,234.315z"/>
			
				<path style="fill:#3D3F54;stroke:#3D3F54;stroke-width:0.6835;stroke-linecap:round;stroke-linejoin:round;stroke-miterlimit:10;" d="
				M65.755,211.731c0.845-0.891,1.976-1.46,3.126-1.891c-1.489-0.389-2.393-2.075-2.22-3.604c0.146-1.282,0.612-2.393,1.542-3.314
				c0.366-0.362,0.954-0.606,1.4-0.848c0.429-0.233,1.469-0.475,1.779-0.823c0.459-0.515,0.038-1.735,0.196-2.439
				c0.19-0.847,0.639-1.641,1.3-2.207c1.246-1.065,3.165-1.258,4.598-0.463c0.36-1.506,1.908-2.632,3.451-2.511
				c1.544,0.121,2.897,1.475,3.017,3.019c0.049-1.767,1.69-1.912,3.018-2.074c1.638-0.2,3.201,0.412,4.355,1.585
				c1.058,1.076,1.704,2.501,2.067,3.966c1.16-0.505,2.55-0.45,3.665,0.148c1.934,1.035,2.984,4.223,2.107,6.246
				c-0.478,1.102-1.724,1.882-2.899,1.633c0.79,0.162,1.31,1.03,1.231,1.833c-0.078,0.803-0.648,1.498-1.348,1.899
				c-1.613,0.924-3.933,0.248-4.797-1.398c0.057,0.737-0.348,1.489-0.995,1.847c-0.839,0.464-1.675,0.061-2.503-0.142
				c-0.949-0.233-1.792-0.59-2.356-1.44c1.334,2.564,3.459,5.43,3.917,8.297c0.101,0.632,0.465,2.108,0.577,2.936
				c-2.14,0.803-3.808,2.691-4.668,4.641c-0.955,2.165-1.293,4.451-1.262,6.753c-1.015,0.498-2,1.012-3.13,0.929
				c-1.21-0.089-2.298-0.549-3.334-1.14c-0.231-0.132-0.46-0.27-0.687-0.412c-0.782-0.49-1.563-0.979-2.345-1.469
				c-0.549-0.344-1.101-0.69-1.577-1.128c-1.538-1.412-2.112-3.782-1.389-5.741c-1.846,0.772-4.199,0.018-5.252-1.684
				c-1.052-1.701-0.677-4.144,0.838-5.451c-1.227,0.067-2.337-0.986-2.566-2.193C64.385,213.884,64.91,212.622,65.755,211.731z"/>
			<path style="fill:#FFBF9D;" d="M100.218,218.261c0,0,1.977,3.774,4.78,4.315c2.803,0.541-2.956,2.73-2.956,2.73L100.218,218.261z
				"/>
		</g>
		<g>
			<path style="fill:#FFBF9D;stroke:#3D3F54;stroke-width:0.6835;stroke-linecap:round;stroke-miterlimit:10;" d="M89.146,222.311
				c-0.79-0.828-2.579-1.84-3.741-1.856c-1.565-0.021-2.34,1.575-2.339,2.942c0.002,1.957,1.22,4.269,2.629,5.344
				c1.111,0.848,2.539,1.216,3.941,1.016"/>
			<path style="fill:none;stroke:#3D3F54;stroke-width:0.6835;stroke-linecap:round;stroke-miterlimit:10;" d="M85.785,223.975
				c0.941,0.097,1.81,0.717,2.209,1.574c-0.356,0.342-0.426,0.942-0.158,1.356c0.268,0.414,0.845,0.596,1.303,0.411"/>
		</g>
		<g>
			<path style="fill:none;stroke:#3D3F54;stroke-width:0.6835;stroke-linecap:round;stroke-miterlimit:10;" d="M96.06,214.645
				c-0.944,0.356-1.665,1.245-1.819,2.242"/>
			<path style="fill:#3D3F54;" d="M96.746,219.11c0.37,0.552,0.969,0.798,1.338,0.551c0.369-0.248,0.368-0.896-0.002-1.447
				c-0.37-0.552-0.969-0.798-1.338-0.551C96.375,217.91,96.376,218.558,96.746,219.11z"/>
		</g>
		<g>
			<path style="fill:#FB4B62;" d="M117.952,294.68c-1.704-11.623-3.796-22.596-8.75-33.419c-1.554-3.396-3.544-6.985-5.323-10.241
				c-1.558-2.852-4.086-3.561-7.006-4.315c-5.789-1.493-10.851-1.278-16.384,0.926c-0.052,0.021-0.095,0.045-0.126,0.079
				c-4.416,4.917-3.146,13.342-2.028,18.595c2.042,9.594,4.438,17.401,5.618,26.405c1.181,9.005,1.291,16.71,0.335,25.59
				c-0.131,1.215-0.375,2.416-0.154,3.665c6.376,2.708,12.688,3.746,19.609,3.911c3.405,0.081,6.255-0.442,9.981-0.69
				c1.01-0.067,9.208-1.223,8.975-2.672c-1.1-6.826-2.902-12.528-3.652-19.253C118.727,300.41,118.387,297.649,117.952,294.68z"/>
			<path style="fill:none;stroke:#3D3F54;stroke-width:0.6835;stroke-linecap:round;stroke-miterlimit:10;" d="M81.158,247.427
				c8.41-3.184,15.434-1.963,22.833,3.043"/>
		</g>
		<g>
			<g>
				<path style="fill:#FFBF9D;" d="M145.91,263.373c0,0,4.342-5.166,5.864-5.679c1.521-0.513,7.877-0.584,7.795,0.623
					c-0.082,1.207-4.8,2.567-6.416,4.012c-1.616,1.445-2.396,3.254-3.804,3.933c-1.409,0.678-3.088,1.083-3.088,1.083
					L145.91,263.373z"/>
				<path style="fill:#FFBF9D;" d="M145.91,263.373c0,0,1.713-3.135,1.939-4.41c0.029-0.161,0.202-0.249,0.352-0.184
					c0.415,0.18,1.017,0.663,0.506,1.896C147.972,262.448,145.91,263.373,145.91,263.373z"/>
			</g>
			<g>
				<path style="fill:#FFBF9D;" d="M146.263,263.484l-32.38,15.82l-19.412-25.939c-4.293-3.109-6.035-1.984-8.953,2.816
					c-1.633,2.687-2.254,3.239-2.228,6.413c6.022,11.051,16.175,25.887,28.139,32.096c6.772-0.204,38.019-28.969,38.019-28.969
					L146.263,263.484z"/>
				<path style="fill:#FF957D;" d="M103.256,287.221c-0.308,0.311-0.634,0.598-0.955,0.891c-7.947-7.281-14.593-17.412-19.01-25.518
					c-0.026-3.174,0.594-3.726,2.228-6.413c2.917-4.8,4.659-5.926,8.953-2.816l16.266,21.735
					C108.916,279.522,106.651,283.794,103.256,287.221z"/>
				<path style="fill:#FB4B62;" d="M93.761,283.899c-6.242-6.593-10.942-14.045-12.271-21.07c-0.026-3.174,0.511-6.414,2.144-9.101
					c2.917-4.8,9.083-6.195,13.377-3.086l12.703,17.849C106.527,274.875,100.271,280.284,93.761,283.899z"/>
				<path style="fill:none;stroke:#3D3F54;stroke-width:0.6835;stroke-linecap:round;stroke-miterlimit:10;" d="M81.95,265.034
					c0,0,4.674,9.987,11.595,18.846"/>
				<path style="fill:none;stroke:#3D3F54;stroke-width:0.6835;stroke-linecap:round;stroke-miterlimit:10;" d="M86.333,251.244
					c1.075-1.209,2.551-2.054,4.138-2.369c3.578-0.711,6.107,1.583,8.247,4.347c2.118,2.735,4.062,5.6,5.856,8.432"/>
				<path style="fill:none;stroke:#3D3F54;stroke-width:0.6835;stroke-linecap:round;stroke-miterlimit:10;" d="M80.579,266.429
					c1.125,0.917,2.25,1.835,3.375,2.752"/>
			</g>
		</g>
		<path style="fill:#3D3F54;" d="M102.919,225.779c0.149,0.501,0.209,1.029,0.303,1.537c0.125,0.675,0.207,1.324,0.161,1.981
			c-1.437,0.218-4.055,0.054-5.054-2.713C97.961,225.565,101.206,226.125,102.919,225.779z"/>
	</g>
	<path style="fill:#8FA0FF;" d="M302.661,428.418h144.123c7.819,0,14.157,6.338,14.157,14.157v13.633H288.504v-13.633
		C288.504,434.757,294.842,428.418,302.661,428.418z"/>
	<g>
		<path style="fill:#3D3F54;" d="M353.457,366.339h34.385l-2.077-55.612c-0.317-8.494-7.295-15.216-15.795-15.216l0,0
			c-8.65,0-15.694,6.954-15.805,15.603L353.457,366.339z"/>
		<g>
			<g>
				<path style="fill:#FFCEBD;" d="M359.407,345.186c5.222-5.499,5.533-13.947,4.29-21.758c4.828,0.061,9.656,0.122,14.484,0.182
					c-1.297,2.973-1.913,6.239-2.154,9.476c-0.188,2.522-0.3,5.079,0.1,7.578c0.306,1.91,1.23,3.665,1.362,5.613
					c0.145,2.149-0.955,4.058-2.18,5.695c-1.408,1.882-3.009,3.63-4.907,4.944c-1.897,1.314-4.109,2.179-6.364,2.201
					c-1.228,0.012-2.496-0.245-3.481-1.008c-1.093-0.847-1.715-2.221-2.074-3.607c-0.638-2.465-0.555-5.142,0.234-7.576
					C358.911,346.33,359.151,345.754,359.407,345.186z"/>
				<path style="fill:#FFA79C;" d="M376.942,325.822c-1.51,3.285-3.97,6.271-7.078,8.329c-1.495,0.99-3.145,1.663-4.875,2.128
					c-0.371,0.012-0.744,0.018-1.126,0c0.604-2.837,0.634-5.875,0.305-8.914l13.59-3.906L376.942,325.822z"/>
			</g>
		</g>
		<g>
			<path style="fill:#556EFA;" d="M357.918,342.586c0,0,8.159,5.001,5.441,12.07c-2.064,5.368-10.701,29.912-13.622,33.499
				c-8.218,10.09-22.03,15.286-32.61,17.207c0,0-1.402-0.815-2.198-1.523c-0.732-0.652-1.543-2.135-1.543-2.135
				s25.553-21.55,26.681-24.817C341.197,373.62,350.354,337.271,357.918,342.586z"/>
			
				<path style="fill:none;stroke:#3D3F54;stroke-width:0.6835;stroke-linecap:round;stroke-linejoin:round;stroke-miterlimit:10;" d="
				M339.868,376.939c2.527-8.249,3.121-12.198,6.192-20.15c1.359-3.52,6.219-13.931,9.811-14.498"/>
			
				<path style="fill:none;stroke:#3D3F54;stroke-width:0.6835;stroke-linecap:round;stroke-linejoin:round;stroke-miterlimit:10;" d="
				M343.284,379.495c-0.888-1.08-2.156-1.841-3.527-2.118"/>
			
				<path style="fill:none;stroke:#3D3F54;stroke-width:0.6835;stroke-linecap:round;stroke-linejoin:round;stroke-miterlimit:10;" d="
				M342.647,381.197c-0.427-1.247-1.125-2.4-2.032-3.356c-0.264-0.278-0.604-0.56-0.983-0.502"/>
			
				<path style="fill:none;stroke:#3D3F54;stroke-width:0.6835;stroke-linecap:round;stroke-linejoin:round;stroke-miterlimit:10;" d="
				M339.711,377.286c-3.379,3.831-12.263,11.784-15.358,14.61c-3.064,2.799-7.579,6.88-10.781,9.52"/>
			
				<path style="fill:none;stroke:#3D3F54;stroke-width:0.6835;stroke-linecap:round;stroke-linejoin:round;stroke-miterlimit:10;" d="
				M313.468,401.54c0.943,1.978,2.399,3.34,4.296,3.926"/>
			
				<path style="fill:none;stroke:#3D3F54;stroke-width:0.6835;stroke-linecap:round;stroke-linejoin:round;stroke-miterlimit:10;" d="
				M315.823,399.521c0.713,1.868,2.842,3.806,4.448,4.998"/>
			
				<path style="fill:none;stroke:#3D3F54;stroke-width:0.6835;stroke-linecap:round;stroke-linejoin:round;stroke-miterlimit:10;" d="
				M316.405,400.751c-0.785,0.582-1.571,1.165-2.356,1.748"/>
			
				<path style="fill:none;stroke:#3D3F54;stroke-width:0.6835;stroke-linecap:round;stroke-linejoin:round;stroke-miterlimit:10;" d="
				M317.714,402.357c-0.773,0.534-1.546,1.067-2.319,1.601"/>
			
				<path style="fill:none;stroke:#3D3F54;stroke-width:0.6835;stroke-linecap:round;stroke-linejoin:round;stroke-miterlimit:10;" d="
				M319.081,403.687c-0.648,0.466-1.295,0.933-1.943,1.399"/>
			
				<path style="fill:none;stroke:#3D3F54;stroke-width:0.6835;stroke-linecap:round;stroke-linejoin:round;stroke-miterlimit:10;" d="
				M317.816,405.499c1.013-0.327,1.59-0.453,2.603-0.78"/>
			<g>
				<path style="fill:#FFAE73;" d="M317.929,401.435c-1.714-0.933-4.029-0.556-5.384,0.849c-0.841,0.872-1.301,2.036-1.691,3.183
					c-0.114,0.334-0.224,0.693-0.134,1.034c0.109,0.413,0.5,0.703,0.912,0.816c0.412,0.112,0.848,0.078,1.274,0.044
					c1.533-0.125,6.136,0.292,7.102-1.006C321.132,404.845,319.22,402.138,317.929,401.435z"/>
				<path style="fill:#FFAE73;" d="M321.298,404.071c0.208,0.096,0.422,0.184,0.643,0.263c0.131,0.046,0.281,0.114,0.309,0.249
					c0.033,0.161-0.127,0.291-0.272,0.37c-0.683,0.375-1.462,0.569-2.241,0.567c-0.623-0.001-1.628,0.228-2.112-0.266
					c-0.484-0.494-0.187-1.376,0.181-1.84c0.53-0.67,1.069-0.758,1.799-0.299C320.168,403.468,320.711,403.8,321.298,404.071z"/>
			</g>
		</g>
		<path style="fill:#3D3F54;" d="M377.62,431.064h-26.345c-6.863-3.149-11.481-9.693-11.243-17.202l5.023-9.194l42.317,0.014
			c7.02,6.513,6.155,14.729,1.766,20.708c-0.018,0.024-0.035,0.048-0.053,0.072C386.415,429.06,382.101,431.064,377.62,431.064z"/>
		<g>
			<g>
				<path style="fill:#FFCEBD;" d="M355.965,433.603c0.859-1.695,1.954-3.25,2.837-4.913c4.54,1.865,12.961,5.472,17.689,6.329
					c0.704,0.128,1.406,0.217,2.105,0.253c1.257,0.064,2.763,0.543,3.073,1.742c0.277,1.075-0.589,2.031-1.373,2.759
					c-1.742,1.619-3.418,3.177-5.031,4.677c-1.011,0.94-2.214,1.922-3.693,1.692c-1.747-0.272-2.492-1.795-3.481-3.022
					c-1.246-1.546-3.083-2.962-4.815-4.028c-1.392-0.857-6.723-3.202-7.834-4.402C355.61,434.325,355.783,433.962,355.965,433.603z"
					/>
			</g>
			<g>
				
					<path style="fill:#4E506B;stroke:#4E506B;stroke-width:0.6835;stroke-linecap:round;stroke-linejoin:round;stroke-miterlimit:10;" d="
					M380.933,434.181c0,0-1.595,0.076-2.366-0.046c-3.213-0.509-5.636-0.761-8.698-1.829c-0.831,3.243-2.354,6.307-4.718,8.689
					c1.306,0.993,2.54,2.14,3.431,3.4c1.061,1.501,1.193,4.108,3.373,4.356c1.835,0.208,4.042-1.788,5.325-3.061
					C384.482,438.543,380.933,434.181,380.933,434.181z"/>
				
					<path style="fill:#4E506B;stroke:#4E506B;stroke-width:0.6835;stroke-linecap:round;stroke-linejoin:round;stroke-miterlimit:10;" d="
					M375.569,434.806l-3.353-1.094c-1.539-0.502-3.225,0.076-4.132,1.418l-1.402,2.076c-1.013,1.499-0.767,3.515,0.577,4.726
					l2.732,2.463L375.569,434.806z"/>
				<path style="fill:#FFFFFF;" d="M371.264,448.574l2.16,1.617c1.274,0.953,3.093,0.594,3.908-0.772l6.336-10.613
					c0.738-1.236,0.368-2.833-0.837-3.619l-1.9-1.006l0.065,3.027l-1.65,1.041c-1.315,0.83-2.442,1.925-3.309,3.216l0,0
					c-0.81,1.205-1.376,2.557-1.668,3.979l-0.482,2.348L371.264,448.574z"/>
				<path style="fill:none;stroke:#FFFFFF;stroke-width:1.4797;stroke-linecap:round;stroke-miterlimit:10;" d="M369.604,442.384
					c1.004-2.672,2.553-5.138,4.523-7.203"/>
				<path style="fill:none;stroke:#FFFFFF;stroke-width:1.4797;stroke-linecap:round;stroke-miterlimit:10;" d="M367.433,441.483
					c0.637-2.625,2.162-5.027,4.268-6.719"/>
			</g>
			<path style="fill:#3D3F54;" d="M294.683,398.811c2.609-3.75,12.167-3.625,16.116-1.327l54.226,30.905
				c-4.419,5.409-2.038,4.762-5.878,10.617l-58.207-22.562C292.508,411.93,291.65,403.171,294.683,398.811z"/>
		</g>
		<g>
			<path style="fill:#8FA0FF;" d="M350.897,375.957c0,0-3.398-18.371-3.428-17.555c1.954-5.976,7.451-15.584,7.451-15.584
				s5.301-3.573,7.878-4.38c0.3-1.938,0.066-4.074,0.561-4.915c4.599,0.923,9.036,0.932,13.558-0.643
				c0.706-0.459-0.716,4.016-0.358,4.979c0.266,0.717,1.83,1.523,2.508,2.12c2.312,2.038,4.578,4.139,6.866,6.207
				c1.095,0.99,2.237,2.051,2.709,3.498c0.676,2.074-5.597,34.661-5.597,34.661l0.322,31.705l-26.897,5.491l-15.108-10.379
				L350.897,375.957z"/>
			
				<path style="fill:none;stroke:#3D3F54;stroke-width:0.6835;stroke-linecap:round;stroke-linejoin:round;stroke-miterlimit:10;" d="
				M372.755,372.498c-6.281,9.908-12.67,16.305-23.377,19.836"/>
			
				<path style="fill:none;stroke:#3D3F54;stroke-width:0.6835;stroke-linecap:round;stroke-linejoin:round;stroke-miterlimit:10;" d="
				M375.805,338.909c-4.137,1.34-8.463,1.254-12.506-0.914"/>
			
				<path style="fill:none;stroke:#3D3F54;stroke-width:0.6835;stroke-linecap:round;stroke-linejoin:round;stroke-miterlimit:10;" d="
				M363.406,376.923c-3.099,2.862-6.974,4.755-11.028,5.389"/>
		</g>
		<g>
			<path style="fill:#808080;" d="M360.786,413.879L360.786,413.879h-43.87l-0.785-3.46h40.322
				C358.529,410.419,360.327,411.855,360.786,413.879z"/>
			<path style="fill:#B3B3B3;" d="M281.79,386.649h39.03c1.102,0,2.289,0.631,2.859,1.519l15.299,23.858
				c0.608,0.949,0.067,1.852-1.109,1.852h-39.145c-1.42,0-2.949-0.813-3.683-1.957l-14.678-22.89
				C279.58,387.811,280.276,386.649,281.79,386.649z"/>
			<path style="fill:#FFFFFF;" d="M303.228,398.297c0.553,1.509,2.481,2.732,4.306,2.732c1.825,0,2.856-1.223,2.302-2.732
				c-0.553-1.509-2.482-2.732-4.307-2.732C303.705,395.565,302.674,396.788,303.228,398.297z"/>
		</g>
		<g>
			<g>
				<path style="fill:#FFCEBD;" d="M308.439,434.26c-1.429,0.365-2.904,0.941-3.019,2.686c-0.064,0.958,0.368,1.874,0.836,2.712
					c1.052,1.881,2.35,3.624,3.849,5.172c1.268,1.31,3.063,2.864,5.022,2.642c2.18-0.247,2.908-2.176,3.97-3.677
					c1.312-1.856,3.353-3.497,5.303-4.704c2.036-1.261,4.355-2.02,5.196-4.45c0.461-1.333,0.265-2.782,0.063-4.173
					c-0.115-0.795-0.304-1.699-1.032-2.099c-0.716-0.393-1.614-0.111-2.382,0.178c-3.886,1.46-7.733,3.041-11.714,4.231
					c-1.94,0.58-3.914,0.952-5.875,1.43C308.584,434.223,308.511,434.241,308.439,434.26z"/>
			</g>
			<g>
				
					<path style="fill:#4E506B;stroke:#4E506B;stroke-width:0.6835;stroke-linecap:round;stroke-linejoin:round;stroke-miterlimit:10;" d="
					M306.746,433.581c0,0,1.595,0.076,2.366-0.046c3.213-0.509,5.636-0.761,8.698-1.829c0.831,3.243,2.354,6.307,4.718,8.689
					c-1.306,0.993-2.54,2.14-3.431,3.4c-1.061,1.501-1.193,4.108-3.373,4.356c-1.835,0.208-4.042-1.788-5.325-3.061
					C303.196,437.942,306.746,433.581,306.746,433.581z"/>
				
					<path style="fill:#4E506B;stroke:#4E506B;stroke-width:0.6835;stroke-linecap:round;stroke-linejoin:round;stroke-miterlimit:10;" d="
					M312.109,434.205l3.353-1.094c1.539-0.502,3.225,0.076,4.131,1.418l1.402,2.076c1.013,1.499,0.767,3.515-0.577,4.726
					l-2.732,2.463L312.109,434.205z"/>
				<path style="fill:#FFFFFF;" d="M316.414,447.974l-2.16,1.617c-1.274,0.953-3.093,0.594-3.908-0.772l-6.336-10.613
					c-0.738-1.236-0.368-2.833,0.837-3.619l1.9-1.006l-0.065,3.027l1.65,1.041c1.315,0.83,2.442,1.925,3.309,3.216l0,0
					c0.81,1.205,1.376,2.557,1.668,3.979l0.482,2.348L316.414,447.974z"/>
				<path style="fill:none;stroke:#FFFFFF;stroke-width:1.4797;stroke-linecap:round;stroke-miterlimit:10;" d="M318.074,441.784
					c-1.004-2.672-2.553-5.138-4.523-7.203"/>
				<path style="fill:none;stroke:#FFFFFF;stroke-width:1.4797;stroke-linecap:round;stroke-miterlimit:10;" d="M320.246,440.883
					c-0.637-2.625-2.162-5.027-4.268-6.72"/>
			</g>
			<g>
				
					<path style="fill:#4E506B;stroke:#4E506B;stroke-width:0.6835;stroke-linecap:round;stroke-linejoin:round;stroke-miterlimit:10;" d="
					M320.151,428.864l45.201-23.432c6.893-2.696,17.283-4.272,20.007,2.61c0,0,5.219,12.034-7.684,16.383l-52.954,15.648
					L320.151,428.864z"/>
			</g>
		</g>
		<g>
			<g>
				<path style="fill:#FFCEBD;" d="M353.934,408.79c0,0-6.849-1.713-8.453-1.215c-1.604,0.499-7.032,4.338-6.222,5.31
					c0.809,0.973,5.642-0.77,7.898-0.537c2.256,0.233,4.027,1.288,5.637,0.999c1.61-0.29,3.282-0.977,3.282-0.977L353.934,408.79z"
					/>
				<path style="fill:#DE7771;" d="M353.934,408.79c0,0-3.374-1.605-4.349-2.547c-0.123-0.119-0.324-0.087-0.411,0.06
					c-0.241,0.407-0.454,1.186,0.734,1.917C351.619,409.272,353.934,408.79,353.934,408.79z"/>
			</g>
			<g>
				<path style="fill:#8FA0FF;" d="M383.086,343.708c0,0,9.658,4.77,10.706,12.597c0.796,5.943,5.764,38.047,2.781,41.835
					c-8.396,10.658-29.921,15.319-41.094,14.383c0,0-1.191-1.201-1.8-2.13c-0.56-0.855-0.974-2.568-0.974-2.568
					s31.373-15.741,30.772-19.294C382.876,384.978,373.507,342.628,383.086,343.708z"/>
				
					<path style="fill:none;stroke:#3D3F54;stroke-width:0.6835;stroke-linecap:round;stroke-linejoin:round;stroke-miterlimit:10;" d="
					M378.556,361.923c1.548,9.129,2.905,17.721,4.764,26.755"/>
				
					<path style="fill:none;stroke:#3D3F54;stroke-width:0.6835;stroke-linecap:round;stroke-linejoin:round;stroke-miterlimit:10;" d="
					M387.724,389.309c-1.352-0.544-2.893-0.607-4.285-0.174"/>
				
					<path style="fill:none;stroke:#3D3F54;stroke-width:0.6835;stroke-linecap:round;stroke-linejoin:round;stroke-miterlimit:10;" d="
					M387.992,391.184c-1.014-0.927-2.229-1.633-3.537-2.054c-0.38-0.122-0.833-0.21-1.15,0.033"/>
				
					<path style="fill:none;stroke:#3D3F54;stroke-width:0.6835;stroke-linecap:round;stroke-linejoin:round;stroke-miterlimit:10;" d="
					M383.35,389.075c-2.437,3.861-26.441,16.723-30.381,18.512"/>
				
					<path style="fill:none;stroke:#3D3F54;stroke-width:0.6835;stroke-linecap:round;stroke-linejoin:round;stroke-miterlimit:10;" d="
					M352.832,407.683c0.413,2.247,1.509,4.013,3.26,5.118"/>
				
					<path style="fill:none;stroke:#3D3F54;stroke-width:0.6835;stroke-linecap:round;stroke-linejoin:round;stroke-miterlimit:10;" d="
					M355.75,406.289c0.211,2.074,1.828,4.603,3.122,6.238"/>
				
					<path style="fill:none;stroke:#3D3F54;stroke-width:0.6835;stroke-linecap:round;stroke-linejoin:round;stroke-miterlimit:10;" d="
					M356.002,407.685c-0.949,0.373-1.897,0.747-2.846,1.12"/>
				
					<path style="fill:none;stroke:#3D3F54;stroke-width:0.6835;stroke-linecap:round;stroke-linejoin:round;stroke-miterlimit:10;" d="
					M356.885,409.657c-0.923,0.327-1.846,0.655-2.769,0.982"/>
				
					<path style="fill:none;stroke:#3D3F54;stroke-width:0.6835;stroke-linecap:round;stroke-linejoin:round;stroke-miterlimit:10;" d="
					M357.901,411.367c-0.779,0.294-1.557,0.587-2.336,0.881"/>
				
					<path style="fill:none;stroke:#3D3F54;stroke-width:0.6835;stroke-linecap:round;stroke-linejoin:round;stroke-miterlimit:10;" d="
					M356.135,412.847c1.108-0.054,2.217-0.108,3.325-0.161c0,0,24.101,0.436,37.408-15.142"/>
			</g>
		</g>
		<g>
			<g>
				<path style="fill:#FFCEBD;" d="M372.728,329.935c-2.234,0.914-4.467,1.831-6.83,2.325c-1.373,0.287-2.761,0.446-4.155,0.529
					c-0.321-0.015-0.645-0.029-0.961-0.048c-0.362-0.022-0.724-0.053-1.087-0.083c-2.661-2.031-4.355-4.85-4.662-9.85
					c0.091-6.239,1.422-13.548,2.495-15.609c1.897-3.641,8.718-12.557,19.708-7.104c3.312,1.644,6.011,4.28,6.792,7.992
					c0.736,3.493-0.101,6.982-1.207,10.277c-0.194,0.066-0.368,0.203-0.44,0.444C380.927,323.661,377.038,327.325,372.728,329.935z"
					/>
				<g>
					<path style="fill:none;stroke:#3D3F54;stroke-width:0.6835;stroke-linecap:round;stroke-miterlimit:10;" d="M360.411,311.123
						c-0.922-0.63-2.098-0.875-3.194-0.665"/>
					<path style="fill:none;stroke:#3D3F54;stroke-width:0.6835;stroke-linecap:round;stroke-miterlimit:10;" d="M370.31,313.645
						c-0.979-0.822-2.292-1.233-3.565-1.114"/>
					
						<polyline style="fill:none;stroke:#3D3F54;stroke-width:0.6835;stroke-linecap:round;stroke-linejoin:round;stroke-miterlimit:10;" points="
						362.013,314.85 360.483,319.927 358.507,320.499 360.659,322.309 					"/>
					<path style="fill:#3D3F54;" d="M359.064,324.446c1.378,0.243,2.793,0.032,4.044-0.591c0,0,0.86,2.411-1.535,2.736
						C358.91,326.951,359.064,324.446,359.064,324.446z"/>
					<path style="fill:#3D3F54;" d="M365.56,316.408c-0.116,0.576,0.257,1.137,0.833,1.253c0.576,0.116,1.137-0.257,1.253-0.833
						c0.116-0.576-0.257-1.137-0.832-1.253C366.237,315.459,365.676,315.832,365.56,316.408z"/>
					<path style="fill:#3D3F54;" d="M356.885,314.36c-0.116,0.576,0.257,1.137,0.832,1.253c0.576,0.116,1.137-0.257,1.253-0.833
						c0.116-0.576-0.257-1.137-0.833-1.253C357.562,313.411,357.001,313.784,356.885,314.36z"/>
				</g>
				<g>
					<path style="fill:#3D3F54;stroke:#3D3F54;stroke-width:0.6835;stroke-linecap:round;stroke-miterlimit:10;" d="
						M378.465,319.317c-0.129-0.139-0.25-0.284-0.363-0.431c-1.579-2.046-2.125-4.741-2.021-7.323
						c0.105-2.583,0.806-5.099,1.504-7.588c-5.232,6.424-14.264,7.045-22.472,5.917c-0.335-0.046,2.897-6.448,3.427-7.24
						c1.614-2.411,4.557-4.32,7.069-5.666c0,0,12.206-3.988,17.708,6.209c3.058,5.666,3.016,12.693-0.86,17.95
						c-0.5-0.565-1.483-0.293-2.159-0.543C379.598,320.343,378.975,319.869,378.465,319.317z"/>
				</g>
				<g>
					<path style="fill:#FFCEBD;" d="M378.552,317.892c1.197-0.673,3.043-0.614,3.894,0.479c0.48,0.616,0.546,1.41,0.475,2.141
						c-0.223,2.292-1.682,4.403-3.83,5.543c-0.557,0.295-1.169,0.531-1.824,0.571c-0.655,0.04-1.359-0.137-1.84-0.568
						c-0.803-0.72-0.77-1.895-0.429-2.831C375.678,321.357,376.643,318.967,378.552,317.892z"/>
					<path style="fill:none;stroke:#3D3F54;stroke-width:0.6835;stroke-linecap:round;stroke-miterlimit:10;" d="M380.539,321.351
						c0.183-0.477-0.208-1.039-0.705-1.155c-0.498-0.115-1.024,0.127-1.382,0.492c-0.357,0.366-0.578,0.839-0.792,1.304
						c0.523-0.009,0.972,0.555,0.845,1.063c-0.127,0.507-0.789,0.794-1.246,0.539"/>
					<path style="fill:none;stroke:#3D3F54;stroke-width:0.6835;stroke-linecap:round;stroke-miterlimit:10;" d="M376.95,319.624
						c0.181-1.116,1.147-2.037,2.258-2.244c1.102-0.206,2.784,0.192,3.292,1.291c0.831,1.798-0.178,3.969-1.364,5.351
						c-1.382,1.61-3.487,2.534-5.615,2.347"/>
				</g>
			</g>
		</g>
	</g>
	<g>
		<path style="fill:#543234;" d="M448.543,212.233c-0.391,4.272-2.163,8.283-3.508,12.365c-1.345,4.081-2.268,8.535-0.943,12.622
			c1.327,4.093,4.983,7.375,9.256,8.306c0.837,0.182,1.722,0.292,2.433,0.762c0.711,0.469,1.168,1.454,0.72,2.171
			c-11.955,2.301-24.213,4.61-36.24,2.707c-2.941-0.465-5.905-1.208-8.389-2.821c-2.484-1.613-4.439-4.226-4.61-7.145
			c1.765,1.293,4.4,0.972,6.137-0.356c1.738-1.328,2.68-3.452,3.062-5.58c0.382-2.129,0.27-4.308,0.287-6.469
			c0.074-9.899,2.916-19.764,8.134-28.236c1.097-1.781,2.359-3.561,4.194-4.605c2.5-1.423,5.691-1.222,8.37-0.158
			C444.163,198.465,449.209,204.964,448.543,212.233z"/>
		<g>
			<g>
				<path style="fill:#B87E61;" d="M416.817,456.216c0.939-1.11,0.088-2.473-0.368-3.831c-0.854-0.871-1.016-3.231-1.229-4.368
					c-0.607-3.247-1.374-15.432-1.374-15.432l-7.314-1.902c0,0,0.961,12.82,0.831,13.712c-1.061,3.142-2.903,5.364-5.026,6.917
					c-0.531,0.389-0.847,1.006-0.888,1.663l0,0c-0.078,1.256,0.877,2.338,2.133,2.416L416.817,456.216z"/>
			</g>
			<path style="fill:#3D3F54;" d="M402.091,389.187l0.507-47.4l2.146-21.338c0.917-15.451,24.305-14.744,23.875,0.728
				c-0.031,1.095-0.147,2.232-0.357,3.41l-4.219,23.709l-4.194,36.013l1.165,15.02l-5.746,43.449
				c-2.601,0.479-5.075,1.13-8.001-0.31L402.091,389.187z"/>
			<g>
				
					<path style="fill:#4E506B;stroke:#4E506B;stroke-width:0.6835;stroke-linecap:round;stroke-linejoin:round;stroke-miterlimit:10;" d="
					M416.881,462.963h-30.247c-0.744,0-1.347-0.603-1.347-1.347l0,0c0-0.744,0.603-1.347,1.347-1.347h30.247
					c0.744,0,1.347,0.603,1.347,1.347l0,0C418.228,462.36,417.625,462.963,416.881,462.963z"/>
				<path style="fill:#E2C479;" d="M403.22,449.476l-7.129,5.543c0,0-8.33,0.845-10.865,3.863c0,0-0.604,2.052,0.604,2.052h30.941
					c0.788,0,1.412-0.668,1.358-1.454l-0.791-11.584c0,0-2.535-0.845-3.622,2.777C412.629,454.294,403.22,449.476,403.22,449.476z"
					/>
				
					<path style="fill:#4E506B;stroke:#4E506B;stroke-width:0.6835;stroke-linecap:round;stroke-linejoin:round;stroke-miterlimit:10;" d="
					M407.457,452.414c1.896,0.546,4.04,1.18,5.985,0.527c1.839-0.618,0.781-3.014,2.61-3.849c0.448-0.204,0.88-0.421,1.328-0.579
					l-0.042-0.617c0,0-2.535-0.845-3.622,2.777c-1.086,3.622-10.495-1.197-10.495-1.197l-0.69,0.536
					C402.531,450.012,405.591,451.876,407.457,452.414z"/>
				<path style="fill:none;stroke:#4E506B;stroke-width:0.9114;stroke-linecap:round;stroke-miterlimit:10;" d="M400.471,451.407
					c0.611,0.02,1.208,0.323,1.585,0.804"/>
				<path style="fill:none;stroke:#4E506B;stroke-width:0.9114;stroke-linecap:round;stroke-miterlimit:10;" d="M398.56,452.821
					c0.566-0.047,1.146,0.259,1.427,0.752"/>
				<path style="fill:none;stroke:#4E506B;stroke-width:0.9114;stroke-linecap:round;stroke-miterlimit:10;" d="M396.594,454.293
					c0.597,0.005,1.176,0.377,1.428,0.919"/>
				<path style="fill:none;stroke:#4E506B;stroke-width:0.4557;stroke-linecap:round;stroke-miterlimit:10;" d="M407.446,451.929
					c-1.888-1.981-4.36,0.19-5.612,1.706c-0.774,0.937-1.582,1.924-2.709,2.378c-0.594,0.24-1.24,0.314-1.857,0.486
					c-0.617,0.171-1.241,0.47-1.579,1.015"/>
				<path style="fill:none;stroke:#4E506B;stroke-width:0.4557;stroke-linecap:round;stroke-miterlimit:10;" d="M411.537,461.172
					c0.902-2.932,3.277-5.369,6.184-6.348"/>
				<path style="fill:none;stroke:#4E506B;stroke-width:0.4557;stroke-linecap:round;stroke-miterlimit:10;" d="M395.453,455.256
					c0.532,0.429,1.064,0.857,1.597,1.286"/>
				
					<line style="fill:none;stroke:#4E506B;stroke-width:0.4557;stroke-linecap:round;stroke-miterlimit:10;" x1="385.176" y1="460.143" x2="411.706" y2="460.143"/>
				<path style="fill:none;stroke:#4E506B;stroke-width:0.4557;stroke-linecap:round;stroke-miterlimit:10;" d="M414.976,455.983
					c-0.617-1.702-0.716-3.589-0.28-5.346"/>
			</g>
		</g>
		<g>
			<g>
				<path style="fill:#B87E61;" d="M448.282,455.337c0.789-1.221-0.229-2.464-0.855-3.753c-0.958-0.755-1.421-3.074-1.777-4.175
					c-1.017-3.143-3.337-15.129-3.337-15.129l-7.497-0.951c0,0,2.593,12.591,2.578,13.493c-0.651,3.252-2.193,5.691-4.1,7.503
					c-0.478,0.454-0.711,1.106-0.668,1.763l0,0c0.083,1.256,1.169,2.207,2.424,2.124L448.282,455.337z"/>
			</g>
			
				<path style="fill:#4E506B;stroke:#4E506B;stroke-width:0.6835;stroke-linecap:round;stroke-linejoin:round;stroke-miterlimit:10;" d="
				M425.104,390.742l-5.56-47.075l-0.601-21.438c-1.066-15.441,22.219-17.731,23.772-2.332c0.11,1.09,0.139,2.232,0.083,3.427
				l-1.152,24.054l0.447,36.254l3.077,14.747l-0.141,43.827c-2.518,0.808-4.889,1.77-7.975,0.716L425.104,390.742z"/>
			<g>
				
					<path style="fill:#4E506B;stroke:#4E506B;stroke-width:0.6835;stroke-linecap:round;stroke-linejoin:round;stroke-miterlimit:10;" d="
					M448.195,462.963h-30.247c-0.744,0-1.347-0.603-1.347-1.347l0,0c0-0.744,0.603-1.347,1.347-1.347h30.247
					c0.744,0,1.347,0.603,1.347,1.347l0,0C449.542,462.36,448.939,462.963,448.195,462.963z"/>
				<path style="fill:#FFE7A0;" d="M434.534,449.476l-7.129,5.543c0,0-8.329,0.845-10.865,3.863c0,0-0.603,2.052,0.604,2.052h30.941
					c0.788,0,1.412-0.668,1.358-1.454l-0.791-11.584c0,0-2.535-0.845-3.622,2.777C443.943,454.294,434.534,449.476,434.534,449.476z
					"/>
				
					<path style="fill:#4E506B;stroke:#4E506B;stroke-width:0.6835;stroke-linecap:round;stroke-linejoin:round;stroke-miterlimit:10;" d="
					M438.771,452.414c1.895,0.546,4.04,1.18,5.985,0.527c1.839-0.618,0.781-3.014,2.61-3.849c0.448-0.204,0.879-0.421,1.328-0.579
					l-0.042-0.617c0,0-2.535-0.845-3.622,2.777c-1.086,3.622-10.495-1.197-10.495-1.197l-0.69,0.536
					C433.845,450.012,436.905,451.876,438.771,452.414z"/>
				<path style="fill:none;stroke:#4E506B;stroke-width:0.9114;stroke-linecap:round;stroke-miterlimit:10;" d="M431.785,451.407
					c0.611,0.02,1.207,0.323,1.585,0.804"/>
				<path style="fill:none;stroke:#4E506B;stroke-width:0.9114;stroke-linecap:round;stroke-miterlimit:10;" d="M429.874,452.821
					c0.566-0.047,1.146,0.259,1.427,0.752"/>
				<path style="fill:none;stroke:#4E506B;stroke-width:0.9114;stroke-linecap:round;stroke-miterlimit:10;" d="M427.908,454.293
					c0.597,0.005,1.176,0.377,1.428,0.919"/>
				<path style="fill:none;stroke:#4E506B;stroke-width:0.4557;stroke-linecap:round;stroke-miterlimit:10;" d="M438.76,451.929
					c-1.888-1.981-4.36,0.19-5.612,1.706c-0.774,0.937-1.582,1.924-2.709,2.378c-0.594,0.24-1.24,0.314-1.857,0.486
					c-0.617,0.171-1.241,0.47-1.579,1.015"/>
				<path style="fill:none;stroke:#4E506B;stroke-width:0.4557;stroke-linecap:round;stroke-miterlimit:10;" d="M442.851,461.172
					c0.902-2.932,3.277-5.369,6.184-6.348"/>
				<path style="fill:none;stroke:#4E506B;stroke-width:0.4557;stroke-linecap:round;stroke-miterlimit:10;" d="M426.767,455.256
					c0.532,0.429,1.064,0.857,1.597,1.286"/>
				
					<line style="fill:none;stroke:#4E506B;stroke-width:0.4557;stroke-linecap:round;stroke-miterlimit:10;" x1="416.49" y1="460.143" x2="443.02" y2="460.143"/>
				<path style="fill:none;stroke:#4E506B;stroke-width:0.4557;stroke-linecap:round;stroke-miterlimit:10;" d="M446.289,455.983
					c-0.617-1.702-0.716-3.589-0.279-5.346"/>
			</g>
		</g>
		<g>
			<g>
				<path style="fill:#B87E61;" d="M411.614,254.771l-10.047,15.211l-13.861-21.509l-5.856,1.426l17.388,34.455
					c1.038,1.981,3.808,2.155,5.086,0.318l17.982-25.848L411.614,254.771z"/>
				<path style="fill:#994E3D;" d="M416.01,267.874l6.296-9.05l-10.691-4.053l-3.935,5.957
					C410.498,263.063,413.274,265.445,416.01,267.874z"/>
				<path style="fill:#FFE7A0;" d="M420.541,263.037l-12.558-3.99l6.066-11.191c2.481-3.536,7.171-4.523,10.475-2.204v0
					c3.304,2.319,3.972,7.065,1.491,10.6L420.541,263.037z"/>
				
					<path style="fill:none;stroke:#3D3F54;stroke-width:0.6835;stroke-linecap:round;stroke-linejoin:round;stroke-miterlimit:10;" d="
					M400.074,272.816c0.646-1.104,0.847-1.73,1.493-2.834"/>
			</g>
			<g>
				<polygon style="fill:#B87E61;" points="387.706,248.474 382.163,241.774 375.659,242.427 373.035,244.948 374.542,250.382 
					381.85,249.9 				"/>
				
					<path style="fill:#B87E61;stroke:#3D3F54;stroke-width:0.6835;stroke-linecap:round;stroke-linejoin:round;stroke-miterlimit:10;" d="
					M377,242.298c-2.426,0.458-4.743,1.481-6.716,2.964c-0.227,0.17-0.475,0.433-0.369,0.696c0.124,0.307,0.569,0.26,0.885,0.158
					c1.095-0.355,2.191-0.709,3.286-1.064"/>
				
					<path style="fill:#B87E61;stroke:#3D3F54;stroke-width:0.6835;stroke-linecap:round;stroke-linejoin:round;stroke-miterlimit:10;" d="
					M375.034,250.374c1.635-0.092,3.271-0.185,4.906-0.277c0.15-0.008,0.307-0.019,0.438-0.092c0.132-0.074,0.229-0.23,0.186-0.374
					c-0.041-0.135-0.182-0.208-0.311-0.266c-1.278-0.583-2.831-0.785-4.232-0.796"/>
				
					<path style="fill:#B87E61;stroke:#3D3F54;stroke-width:0.6835;stroke-linecap:round;stroke-linejoin:round;stroke-miterlimit:10;" d="
					M374.677,249.037c1.914-0.026,3.825-0.324,5.657-0.881c-0.144-0.556-0.77-0.821-1.328-0.957
					c-1.425-0.348-2.927-0.376-4.364-0.081"/>
				
					<path style="fill:#B87E61;stroke:#3D3F54;stroke-width:0.6835;stroke-linecap:round;stroke-linejoin:round;stroke-miterlimit:10;" d="
					M374.637,247.083c1.36,0.098,2.734,0.008,4.069-0.268c0.34-0.07,0.736-0.206,0.826-0.541c0.078-0.29-0.135-0.596-0.407-0.725
					c-0.271-0.13-0.585-0.127-0.886-0.122c-1.453,0.025-2.907,0.05-4.36,0.075"/>
				<g>
					
						<rect x="349.66" y="224.277" transform="matrix(0.9825 -0.186 0.186 0.9825 -39.2725 72.0768)" style="fill:#FFE7A0;stroke:#4E506B;stroke-width:0.6835;stroke-miterlimit:10;" width="29.628" height="42.103"/>
					
						<rect x="353.258" y="227.605" transform="matrix(0.9825 -0.186 0.186 0.9825 -39.2726 72.0771)" style="fill:#FFFFFF;" width="22.431" height="35.447"/>
					
						<rect x="355.256" y="235.292" transform="matrix(0.9825 -0.186 0.186 0.9825 -37.6492 71.6279)" style="fill:#4E506B;" width="15.255" height="2.312"/>
					<g>
						
							<line style="fill:none;stroke:#4E506B;stroke-width:0.6835;stroke-miterlimit:10;" x1="356.293" y1="241.215" x2="370.933" y2="238.444"/>
						
							<line style="fill:none;stroke:#4E506B;stroke-width:0.6835;stroke-miterlimit:10;" x1="356.934" y1="244.597" x2="371.574" y2="241.826"/>
						
							<line style="fill:none;stroke:#4E506B;stroke-width:0.6835;stroke-miterlimit:10;" x1="357.574" y1="247.979" x2="372.214" y2="245.208"/>
						
							<line style="fill:none;stroke:#4E506B;stroke-width:0.6835;stroke-miterlimit:10;" x1="358.214" y1="251.361" x2="372.854" y2="248.59"/>
						
							<line style="fill:none;stroke:#4E506B;stroke-width:0.6835;stroke-miterlimit:10;" x1="358.854" y1="254.743" x2="373.494" y2="251.972"/>
						
							<line style="fill:none;stroke:#4E506B;stroke-width:0.6835;stroke-miterlimit:10;" x1="359.495" y1="258.125" x2="374.135" y2="255.354"/>
					</g>
				</g>
				
					<path style="fill:#B87E61;stroke:#4E506B;stroke-width:0.6835;stroke-linecap:round;stroke-linejoin:round;stroke-miterlimit:10;" d="
					M380.305,242.844l-6.155,1.096c-0.274,0.116-0.616,0.544-0.508,0.821s0.38,0.464,0.667,0.545
					c0.286,0.081,0.589,0.072,0.887,0.062c1.156-0.038,2.312-0.076,3.469-0.114c0.468,1.051,1.784,1.858,2.929,1.737"/>
			</g>
		</g>
		<g>
			<g>
				<path style="fill:#B87E61;" d="M436.016,242.089c-0.033-0.14-1.832-7.352,0.877-20.085c-3.762,0.074-9.266,0.319-13.1,0.201
					c1.029,7.053,1.737,16.721-2.041,21.066l-4.893,3.376l-4.375,15.152l28.761,1.429l1.494-17.677L436.016,242.089z"/>
				<path style="fill:#994E3D;" d="M424.352,236.374c4.9-1.697,9.736-8.654,10.074-14.485c-3.547,0.099-7.008,0.427-10.633,0.315
					C424.427,226.553,424.934,231.893,424.352,236.374z"/>
			</g>
		</g>
		<g>
			<g>
				<path style="fill:#FFE7A0;" d="M446.092,259.718c0,0,1.615-11.103,0.513-12.195c-1.176-1.166-7.428-4.377-9.303-5.355
					c-0.315-0.164-0.697,0.011-0.784,0.356l-3.568,14.236l-8.769,2.856l-6.668-2.834l3.129-12.551
					c0.117-0.47-0.386-0.851-0.806-0.61l-3.899,2.23l-5.946,21.189l0.617,15.313l-6.425,34.465c0,0,11.005,4.354,15.732,4.959
					c7.059,0.903,25.962-2.905,25.962-2.905l-4.905-34.303L446.092,259.718z"/>
			</g>
			
				<path style="fill:none;stroke:#3D3F54;stroke-width:0.6835;stroke-linecap:round;stroke-linejoin:round;stroke-miterlimit:10;" d="
				M412.299,270.536c2.774,8.735,7.955,16.477,14.564,21.909"/>
			
				<path style="fill:none;stroke:#3D3F54;stroke-width:0.6835;stroke-linecap:round;stroke-linejoin:round;stroke-miterlimit:10;" d="
				M412.1,285.637c3.458,8.97,7.934,17.309,13.233,24.727"/>
		</g>
		<g>
			<path style="fill:#B87E61;" d="M432.921,228.821c-2.611,0.866-5.222,1.736-7.946,2.114c-1.583,0.219-3.173,0.293-4.765,0.279
				c-0.364-0.042-0.731-0.083-1.089-0.129c-0.409-0.053-0.819-0.117-1.229-0.179c-2.868-2.516-4.575-5.852-4.536-11.561
				c0.587-7.087,2.667-15.294,4.048-17.555c2.439-3.993,10.886-13.601,22.959-6.548c3.639,2.126,6.502,5.333,7.103,9.614
				c0.565,4.029-0.656,7.931-2.169,11.592c-0.226,0.06-0.434,0.203-0.535,0.471C442.731,222.324,438.026,226.187,432.921,228.821z"
				/>
			<path style="fill:#543234;" d="M420.094,201.584c0.686-0.551,1.442-1.065,1.877-1.83c0.435-0.765,0.417-1.881-0.305-2.383
				c-0.457-0.318-1.083-0.307-1.598-0.098c-0.515,0.21-0.94,0.593-1.328,0.991c-2.872,2.944-4.399,7.317-3.866,11.411
				C416.084,206.542,417.373,203.769,420.094,201.584z"/>
			<g>
				<g>
					<path style="fill:none;stroke:#543234;stroke-width:0.6835;stroke-linecap:round;stroke-miterlimit:10;" d="M420.547,207.468
						c-0.999-0.788-2.318-1.157-3.581-1.004"/>
					<path style="fill:none;stroke:#543234;stroke-width:0.6835;stroke-linecap:round;stroke-miterlimit:10;" d="M431.607,211.104
						c-1.049-1.011-2.511-1.58-3.967-1.544"/>
					
						<polyline style="fill:none;stroke:#543234;stroke-width:0.6835;stroke-linecap:round;stroke-linejoin:round;stroke-miterlimit:10;" points="
						421.643,210.635 419.509,216.289 417.218,216.786 419.525,219.011 					"/>
					<path style="fill:#543234;" d="M418.266,212.124c0,0.654-0.53,1.185-1.185,1.185c-0.654,0-1.185-0.531-1.185-1.185
						c0-0.654,0.531-1.185,1.185-1.185C417.736,210.939,418.266,211.469,418.266,212.124z"/>
					<path style="fill:#543234;" d="M427.227,214.123c0,0.654-0.53,1.185-1.185,1.185c-0.654,0-1.185-0.531-1.185-1.185
						c0-0.654,0.53-1.185,1.185-1.185C426.696,212.938,427.227,213.469,427.227,214.123z"/>
					<path style="fill:#543234;" d="M418.407,222.946c1.573,0.258,3.183-0.002,4.6-0.729c0,0,1.013,2.736-1.712,3.139
						C418.266,225.803,418.407,222.946,418.407,222.946z"/>
				</g>
			</g>
			<g>
				<path style="fill:#543234;" d="M444.807,219.745c-1.829,2.377-3.653,4.723-4.018,7.638c-4.478-0.868-8.301-4.488-9.413-8.912
					c-0.795-3.164-0.331-6.695-1.947-9.529c-1.058-1.856-2.869-3.141-4.637-4.341c-1.768-1.2-3.603-2.43-4.755-4.23
					c-1.163-1.818-1.499-4.926,0.191-6.572c1.886-1.836,5.76-2.924,8.279-3.445c2.798-0.578,5.783-0.503,8.424,0.587
					c3.224,1.33,5.679,4.037,7.675,6.898c1.679,2.406,3.129,5.012,3.892,7.846c0.763,2.833,0.801,5.919-0.276,8.649
					C447.445,216.303,446.125,218.032,444.807,219.745z"/>
			</g>
		</g>
		<g>
			<g>
				<polygon style="fill:#B87E61;" points="439.133,258.724 444.433,285.993 416.127,308.579 422.509,310.617 455.779,290.506 
					449.255,254.695 				"/>
				<polygon style="fill:#994E3D;" points="451.395,266.441 449.255,254.695 439.133,258.724 440.993,268.292 				"/>
				<path style="fill:#FFE7A0;" d="M451.544,261.712l-11.686,6.089l-3.655-12.193c-0.757-4.253,1.851-8.273,5.825-8.981l0,0
					c3.974-0.707,7.81,2.166,8.567,6.419L451.544,261.712z"/>
				
					<line style="fill:none;stroke:#3D3F54;stroke-width:0.6835;stroke-linecap:round;stroke-linejoin:round;stroke-miterlimit:10;" x1="436.997" y1="257.475" x2="439.805" y2="267.537"/>
				
					<path style="fill:none;stroke:#3D3F54;stroke-width:0.6835;stroke-linecap:round;stroke-linejoin:round;stroke-miterlimit:10;" d="
					M435.58,259.606c0.751,0.456,1.502,0.912,2.253,1.368"/>
			</g>
			<g>
				<polygon style="fill:#B87E61;" points="416.127,308.579 409.072,311.562 406.69,315.957 406.406,319.708 411.785,315.825 
					416.267,315.447 419.699,313.181 422.509,310.617 				"/>
				
					<path style="fill:#B87E61;stroke:#3D3F54;stroke-width:0.6835;stroke-linecap:round;stroke-linejoin:round;stroke-miterlimit:10;" d="
					M408.889,311.642c-1.879,1.169-3.227,3.19-4.003,5.23c-0.232,0.609-0.219,1.463,0.656,1.392c0.282-0.023,0.544-0.165,0.758-0.35
					c0.249-0.216,0.449-0.49,0.647-0.753c0.584-0.777,1.233-1.507,1.936-2.179"/>
				
					<path style="fill:#B87E61;stroke:#3D3F54;stroke-width:0.6835;stroke-linecap:round;stroke-linejoin:round;stroke-miterlimit:10;" d="
					M409.401,312.992c-1.879,1.169-3.227,3.19-4.003,5.23c-0.232,0.609-0.219,1.463,0.656,1.392c0.282-0.023,0.544-0.165,0.758-0.35
					c0.249-0.216,0.45-0.49,0.647-0.753c1.026-1.365,2.249-2.581,3.619-3.599"/>
				
					<path style="fill:#B87E61;stroke:#3D3F54;stroke-width:0.6835;stroke-linecap:round;stroke-linejoin:round;stroke-miterlimit:10;" d="
					M411.114,314.037c-1.582,1.364-3,2.726-3.586,4.814c-0.113,0.401-0.162,0.906,0.164,1.165c0.218,0.174,0.54,0.163,0.794,0.047
					c0.254-0.116,0.456-0.319,0.651-0.518c0.604-0.614,1.123-1.318,1.773-1.886c0.665-0.58,1.584-0.978,2.351-1.424"/>
				
					<path style="fill:#B87E61;stroke:#3D3F54;stroke-width:0.6835;stroke-linecap:round;stroke-linejoin:round;stroke-miterlimit:10;" d="
					M413.028,315.121c-0.783,0.529-1.427,1.252-1.884,2.076c-0.429,0.774-0.952,1.571-1.032,2.475
					c-0.014,0.16-0.01,0.34,0.103,0.454c0.115,0.117,0.309,0.12,0.458,0.052c0.149-0.068,0.263-0.192,0.373-0.313
					c0.879-0.967,1.726-2.165,2.865-2.846c0.926-0.553,2.161-1.184,3.2-1.414"/>
			</g>
		</g>
	</g>
</g>
</svg>
