<?xml version="1.0" encoding="utf-8"?>
<!-- Generator: Adobe Illustrator 27.5.0, SVG Export Plug-In . SVG Version: 6.00 Build 0)  -->
<svg version="1.1" xmlns="http://www.w3.org/2000/svg" xmlns:xlink="http://www.w3.org/1999/xlink" x="0px" y="0px"
	 viewBox="-60 0 600 500" style="enable-background:new 0 0 500 500;" xml:space="preserve">
<g id="BACKGROUND">
	<g>
		
			
		<polygon style="fill:#0be88f;" points="177.866,412.51 211.369,388.461 173.791,371.471 		"/>
		
			<ellipse transform="matrix(0.7071 -0.7071 0.7071 0.7071 -98.3899 248.1617)" style="fill:#0be88f;" cx="250.363" cy="242.848" rx="164.42" ry="164.42"/>
	</g>
</g>
<g id="OBJECTS">
	<g>
		<ellipse style="fill:#0be88f;" cx="262.088" cy="435.681" rx="43.994" ry="2.954"/>
		<path style="fill:#E69632;" d="M272.513,433.233h16.118c1.539,0,2.595-1.352,1.958-2.546c-0.758-1.419-1.987-3.035-3.842-3.718
			c-3.637-1.339-10.403-3.988-10.403-3.988l-4.884,0.084c0,0-1.802,4.395-1.05,8.666
			C270.562,432.604,271.478,433.233,272.513,433.233z"/>
		<rect x="270.409" y="431.732" style="fill:#FFFFFF;" width="20.369" height="2.048"/>
		<g>
			<path style="fill:#FFFFFF;" d="M235.89,437.75h6.263c2.163,0,4.177-1.162,5.201-3.067c0.48-0.894,0.848-1.875,0.848-2.785
				c0-3.869-2.443-7.87-2.443-7.87l-4.16,0.084c0,0-6.453,4.808-7.869,10.931C233.408,436.427,234.469,437.75,235.89,437.75z"/>
			<path style="fill:#E69632;" d="M235.89,435.853h6.263c2.163,0,4.177-1.162,5.201-3.067c0.48-0.894,0.848-1.875,0.848-2.785
				c0-3.869-2.443-7.87-2.443-7.87l-4.16,0.084c0,0-6.453,4.808-7.869,10.931C233.408,434.529,234.469,435.853,235.89,435.853z"/>
		</g>
		<path style="fill:#FABE9B;" d="M239.641,417.699v7.114c0,1.094,0.476,2.17,1.376,2.792c0.549,0.379,1.274,0.622,2.198,0.444
			c1.413-0.271,2.447-1.498,2.651-2.922l1.216-8.524L239.641,417.699z"/>
		<path style="fill:#FABE9B;" d="M271.041,416.104v7.114c0,1.094,0.476,2.17,1.376,2.792c0.549,0.379,1.275,0.622,2.198,0.444
			c1.413-0.271,2.447-1.498,2.651-2.922l1.216-8.524L271.041,416.104z"/>
		<path style="fill:#823214;" d="M241.306,196.006h27.428v-47.675h-12.133C249.908,148.331,231.563,157.001,241.306,196.006z"/>
		<g>
			<g>
				<path style="fill:#FC5954;" d="M264.262,422.982c-0.716-25.567,2.705-65.831,11.263-76.516c0,0,7.65,1.697,12.914,4.293
					c0,0-0.711,44.292,0,72.223H264.262z"/>
			</g>
			<g>
				<path style="fill:#FC5954;" d="M270.462,367.937c0,0-7.51-56.008-8.882-67.94c-1.372-11.932,0-18.332,0-18.332l28.5,1.694
					l-1.641,67.857L270.462,367.937z"/>
			</g>
			<path style="fill:#DC1428;" d="M282.049,281.665H261.58c0,0-1.372,6.4,0,18.332c0.734,6.382,4.975,38.036,7.229,55.568
				C269.312,317.42,268.73,289.207,282.049,281.665z"/>
		</g>
		<path style="fill:#E69632;" d="M293.161,207.958l10.586,27.292c-2.716,2.042-16.437,0.331-21.698,1.393
			c-4.51-5.066-2.674-9.738-5.314-16.049c-2.244-5.365-4.164-17.792-1.079-19.814C281.093,197.215,287.724,198.316,293.161,207.958z
			"/>
		<path style="opacity:0.1;" d="M286.537,219.868c-1.131-4.667-2.048-9.602-1.844-14.435c-4.039-2.438-18.421-3.803-21.642,1.372
			c-1.949,3.131,5.017,13.6,9.308,17.525c5.048,4.616,12.677,9.612,18.899,12.313c0.331-0.243,0.671-0.517,1.013-0.804
			C289.684,230.809,287.867,225.354,286.537,219.868z"/>
		<g>
			<g>
				<path style="fill:#FC5954;" d="M233.671,423.21c0,0,0.141-41.137,6.018-66.727c0,0,15.645-9.931,20.801-7.125l-2.998,74.012
					L233.671,423.21z"/>
			</g>
			<g>
				<path style="fill:#FC5954;" d="M239.689,356.483c0,0-5.812-54.778-6.021-57.596c-0.891-11.977,2.912-18.335,2.912-18.335
					l33.439,1.344l-9.547,67.92L239.689,356.483z"/>
			</g>
			<path style="fill:#DC1428;" d="M249.925,297.67c0,0,0.661,6.037-7.025,8.099C245.869,303.756,248.21,301.056,249.925,297.67z"/>
		</g>
		<path style="fill:none;stroke:#DC1428;stroke-width:0.4527;stroke-miterlimit:10;" d="M237.669,284.777
			c-0.833,24.515,1.456,57.442,2.939,71.705c0,0-2.959,23.815-4.985,66.887"/>
		<g>
			<rect x="257.986" y="281.665" style="fill:#FC5954;" width="24.952" height="24.952"/>
		</g>
		<g>
			<path style="fill:#DC1428;" d="M235.623,282.55c0,0,18.038,5.893,34.396,5.172c16.358-0.722,20.061-4.362,20.061-4.362
				S242.601,279.302,235.623,282.55z"/>
		</g>
		<path style="fill:#E69632;" d="M265.976,197.041c0,0-12.003-2.225-19.133,3.453c-5.545,4.417-7.96,8.928-9.876,23.105
			c-4.62,34.183-3.296,58.922-3.296,58.922s41.177,4.345,59.49,0.884c0,0-0.89-53.428-4.512-70.71
			C286.617,202.997,279.334,196.233,265.976,197.041z"/>
		<path style="fill:#D77D14;" d="M237.03,240.253c3.984-6.544,7.282-13.551,9.271-20.966c1.718-6.405,2.378-13.065,1.767-19.658
			c-0.421,0.267-0.831,0.552-1.225,0.866c-5.545,4.417-7.96,8.928-9.876,23.105c-0.954,7.055-1.567,13.7-1.946,19.818
			C235.707,242.372,236.38,241.32,237.03,240.253z"/>
		<path style="fill:#D77D14;" d="M257.622,246.099c0,0,14.335-7.556,25.504,0.369L257.622,246.099z"/>
		<path style="fill:#FABE9B;" d="M248.771,221.941c0,0-23.035,18.736-24.381,34.452l13.279,28.384l-4.833,5.268
			c0,0-23.996-23.335-21.333-34.878c2.483-10.762,5.261-33.645,24.474-48.363C248.233,197.416,253.574,218.254,248.771,221.941z"/>
		<path style="fill:#FAA073;" d="M235.977,206.805c-7.211,5.524-12.107,12.198-15.541,18.95c0.351,1.666,0.888,3.287,1.636,4.819
			c2.019,4.135,5.281,7.559,9.153,10.03c7.229-10.265,17.545-18.663,17.545-18.663C253.574,218.254,248.233,197.416,235.977,206.805
			z"/>
		<path style="fill:#FABE9B;" d="M236.491,284.712c0,0,3.374,0.022,5.672,1.14c3.377,1.642,5.032,3.22,4.671,3.762
			c-0.518,0.778-3.989-0.917-4.052-0.82c-0.171,0.262,3.605,3.85,3.079,4.53c-0.767,0.993-3.214-1.184-3.229-0.446
			c-0.015,0.738,1.899,2.268,1.086,3.11c-0.881,0.913-2.289-1.226-2.742-0.961c-0.453,0.265,1.376,2.014,0.289,2.687
			c-1.183,0.733-2.07-1.428-2.829-1.116c-0.307,0.126,0.997,1.829-0.103,2.512c-1.1,0.683-2.504-2.847-2.703-3.257
			c-0.199-0.41-4.466-4.318-2.079-8.831L236.491,284.712z"/>
		<path style="fill:#823214;" d="M280.05,163.884l4.448,32.113l-17.221-0.439c-0.155-0.017-0.311-0.036-0.468-0.056l4.395-31.618
			H280.05z"/>
		<rect x="257.493" y="185.548" style="fill:#FABE9B;" width="11.846" height="13.501"/>
		<path style="fill:#FAA073;" d="M269.34,196.613c-5.002,0.494-8.551-1.998-11.846-5.008v-6.056h11.846V196.613z"/>
		<path style="fill:#FABE9B;" d="M270.373,193.27h-3.863c-1.295,0-2.56-0.357-3.63-1.024l-3.463-2.16
			c-4.676-2.917-7.474-7.759-7.474-12.937v-16.257h28.107v21.033c0,0.546-0.119,1.082-0.352,1.585
			C278.561,185.962,274.802,193.27,270.373,193.27z"/>
		<g>
			<path style="fill:#523528;" d="M265.459,175.247c-0.033,1.388-0.637,2.5-1.35,2.483c-0.713-0.017-1.264-1.156-1.231-2.544
				c0.033-1.388,0.638-2.5,1.35-2.483C264.941,172.719,265.492,173.858,265.459,175.247z"/>
			<path style="fill:#FFFFFF;" d="M264.168,174.736c0,0.534-0.231,0.966-0.515,0.966s-0.516-0.432-0.516-0.966
				c0-0.533,0.231-0.966,0.516-0.966S264.168,174.202,264.168,174.736z"/>
		</g>
		<g>
			<path style="fill:#523528;" d="M276.59,175.247c-0.033,1.388-0.637,2.5-1.35,2.483c-0.713-0.017-1.264-1.156-1.231-2.544
				c0.033-1.388,0.638-2.5,1.35-2.483C276.071,172.719,276.622,173.858,276.59,175.247z"/>
			<ellipse style="fill:#FFFFFF;" cx="274.783" cy="174.736" rx="0.516" ry="0.966"/>
		</g>
		<ellipse style="fill:#FABE9B;" cx="251.101" cy="175.78" rx="4.254" ry="4.78"/>
		<path style="fill:#FAA073;" d="M252.679,175.78c0,0.979-0.706,1.772-1.578,1.772c0.556-1.241,0.842-2.337,0-3.545
			C251.973,174.008,252.679,174.801,252.679,175.78z"/>
		<path style="fill:#FAA073;" d="M272.397,178.402v-0.016c0,0-1.908-1.585-1.68-3.917c0,0-1.26,3.091,1.679,4.198
			c0.036,0.145,0.056,0.295,0.056,0.451c0,1.085-0.879,1.964-1.964,1.964c-0.431,0-0.826-0.143-1.15-0.378
			c0.317,0.659,0.985,1.117,1.765,1.117c1.085,0,1.964-0.879,1.964-1.964C273.069,179.273,272.803,178.761,272.397,178.402z"/>
		<path style="fill:#FAA073;" d="M278.861,180.536c0,0.954-0.973,1.727-2.174,1.727s-2.174-0.773-2.174-1.727
			c0-0.954,0.973-1.727,2.174-1.727S278.861,179.583,278.861,180.536z"/>
		<path style="fill:#FAA073;" d="M263.983,180.536c0,0.954-0.973,1.727-2.174,1.727c-1.2,0-2.174-0.773-2.174-1.727
			c0-0.954,0.973-1.727,2.174-1.727C263.01,178.809,263.983,179.583,263.983,180.536z"/>
		<path style="fill:#FAA073;" d="M280.05,169.914L280.05,169.914c-3.169,0-5.89-2.443-6.485-5.82l-0.167-0.946l0,0
			c-1.226,4.038-4.702,6.766-8.62,6.766h-13.677v-9.589c0-6.056,4.524-10.965,10.104-10.965h8.741
			c5.58,0,10.104,4.909,10.104,10.965V169.914z"/>
		<path style="fill:#823214;" d="M251.89,171.001c0,0,2.908,1.705,2.742,4.701c-0.166,2.997-0.369,3.633,0.724,3.317
			c1.092-0.316,1.199-6.532-0.617-8.018c0,0,4.303,1.165,3.273,0S253.309,166.121,251.89,171.001z"/>
		<path style="fill:#823214;" d="M282.517,168.885L282.517,168.885c-3.439,0-6.392-2.443-7.037-5.82l-0.181-0.946l0,0
			c-1.331,4.038-5.103,6.766-9.355,6.766h-14.843v-9.589c0-6.056,4.909-10.965,10.965-10.965h9.485
			c6.056,0,10.965,4.909,10.965,10.965V168.885z"/>
		<rect x="248.817" y="157.552" style="fill:#823214;" width="5.722" height="13.448"/>
		<g>
			<path style="fill:#FC5954;" d="M245.492,290.276c0,0-5.09,5.402-11.943,6.248c0,0,5.423,9.774,11.187,4.944
				C250.499,296.638,245.492,290.276,245.492,290.276z"/>
		</g>
		<path style="fill:none;stroke:#DC1428;stroke-width:0.4527;stroke-miterlimit:10;" d="M265.804,319.961l5.706,42.195
			c0,0-5.594,40.71-3.131,60.826"/>
		<g>
			<defs>
				<path id="SVGID_1_" d="M265.976,197.041c0,0-12.003-2.225-19.133,3.453c-5.545,4.417-7.96,8.928-9.876,23.105
					c-4.62,34.183-3.296,58.922-3.296,58.922s41.177,4.345,59.49,0.884c0,0-0.89-53.428-4.512-70.71
					C286.617,202.997,279.334,196.233,265.976,197.041z"/>
			</defs>
			<clipPath id="SVGID_00000065035156818637918290000004178846792158587060_">
				<use xlink:href="#SVGID_1_"  style="overflow:visible;"/>
			</clipPath>
			<g style="clip-path:url(#SVGID_00000065035156818637918290000004178846792158587060_);">
				<path style="fill:none;stroke:#FFAA50;stroke-width:0.6791;stroke-miterlimit:10;" d="M237.648,197.283
					c0,0,1.325,32.097,2.207,57.017c0.882,24.921-3.504,47.42-3.504,47.42"/>
				<path style="fill:none;stroke:#FFAA50;stroke-width:0.6791;stroke-miterlimit:10;" d="M242.387,188.885
					c0,0,1.325,32.097,2.207,57.017c0.882,24.921-3.504,47.42-3.504,47.42"/>
				<path style="fill:none;stroke:#FFAA50;stroke-width:0.6791;stroke-miterlimit:10;" d="M251.429,204.151
					c0,0,1.325,32.097,2.207,57.017c0.882,24.921-3.504,47.42-3.504,47.42"/>
				<path style="fill:none;stroke:#FFAA50;stroke-width:0.6791;stroke-miterlimit:10;" d="M259.122,200.737
					c0,0,1.325,32.097,2.207,57.017c0.882,24.921-3.504,47.42-3.504,47.42"/>
				<path style="fill:none;stroke:#FFAA50;stroke-width:0.6791;stroke-miterlimit:10;" d="M265.483,191.198
					c0,0,1.325,32.097,2.207,57.017c0.882,24.921-3.504,47.42-3.504,47.42"/>
				<path style="fill:none;stroke:#FFAA50;stroke-width:0.6791;stroke-miterlimit:10;" d="M272.986,202.54
					c0,0,1.325,32.097,2.207,57.017c0.882,24.921-3.504,47.42-3.504,47.42"/>
				<path style="fill:none;stroke:#FFAA50;stroke-width:0.6791;stroke-miterlimit:10;" d="M280.464,194.25
					c0,0,1.325,32.097,2.207,57.017s-3.504,47.42-3.504,47.42"/>
				<path style="fill:none;stroke:#FFAA50;stroke-width:0.6791;stroke-miterlimit:10;" d="M286.115,197.283
					c0,0,1.325,32.097,2.207,57.017c0.882,24.921-3.504,47.42-3.504,47.42"/>
			</g>
		</g>
		<path style="fill:#D77D14;" d="M291.5,239.838c-0.992-1.118-1.961-2.367-2.849-3.593c-2.74-3.786-4.262-8.317-4.426-12.988
			l-0.129-19.999c-0.485-0.545-1.6,28.346-1.6,28.346c0.164,4.671,1.685,9.201,4.426,12.988c1.573,2.173,3.404,4.412,5.156,5.878
			C291.91,246.944,291.718,243.359,291.5,239.838z"/>
		<path style="fill:#E69632;" d="M251.029,221.098c0,0-9.362,7.567-16.533,16.515c-4.284-2.796-11.762-6.443-14.688-14.732
			c3.501-5.809,9.463-12.71,14.707-17.102c4.458-3.734,15.757-9.252,18.603-6.906C258.134,203.01,254.094,218.745,251.029,221.098z"
			/>
		<path style="fill:#FABE9B;" d="M273.499,210.977c7.928-3.08,7.479-12.666-7.523-13.936c0,0-7.024-1.3-13.517,0.631
			c-2.185,0.65-3.274,3.153-2.277,5.203C254.391,211.527,264.32,214.544,273.499,210.977z"/>
		<path style="fill:#FAA073;" d="M255.488,202.54c0,0,7.271,0,7.928,0s2.044,1.99,2.044,1.99L255.488,202.54z"/>
		<path style="fill:#FAA073;" d="M268.109,204.529c0,0,1.313-1.655,2.062-1.99c0.749-0.335,5.705,0,5.705,0L268.109,204.529z"/>
		<path style="fill:#FAA073;" d="M287.019,200.647c0,0-0.33-7.289-3.219-9.688c-2.889-2.399-4.585-3.596-4.723-3.384
			c-0.508,0.785-0.822,1.682,2.012,4.059c0.585,0.491,0.643,1.13,0.567,1.217c-0.173,0.2-7.333-4.59-10.018-5.59
			c-0.488-0.182-1.143,0.07-1.221,0.176c-0.744,1.011,8.157,5.632,7.808,6.858c0,0-1.974-1.354-2.349,0.195
			c-0.223,0.922,1.07,1.645,0.943,1.867c-0.261,0.455-1.525-0.2-1.891,0.724c-0.415,1.047,1.321,1.595,1.06,2.133
			c-0.111,0.23-0.911-0.166-1.051,0.678c-0.112,0.674,1.904,1.873,2.354,1.952c0.449,0.079,5.38,3.107,9.063-0.429L287.019,200.647z
			"/>
		<path style="fill:none;stroke:#FAA073;stroke-width:0.9054;stroke-miterlimit:10;" d="M264.649,183.912
			c0,0,4.374,0.336,5.084,3.738"/>
		<path style="fill:#823214;" d="M265.507,171.556l-5.164-0.747l0.168-1.162l7.557-0.004l0,0
			C267.889,170.878,266.742,171.735,265.507,171.556z"/>
		<path style="fill:#823214;" d="M278.283,169.951l-5.089,1.155l-0.26-1.145l7.053-2.715l0,0
			C280.264,168.463,279.501,169.674,278.283,169.951z"/>
		<path style="fill:#FABE9B;" d="M286.333,195.997l13.715,36.971c0,0,2.825,15.96-1.794,17.046
			c-2.539,0.597-6.221-3.552-9.061-7.475c-2.741-3.786-4.262-8.317-4.426-12.988l-0.967-27.507L286.333,195.997z"/>
		<g>
			<polygon style="fill:#FAA073;" points="283.8,202.043 284.171,212.607 286.333,195.997 			"/>
		</g>
		
			<line style="fill:none;stroke:#DC1428;stroke-width:2.7163;stroke-miterlimit:10;" x1="233.671" y1="422.304" x2="257.493" y2="422.304"/>
		
			<line style="fill:none;stroke:#DC1428;stroke-width:2.7163;stroke-miterlimit:10;" x1="264.262" y1="422.076" x2="288.44" y2="422.076"/>
	</g>
	<g>
		<path style="fill:#0be88f;" d="M53.108,435.853c0,1.305,26.386,2.363,58.934,2.363c32.549,0,58.934-1.058,58.934-2.363
			c0-1.305-26.386-2.363-58.934-2.363C79.494,433.49,53.108,434.548,53.108,435.853z"/>
		<path style="fill:#E69632;" d="M127.888,349.734h24.68c2.427-21.923,2.2-45.143,0-69.325h-2.611l-27.231,2.078l0.247,21.345
			L127.888,349.734z"/>
		
			<line style="fill:none;stroke:#41378C;stroke-width:0.4877;stroke-miterlimit:10;" x1="131.522" y1="349.734" x2="128.419" y2="311.944"/>
		<path style="fill:#FF9669;" d="M186.292,217.246c0,0-21.528-11.831-34.278-20.106c-5.955-3.865-13.669-4.403-18.898,0.398
			c-3.39,3.112-4.658,7.767,0.304,13.242c9.74,10.749,30.827,22.717,52.847,20.49C188.63,229.048,186.58,219.565,186.292,217.246z"
			/>
		<path style="fill:#1E2D64;" d="M156.346,198.447c9.84,6.409,15.764,9.911,15.764,9.911c-1.757,3.276-9.69,16.514-14.424,19.988
			c-6.807-2.955-16.879-13.186-22.401-18.237c-4.695-4.293-1.208-20.238,2.027-21.038
			C142.232,187.855,150.093,194.374,156.346,198.447z"/>
		<path style="fill:#E69632;" d="M113.743,353.763l17.066-49.865l-6.847-19.452l-28.259-1.96
			c-4.918,23.919-8.491,46.809-8.858,67.247L113.743,353.763z"/>
		<path style="opacity:0.2;" d="M95.702,282.487c0,0,18.756,6.128,35.764,5.378c17.008-0.75,18.283-9.211,18.283-9.211
			S102.958,279.11,95.702,282.487z"/>
		<path style="fill:#1E2D64;" d="M148.157,201.344c-0.066-7.956-5.233-11.985-8.299-12.177c-4.279-0.268-11.872,0.014-17.928,0
			c-10.855-0.025-23.034,5.368-26.961,8.496c-6.066,4.832,0.733,85.024,0.733,85.024s35.633,5.714,57.085-2.186
			C152.787,280.501,148.415,232.515,148.157,201.344z"/>
		<g>
			<path style="fill:#DC1428;" d="M94.254,277.84c0.109,1.591,0.2,2.747,0.265,3.522c0.063,0.742,0.622,1.329,1.36,1.434
				c6.496,0.92,36.936,4.702,56.823-2.039c0.695-0.236,1.128-0.918,1.064-1.649c-0.053-0.598-0.124-1.403-0.209-2.391
				c-0.078-0.909-0.9-1.565-1.804-1.438c-18.239,2.561-36.834,2.768-55.751,0.866C95.021,276.047,94.187,276.856,94.254,277.84z"/>
		</g>
		<path style="fill:none;stroke:#41378C;stroke-width:0.8799;stroke-miterlimit:10;" d="M134.545,286.921
			c0,0,0.951,14.51-3.736,15.437"/>
		<g>
			<g>
				<path style="fill:#DC1428;" d="M133.875,195.55c-0.476,4.637-5.989,7.87-12.314,7.221c-6.325-0.649-11.066-4.935-10.59-9.573
					c0.476-4.637,5.99-7.871,12.315-7.221C129.61,186.626,134.351,190.912,133.875,195.55z"/>
			</g>
			<g>
				<path style="fill:#FF9669;" d="M122.536,198.447L122.536,198.447c-4.438,0-8.036-3.598-8.036-8.036v-11.834h16.072v11.834
					C130.572,194.849,126.974,198.447,122.536,198.447z"/>
				<path style="fill:#FF640A;" d="M130.572,190.987c-6.786,0.554-13.213-4.702-16.072-8.529v-3.881h16.072V190.987z"/>
				<path style="fill:#FF9669;" d="M130.338,187.238h-4.333c-1.452,0-2.871-0.4-4.071-1.149l-3.884-2.423
					c-5.244-3.271-8.382-8.702-8.382-14.509v-18.234h31.524v23.589c0,0.613-0.133,1.214-0.395,1.778
					C139.522,179.042,135.306,187.238,130.338,187.238z"/>
				<g>
					<path style="fill:#523528;" d="M124.827,167.023c-0.037,1.557-0.715,2.804-1.514,2.785c-0.799-0.019-1.418-1.297-1.381-2.854
						c0.037-1.557,0.715-2.804,1.514-2.785C124.245,164.189,124.864,165.467,124.827,167.023z"/>
					<path style="fill:#FFFFFF;" d="M123.379,166.451c0,0.598-0.259,1.083-0.578,1.083c-0.319,0-0.578-0.485-0.578-1.083
						c0-0.598,0.259-1.083,0.578-1.083C123.12,165.367,123.379,165.852,123.379,166.451z"/>
				</g>
				<g>
					<path style="fill:#523528;" d="M137.31,167.023c-0.037,1.557-0.715,2.804-1.514,2.785c-0.799-0.019-1.418-1.297-1.381-2.854
						s0.715-2.804,1.514-2.785C136.729,164.189,137.347,165.467,137.31,167.023z"/>
					<ellipse style="fill:#FFFFFF;" cx="135.285" cy="166.451" rx="0.578" ry="1.083"/>
				</g>
				<path style="fill:#FF640A;" d="M132.609,170.563v-0.018c0,0-2.14-1.777-1.884-4.393c0,0-1.413,3.467,1.883,4.709
					c0.04,0.162,0.063,0.33,0.063,0.505c0,1.217-0.986,2.203-2.203,2.203c-0.483,0-0.926-0.16-1.289-0.424
					c0.356,0.739,1.105,1.252,1.979,1.252c1.217,0,2.203-0.986,2.203-2.203C133.361,171.54,133.063,170.966,132.609,170.563z"/>
				<path style="fill:#FF640A;" d="M139.858,172.956c0,1.07-1.091,1.937-2.438,1.937c-1.346,0-2.438-0.867-2.438-1.937
					c0-1.07,1.091-1.937,2.438-1.937C138.766,171.02,139.858,171.887,139.858,172.956z"/>
				<path style="fill:#FF640A;" d="M123.171,172.956c0,1.07-1.091,1.937-2.438,1.937c-1.346,0-2.438-0.867-2.438-1.937
					c0-1.07,1.091-1.937,2.438-1.937C122.08,171.02,123.171,171.887,123.171,172.956z"/>
				<path style="fill:#823214;" d="M125.006,163.578h-5.852v-1.317l8.388-1.218l0,0
					C127.542,162.443,126.406,163.578,125.006,163.578z"/>
				<path style="fill:#823214;" d="M139.697,163.578h-5.852v-1.317l8.388-1.218l0,0
					C142.232,162.443,141.097,163.578,139.697,163.578z"/>
				<path style="fill:#FFFFFF;" d="M132.64,175.286c0,1.991-1.614,3.605-3.605,3.605c-1.991,0-3.605-1.614-3.605-3.605H132.64z"/>
				<path style="fill:#823214;" d="M111.916,177.088h-1.807c-2.338,0-4.233-1.895-4.233-4.233v-19.079c0-3.336,2.704-6.04,6.04-6.04
					l0,0V177.088z"/>
				<path style="fill:#FF9669;" d="M113.495,167.622c0,2.961-2.136,5.361-4.771,5.361c-2.635,0-4.771-2.4-4.771-5.361
					c0-2.961,2.136-5.361,4.771-5.361C111.359,162.261,113.495,164.661,113.495,167.622z"/>
				<path style="fill:#FF640A;" d="M110.493,167.622c0,1.098-0.792,1.988-1.769,1.988c0.623-1.392,0.944-2.621,0-3.976
					C109.701,165.634,110.493,166.524,110.493,167.622z"/>
				<rect x="111.513" y="148.473" style="fill:#823214;" width="3.573" height="21.042"/>
				<path style="fill:#823214;" d="M111.776,149.062c0,0-1.149-5.108,0-5.108c1.149,0,1.423,1.771,1.423,1.771
					s7.208-6.962,20.066-5.05c3.399,0.506,6.871,0.027,9.901-1.596l5.851-3.135c2.047,4.669,2.521,18.908-5.503,20.889
					C132.51,159.551,114.17,155.234,111.776,149.062z"/>
				<path style="fill:#823214;" d="M112.288,148.473c0,0-2.208-3.407-3.394-3.072C107.709,145.737,112.288,148.473,112.288,148.473z
					"/>
			</g>
		</g>
		<path style="fill:none;stroke:#41378C;stroke-width:0.4877;stroke-miterlimit:10;" d="M95.35,284.209
			c14.446,2.894,43.629,4.439,57.539-0.114"/>
		<path style="fill:#FF9669;" d="M110.347,260.978c-5.814-10.224-9.019-45.368-9.019-45.368c0-7.371-15.012-16.733-17.989-0.108
			c-2.091,11.674,0.777,30.285,10.198,45.475H110.347z"/>
		<path style="fill:#FF9669;" d="M131.091,232.812c0,0-28.903,19.911-37.554,28.166c-0.024,0.011,3.296,5.083,4.343,5.933
			c9.144,7.429,40.257-30.044,40.257-30.044L131.091,232.812z"/>
		<path style="fill:#1E2D64;" d="M104.12,206.195c0,0,1.399,22.946,1.495,33.275c-3.403,0.586-16.895,0.984-22.123-0.524
			c-1.664-6.754-2.348-16.099-1.745-23.109c0.513-5.959,3.869-12.144,8.69-15.531c4.873-3.424,10.182-5.933,10.182-5.933
			S104.409,203.945,104.12,206.195z"/>
		<path style="fill:#FF9669;" d="M130.844,236.004c0,0-0.545-7.741,2.017-10.952c2.562-3.211,4.264-3.801,4.325-3.264
			c0.117,1.016-1.333,1.986-1.993,3.243c-0.388,0.74-0.438,1.353-0.337,1.43c0.272,0.208,8.6-6.851,9.215-6.139
			c1.236,1.43-6.023,6.849-5.219,6.924c0.804,0.076,7.11-6.411,7.963-5.456c0.925,1.035-6.005,6.921-5.753,7.436
			s5.145-5.199,5.791-3.959c0.704,1.35-4.799,5.638-4.521,6.491c0.113,0.345,4.019-4.926,4.675-3.671
			c0.656,1.255-5.014,6.853-5.477,7.037c-0.464,0.184-5.073,4.523-9.803,1.553L130.844,236.004z"/>
		<g>
			<g>
				<g>
					<path style="fill:#FC5954;" d="M133.427,434.72h21.936c1.602,0,2.7-1.652,2.037-3.11c-0.789-1.734-2.067-3.707-3.997-4.541
						c-3.784-1.635-13.37-4.924-13.37-4.924l-8.085,0.214c-2.011,1.546-2.185,5.309-1.403,10.527
						C130.704,433.952,132.35,434.72,133.427,434.72z"/>
				</g>
				<path style="fill:#FFFFFF;" d="M158.06,435.388h-27.251c-0.691,0-1.251-0.56-1.251-1.251l0,0c0-0.691,0.56-1.251,1.251-1.251
					h27.251c0.691,0,1.251,0.56,1.251,1.251l0,0C159.311,434.828,158.751,435.388,158.06,435.388z"/>
			</g>
			<path style="fill:#FF9669;" d="M138.474,424.13c-1.747,1.072-3.495,1.072-5.242,0c-0.452-0.277-0.737-0.767-0.737-1.297V416.9
				h6.715v5.934C139.211,423.363,138.926,423.853,138.474,424.13z"/>
		</g>
		<g>
			<g>
				<polygon style="fill:#FFFFFF;" points="137.773,432.949 142.504,425.95 141.648,425.371 136.526,432.949 				"/>
			</g>
			<g>
				<polygon style="fill:#FFFFFF;" points="141.66,432.949 145.368,427.462 144.512,426.883 140.412,432.949 				"/>
			</g>
			<g>
				<polygon style="fill:#FFFFFF;" points="145.547,432.949 148.233,428.975 147.377,428.395 144.299,432.949 				"/>
			</g>
		</g>
		<g>
			<path style="fill:#E69632;" d="M142.504,416.737c7.742-34.807,10.065-67.003,10.065-67.003c-6.431-3.171-24.68,0-24.68,0
				c-0.369,18.215,1.957,36.691,2.908,67.211C134.571,418.102,138.282,417.771,142.504,416.737z"/>
		</g>
		<g>
			<g>
				<g>
					<path style="fill:#FC5954;" d="M56.408,418.518l19.436,10.17c1.419,0.743,3.158-0.212,3.246-1.811
						c0.105-1.902-0.113-4.243-1.436-5.877c-2.595-3.203-9.564-10.562-9.564-10.562l-7.263-3.559
						c-2.498,0.437-4.398,3.691-6.124,8.677C54.351,416.574,55.453,418.018,56.408,418.518z"/>
				</g>
				<path style="fill:#FFFFFF;" d="M77.924,430.529l-24.145-12.634c-0.612-0.32-0.849-1.076-0.528-1.688l0,0
					c0.32-0.612,1.076-0.849,1.688-0.528l24.145,12.634c0.612,0.32,0.849,1.076,0.528,1.688l0,0
					C79.292,430.613,78.536,430.85,77.924,430.529z"/>
			</g>
			<path style="fill:#FF9669;" d="M65.79,411.474c-2.045,0.14-3.593-0.671-4.645-2.43c-0.272-0.455-0.297-1.021-0.051-1.49
				l2.751-5.257l5.95,3.113l-2.751,5.257C66.798,411.136,66.319,411.438,65.79,411.474z"/>
		</g>
		<g>
			<g>
				<polygon style="fill:#FFFFFF;" points="61.08,418.964 68.516,414.956 68.026,414.045 59.974,418.385 				"/>
			</g>
			<g>
				<polygon style="fill:#FFFFFF;" points="64.524,420.766 70.353,417.624 69.863,416.713 63.418,420.187 				"/>
			</g>
			<g>
				<polygon style="fill:#FFFFFF;" points="67.968,422.568 72.19,420.292 71.7,419.381 66.862,421.989 				"/>
			</g>
		</g>
		<g>
			<path style="fill:#E69632;" d="M72.398,407.256c22.997-27.251,41.345-53.493,41.345-53.493
				c-4.228-5.791-26.634-7.445-26.634-7.445c-5.001,4.747-21.749,40.71-25.372,55.359C64.545,404.452,68.178,406.215,72.398,407.256
				z"/>
		</g>
		<path style="fill:#FF9669;" d="M206.95,193.585c0,0-23.888,20.794-32.854,28.7c-0.024,0.01,1.745,4.033,2.549,5.114
			c3.546,4.772,10.497,5.242,14.702,1.038c10.957-10.956,19.74-30.518,19.74-30.518L206.95,193.585z"/>
		<path style="fill:none;stroke:#41378C;stroke-width:0.4877;stroke-miterlimit:10;" d="M104.701,285.507c0,0,0,9.132-8.999,14.241
			l-6.121,48.577c0,0-16.908,27.349-26.176,54.811"/>
		
			<line style="fill:none;stroke:#41378C;stroke-width:0.4877;stroke-miterlimit:10;" x1="131.522" y1="348.798" x2="132.496" y2="416.9"/>
		<g>
			<path style="fill:#FAC855;" d="M223.316,182.275c-18.177,14.212-18.508,24.126-18.508,41.312c0,6.279-3.305,13.551-19.499,13.551
				c-13.55,0-18.177-4.958-18.177-22.144c0-28.423,12.559-41.973,22.143-50.235c10.907-9.254,29.414-19.499,29.414-37.346
				c0-15.203-13.22-22.474-29.745-22.474c-33.71,0-26.439,25.448-44.286,25.448c-8.923,0-19.83-5.949-19.83-18.838
				c0-17.846,20.491-44.286,65.107-44.286c42.303,0,70.395,23.465,70.395,54.532S232.239,175.335,223.316,182.275z M211.087,285.39
				c0,13.55-11.237,25.449-25.448,25.449c-14.212,0-25.118-11.898-25.118-25.449c0-13.88,11.237-25.448,25.118-25.448
				C199.52,259.942,211.087,271.509,211.087,285.39z"/>
		</g>
		<path style="fill:#FAA073;" d="M208.296,201c3.508-2.84,7.393-5.472,8.721-9.519c0,0,5.152-2.728,4.731-3.597
			c-0.421-0.869-5.553,0.746-5.553,0.746s-2.443-7.58-4.406-7.403c-1.964,0.178,1.262,8.313,1.262,8.313s-5.471-4.112-6.172-2.547
			c-0.701,1.565,3.647,5.011,3.647,5.011s-6.873-2.425-5.611-0.411c1.262,2.014,4.208,2.6,4.208,2.6s-5.92,0.434-4.363,1.186
			c1.557,0.753,4.213,1.286,4.213,1.286S208.029,198.433,208.296,201z"/>
	</g>
	<g>
		<text transform="matrix(1 0 0 1 315.7959 330.8395)" style="fill:#FAC855; font-family:'Dosis-ExtraBold'; font-size:34.7188px;">?</text>
		<text transform="matrix(1 0 0 1 192.5918 374.7184)" style="fill:#FAC855; font-family:'Dosis-ExtraBold'; font-size:34.7188px;">?</text>
		<text transform="matrix(1 0 0 1 279.7598 111.2921)" style="fill:#FAC855; font-family:'Dosis-ExtraBold'; font-size:16.0263px;">?</text>
		<text transform="matrix(1 0 0 1 336.0391 259.942)" style="fill:#FAC855; font-family:'Dosis-ExtraBold'; font-size:16.0263px;">?</text>
		<text transform="matrix(1 0 0 1 174.0962 152.7296)" style="fill:#FAC855; font-family:'Dosis-ExtraBold'; font-size:16.0263px;">?</text>
		<text transform="matrix(1 0 0 1 303.7471 374.7184)" style="fill:#FAC855; font-family:'Dosis-ExtraBold'; font-size:16.0263px;">?</text>
		<text transform="matrix(1 0 0 1 168.7705 343.0114)" style="fill:#FAC855; font-family:'Dosis-ExtraBold'; font-size:16.0263px;">?</text>
	</g>
	<g>
		<g>
			<path style="fill:#0be88f;" d="M425.437,435.681c0,1.924-18.338,3.483-40.959,3.483c-22.621,0-40.959-1.56-40.959-3.483
				c0-1.924,18.338-3.483,40.959-3.483C407.099,432.198,425.437,433.758,425.437,435.681z"/>
			<g>
				<g>
					<g>
						<path style="fill:#1E1632;" d="M376.872,435.079h-19.794c-1.445,0-2.437-1.491-1.838-2.806
							c0.712-1.564,1.865-3.345,3.607-4.098c3.414-1.476,12.065-4.443,12.065-4.443l7.296,0.193
							c1.814,1.395,1.972,4.791,1.266,9.499C379.33,434.386,377.844,435.079,376.872,435.079z"/>
						<path style="fill:#FFFFFF;" d="M354.645,435.681h24.589c0.623,0,1.129-0.505,1.129-1.129l0,0c0-0.623-0.505-1.128-1.129-1.128
							h-24.589c-0.623,0-1.129,0.505-1.129,1.128l0,0C353.516,435.176,354.022,435.681,354.645,435.681z"/>
					</g>
					<path style="fill:#FF9669;" d="M372.318,425.523c1.577,0.967,3.154,0.967,4.73,0c0.407-0.25,0.664-0.692,0.664-1.17v-5.354
						h-6.059v5.354C371.653,424.831,371.91,425.273,372.318,425.523z"/>
				</g>
				<g>
					<g>
						<polygon style="fill:#55C7A6;" points="372.95,433.481 368.682,427.166 369.454,426.643 374.076,433.481 						"/>
					</g>
					<g>
						<polygon style="fill:#55C7A6;" points="369.443,433.481 366.097,428.53 366.87,428.008 370.569,433.481 						"/>
					</g>
					<g>
						<polygon style="fill:#55C7A6;" points="365.936,433.481 363.512,429.895 364.285,429.372 367.062,433.481 						"/>
					</g>
				</g>
				<g>
					<g>
						<path style="fill:#FFFFFF;" d="M417.411,439.656h-6.904c-2.384,0-4.604-1.281-5.732-3.381
							c-0.529-0.986-0.934-2.067-0.934-3.07c0-4.265,2.693-8.675,2.693-8.675l4.585,0.092c0,0,7.113,5.3,8.673,12.048
							C420.146,438.197,418.977,439.656,417.411,439.656z"/>
						<path style="fill:#1E1632;" d="M417.411,436.995h-6.904c-2.384,0-4.604-1.182-5.732-3.12c-0.529-0.91-0.934-1.908-0.934-2.833
							c0-2.494,0.233-5.057,0.403-6.601c0.091-0.82,0.79-1.433,1.615-1.418l5.26,0.098c0,0,7.113,4.892,8.673,11.12
							C420.146,435.649,418.977,436.995,417.411,436.995z"/>
					</g>
					<path style="fill:#FF9669;" d="M405.909,424.133c1.577,0.967,3.154,0.967,4.73,0c0.408-0.25,0.665-0.692,0.665-1.17v-5.354
						h-6.059v5.354C405.245,423.441,405.502,423.883,405.909,424.133z"/>
				</g>
				<g>
					<path style="fill:#1E2D64;" d="M368.8,419.386c-6.986-31.407-9.856-74.28-9.856-74.28c5.803-2.861,16.833,8.403,16.833,8.403
						c9.227,11.519,4.738,38.338,3.88,65.878C376.251,420.43,372.609,420.319,368.8,419.386z"/>
					<path style="fill:#1E2D64;" d="M377.2,357.905c0,0,9.837-55.599,11.349-68.751c1.512-13.152,0-20.206,0-20.206l-28.683-3.089
						l-3.002,25.372c-0.62,3.23-0.787,6.531-0.497,9.807l2.576,44.572L377.2,357.905z"/>
					<path style="fill:#0F1446;" d="M365.987,268.949h22.562c0,0,1.512,7.054,0,20.206c-0.809,7.035-4.435,27.285-8.103,43.923
						C382.312,308.508,380.668,277.261,365.987,268.949z"/>
				</g>
				<path style="fill:#FF9669;" d="M327.889,201.01l38.6-22.702c4.73-4.71,26.096,3.577,14.669,16.187
					c-9.813,10.83-35.065,22.097-57.251,19.853C325.38,204.952,325.831,203.543,327.889,201.01z"/>
				<g>
					<path style="fill:#FC5954;" d="M366.49,178.308l-21.143,12.434l7.714,20.015c12.071-3.881,22.551-10.14,28.098-16.262
						C392.586,181.885,371.219,173.598,366.49,178.308z"/>
				</g>
				<path style="fill:#FF9669;" d="M329.953,166.695c0,0,2.182,34.537,1.615,46.572c0.007,0.025-4.272,1.169-5.629,1.218
					c-5.988,0.219-10.739-4.953-10.082-10.909c1.711-15.523,8.08-37.404,8.08-37.404L329.953,166.695z"/>
				<path style="fill:#FF9669;" d="M329.923,167.372c0,0,0.454-7.805-2.167-11.008c-2.621-3.204-4.342-3.777-4.398-3.235
					c-0.105,1.025,0.986,2.162,1.666,3.42c0.4,0.741,0.463,1.365,0.357,1.436c-2.889,1.924-9.94-6.036-10.375-5.193
					c-1.617,3.131,6.366,6.366,6.366,6.366s-9.601-6.427-10.051-5.218c-1.01,2.713,8.224,6.731,8.224,6.731
					s-7.543-5.093-8.179-3.836c-0.692,1.369,6.876,6.445,6.876,6.445s-5.042-4.612-5.687-3.339
					c-0.645,1.273,6.122,6.499,6.591,6.679c0.469,0.18,5.166,4.494,9.895,1.444L329.923,167.372z"/>
				<g>
					<path style="fill:#1E2D64;" d="M413.897,419.349c-0.147-27.257,3.263-39.727-3.215-67.934c0,0-15.249-10.946-20.932-7.854
						c0,0,5.695,44.789,13.188,75.982C406.528,420.778,410.183,420.668,413.897,419.349z"/>
					<path style="fill:#1E2D64;" d="M410.682,351.415c0,0,5.195-51.743,6.177-64.945s-0.754-18.75-0.754-18.75l-36.858,1.482
						l10.523,74.864L410.682,351.415z"/>
					<path style="fill:#0F1446;" d="M405.766,277.987c0,0-0.768,6.11,6.729,9.862L405.766,277.987z"/>
					<path style="fill:none;stroke:#0F1446;stroke-width:0.517;stroke-miterlimit:10;" d="M403.679,271.934
						c0,0-5.809,15.587,10.483,24.959"/>
					
						<line style="fill:none;stroke:#0F1446;stroke-width:0.517;stroke-miterlimit:10;" x1="410.044" y1="293.94" x2="410.682" y2="351.415"/>
				</g>
				
					<rect x="365.008" y="268.949" transform="matrix(-1 -1.224647e-16 1.224647e-16 -1 757.5181 565.3999)" style="fill:#1E2D64;" width="27.503" height="27.503"/>
				<path style="opacity:0.2;" d="M417.16,269.923c0,0-19.883,6.496-37.913,5.701c-18.03-0.795-19.381-9.765-19.381-9.765
					S409.469,266.344,417.16,269.923z"/>
				<g>
					<path style="fill:#FC5954;" d="M364.641,182.446c0.185-3.09,2.648-5.56,5.737-5.753c12.04-0.753,44.129-1.706,50.292,3.204
						c6.112,4.868-0.107,90.157-0.107,90.157s-42.721,5.496-64.334-2.464C356.23,267.59,362.758,213.797,364.641,182.446z"/>
				</g>
				<g>
					<g>
						<path style="fill:#0F1446;" d="M401.533,163.434h2.792c2.822,0,5.109-2.287,5.109-5.109V135.97
							c0-3.782-3.066-6.848-6.848-6.848h-1.053V163.434z"/>
						<path style="fill:#FFFFFF;" d="M382.472,176.185v1.464c0,5.849,4.741,10.59,10.59,10.59h0c5.849,0,10.59-4.741,10.59-10.59
							v-1.224C396.847,176.017,389.145,176.021,382.472,176.185z"/>
						<path style="fill:#FF9669;" d="M393.062,184.425L393.062,184.425c4.362,0,7.897-3.536,7.897-7.897v-11.63h-15.795v11.63
							C385.164,180.889,388.7,184.425,393.062,184.425z"/>
						<path style="fill:#FF640A;" d="M385.164,176.146c6.669,0.544,11.4-2.202,15.795-5.521v-8.572l-15.795,1.896V176.146z"/>
						<path style="fill:#FF9669;" d="M384.633,173.41h3.954c1.326,0,2.62-0.393,3.716-1.129l3.545-2.381
							c4.786-3.215,7.65-8.553,7.65-14.259v-17.919h-28.771v23.183c0,0.602,0.121,1.193,0.36,1.747
							C376.251,165.355,380.099,173.41,384.633,173.41z"/>
						<g>
							<path style="fill:none;stroke:#0F1446;stroke-width:0.7109;stroke-miterlimit:10;" d="M393.656,153.476
								c-0.036-1.53-0.703-2.755-1.488-2.737c-0.786,0.019-1.393,1.274-1.357,2.804"/>
						</g>
						<g>
							<path style="fill:none;stroke:#0F1446;stroke-width:0.7109;stroke-miterlimit:10;" d="M381.387,153.476
								c-0.036-1.53-0.703-2.755-1.488-2.737c-0.786,0.019-1.393,1.274-1.357,2.804"/>
						</g>
						<path style="fill:#FF640A;" d="M383.163,157.022v-0.018c0,0,2.103-1.746,1.851-4.318c0,0,1.389,3.407-1.851,4.628
							c-0.039,0.159-0.062,0.325-0.062,0.497c0,1.196,0.969,2.165,2.165,2.165c0.475,0,0.91-0.157,1.267-0.417
							c-0.349,0.726-1.086,1.231-1.945,1.231c-1.196,0-2.165-0.969-2.165-2.165C382.423,157.982,382.716,157.417,383.163,157.022z"
							/>
						<path style="fill:#FF640A;" d="M376.038,159.374c0,1.051,1.073,1.904,2.396,1.904c1.323,0,2.396-0.852,2.396-1.904
							c0-1.051-1.073-1.904-2.396-1.904C377.111,157.47,376.038,158.323,376.038,159.374z"/>
						<path style="fill:#FF640A;" d="M392.438,159.374c0,1.051,1.073,1.904,2.396,1.904c1.323,0,2.396-0.852,2.396-1.904
							c0-1.051-1.073-1.904-2.396-1.904C393.51,157.47,392.438,158.323,392.438,159.374z"/>
						<path style="fill:#0F1446;" d="M390.634,150.157h5.751v-1.294l-8.243-1.197l0,0
							C388.142,149.042,389.258,150.157,390.634,150.157z"/>
						<path style="fill:#0F1446;" d="M376.197,150.157h5.751v-1.294l-8.243-1.197l0,0
							C373.705,149.042,374.82,150.157,376.197,150.157z"/>
						<path style="fill:#FF9669;" d="M401.947,154.132c0,2.91,2.099,5.268,4.689,5.268c2.59,0,4.689-2.359,4.689-5.268
							c0-2.91-2.099-5.268-4.689-5.268C404.046,148.863,401.947,151.222,401.947,154.132z"/>
						<path style="fill:#FF640A;" d="M404.897,154.132c0,1.079,0.779,1.954,1.739,1.954c-0.613-1.368-0.928-2.576,0-3.907
							C405.676,152.178,404.897,153.053,404.897,154.132z"/>
					</g>
				</g>
				<path style="fill:#0F1446;" d="M403.498,155.641l-0.585-10.506c-0.929-4.242-4.661-7.283-9.003-7.337l-2.175-0.027v-8.614
					l9.798-0.035C413.434,129.157,404.282,145.265,403.498,155.641z"/>
				<path style="fill:none;stroke:#0F1446;stroke-width:0.9327;stroke-linecap:round;stroke-miterlimit:10;" d="M376.265,272.424
					c0,0-1.501,23.486,3.468,24.469"/>
				<g>
					<path style="fill:#55C7A6;" d="M407.663,431.646c-0.89,1.201-1.482,2.414-1.764,3.606c-0.269-0.246-0.513-0.516-0.733-0.807
						c0.35-1.122,0.926-2.247,1.748-3.355L407.663,431.646z"/>
					<path style="fill:#55C7A6;" d="M405.525,429.844l0.719,0.594c-0.697,0.842-1.232,1.911-1.614,3.161
						c-0.221-0.407-0.412-0.825-0.55-1.247C404.462,431.397,404.94,430.55,405.525,429.844z"/>
				</g>
				<path style="fill:#0F1446;" d="M384.311,142.646h-8.638c-2.498,0-4.523-2.025-4.523-4.523v-8.966h20.585
					c1.675,0,3.033,1.358,3.033,3.033l0,0C394.768,137.965,390.086,142.646,384.311,142.646z"/>
				
					<rect x="344.261" y="189.03" transform="matrix(0.9112 -0.412 0.412 0.9112 -51.7077 161.7701)" style="fill:#FFFFFF;" width="10.275" height="23.599"/>
				<path style="fill:#FF9669;" d="M459.72,202.897l-38.6-22.702c-4.73-4.71-26.096,3.577-14.669,16.187
					c9.813,10.83,35.065,22.097,57.251,19.853C462.228,206.839,461.778,205.431,459.72,202.897z"/>
				<g>
					<path style="fill:#FC5954;" d="M421.119,180.196l21.142,12.434l-7.714,20.015c-12.071-3.881-22.551-10.14-28.098-16.262
						C395.023,183.773,416.39,175.486,421.119,180.196z"/>
				</g>
				<path style="fill:#FF9669;" d="M457.656,168.583c0,0-2.182,34.537-1.615,46.572c-0.007,0.025,4.272,1.169,5.629,1.218
					c5.988,0.219,10.739-4.953,10.083-10.909c-1.711-15.523-8.08-37.404-8.08-37.404L457.656,168.583z"/>
				<path style="fill:#FF9669;" d="M457.686,169.26c0,0-0.454-7.805,2.167-11.008c2.621-3.203,4.342-3.777,4.398-3.234
					c0.105,1.025-0.986,2.162-1.666,3.42c-0.4,0.741-0.463,1.366-0.357,1.436c2.889,1.924,9.94-6.036,10.375-5.193
					c1.618,3.131-6.366,6.366-6.366,6.366s9.601-6.427,10.051-5.218c1.011,2.713-8.224,6.731-8.224,6.731s7.544-5.093,8.179-3.836
					c0.692,1.369-6.876,6.445-6.876,6.445s5.042-4.612,5.687-3.339c0.646,1.273-6.122,6.499-6.591,6.679
					c-0.47,0.18-5.166,4.494-9.896,1.444L457.686,169.26z"/>
				
					<rect x="433.073" y="190.917" transform="matrix(-0.9112 -0.412 0.412 -0.9112 753.9971 567.959)" style="fill:#FFFFFF;" width="10.275" height="23.599"/>
				<path style="fill:none;stroke:#FF640A;stroke-width:0.9479;stroke-miterlimit:10;" d="M382.959,164.515
					c0,0,3.418,1.72,8.216-1.719"/>
			</g>
		</g>
		<text transform="matrix(1 0 0 1 313.2188 149.36)" style="fill:#FAC855; font-family:'Dosis-ExtraBold'; font-size:40.1244px;">?</text>
		<text transform="matrix(1 0 0 1 457.6563 149.36)" style="fill:#FAC855; font-family:'Dosis-ExtraBold'; font-size:40.1244px;">?</text>
	</g>
</g>
</svg>
