<?xml version="1.0" encoding="utf-8"?>
<!-- Generator: Adobe Illustrator 27.5.0, SVG Export Plug-In . SVG Version: 6.00 Build 0)  -->
<svg version="1.1" xmlns="http://www.w3.org/2000/svg" xmlns:xlink="http://www.w3.org/1999/xlink" x="0px" y="0px"
	 viewBox="-80 0 660 500" style="enable-background:new 0 0 500 500;" xml:space="preserve">
<g id="BACKGROUND">
</g>
<g id="OBJECTS">
	<g>
		<g>
			<g>
				<ellipse style="opacity:0.2;fill:#0be88f;" cx="107.382" cy="392.237" rx="54.311" ry="13.948"/>
				<g>
					<g>
						<g>
							<path style="fill:#99785F;" d="M97.636,147.644c-2.318-1.342-5.733-1.708-6.831,1.585c-1.829,5.245,2.806,9.758,7.563,6.099
								L97.636,147.644z"/>
						</g>
						<g>
							<path style="fill:#99785F;" d="M120.445,152.888c2.317-2.439,5.733-0.244,5.854,2.806c0.122,5-8.294,8.172-10.123,2.684
								L120.445,152.888z"/>
						</g>
						<g>
							<path style="fill:#C1946F;" d="M119.591,132.397c-5.733-4.756-14.393-2.561-18.784,2.806
								c-4.757,5.854-5.001,13.538-3.415,20.734c0.947,4.102,3.169,7.02,6.498,9.076c-0.179,0.477-0.341,0.993-0.521,1.535
								c-1.098,3.415-2.562,7.074-3.903,10.368c-1.586-0.122-3.293,0.123-5.001,0.123l14.881,16.709
								c2.439,1.708,7.44-14.393,7.806-16.709c-1.586-0.366-2.195-0.245-3.78-0.488c-2.074-0.366-2.562-0.732-2.684-2.805
								c-0.094-2.731,0.1-5.536,0.082-8.356c2.621-0.629,5.223-2.541,6.626-4.207c2.805-3.415,4.513-8.782,5.611-13.051
								C124.225,143.253,123.86,135.935,119.591,132.397z"/>
						</g>
						<g>
							<path d="M96.522,147.783c-0.854,0.122-1.57-0.992-2.301-1.358c-2.928-1.708-0.731-4.147,0.488-5.855
								c-2.561-2.562-2.195-4.391,0.487-6.342c-2.439-0.366-4.025-2.683-3.414-5.123c0.609-2.44,2.927-3.171,5.122-3.049
								c-4.635-4.879,5.732-10.855,7.928-5.001c-0.488-2.317,2.439-3.293,4.27-2.927c2.195,0.365,3.293,2.317,3.415,4.391
								c1.098-4.513,8.416-4.757,7.196,0.732c0.366-1.951,3.171-2.562,4.757-1.586c1.586,1.098,2.074,3.781,1.463,5.61
								c1.83-1.463,5.245-1.463,6.221,0.976c1.098,2.927-1.219,4.269-2.927,5.855c2.074-0.488,4.147,0.487,3.415,2.805
								c-0.61,2.44-3.049,3.171-5.123,3.781c3.537,2.073,0.244,5.245-2.317,5.855c1.464,2.195-0.122,5.61-2.927,5.488
								c-2.439,0-1.098-4.269,0.61-5.245c-2.927-0.366-1.342-5.733-0.122-7.074c-2.074,1.098-2.927-2.317-2.317-3.781
								c-1.83,1.83-7.318,0.609-6.708-2.561c-0.732,3.293-5.611,2.805-6.343-0.366c-0.122,2.074-3.415,2.684-5.123,2.074
								c0.244,1.952-0.854,4.269-3.171,4.146C100.198,142.156,98.962,146.074,96.522,147.783L96.522,147.783z"/>
						</g>
						<g>
							<g>
								<path style="fill:#7A6251;" d="M105.381,159.414c1.016-0.577,2.173-0.666,3.248-0.683c1.094,0.013,2.12,0.108,3.247,0.317
									c-1.016,0.579-2.173,0.668-3.247,0.683C107.535,159.716,106.509,159.621,105.381,159.414z"/>
							</g>
							<g>
								<path style="fill:#7A6251;" d="M106.113,156.121c1.392,0.42,2.832,0.932,4.138,0.751c0.637-0.112,1.208-0.387,1.635-0.872
									c0.441-0.466,0.793-1.068,0.942-1.668c0.387-1.213-0.255-2.497-0.931-3.781c-0.332-0.65-0.669-1.338-0.841-2.092
									c-0.158-0.753-0.101-1.572,0.271-2.217c-0.368,1.498,0.477,2.718,1.247,3.921c0.399,0.61,0.801,1.25,1.084,1.997
									c0.278,0.743,0.359,1.629,0.134,2.433c-0.233,0.806-0.653,1.502-1.237,2.073c-0.581,0.578-1.415,0.953-2.229,0.98
									C108.675,157.695,107.35,156.875,106.113,156.121z"/>
							</g>
							<g>
								<path d="M103.643,140.478c0.017-0.572,0.376-1.105,0.804-1.48c0.432-0.388,0.956-0.645,1.499-0.809
									c0.548-0.146,1.122-0.21,1.691-0.121c0.557,0.08,1.147,0.308,1.495,0.763c-0.554-0.084-1.029-0.042-1.509,0.017
									c-0.476,0.072-0.945,0.164-1.401,0.301c-0.462,0.12-0.904,0.295-1.337,0.491
									C104.455,139.851,104.044,140.085,103.643,140.478z"/>
							</g>
							<g>
								<path d="M114.987,139.197c0.366-0.339,0.938-0.424,1.434-0.326c0.509,0.089,0.962,0.346,1.344,0.665
									c0.37,0.334,0.681,0.739,0.853,1.217c0.175,0.459,0.224,1.047-0.064,1.463c-0.139-0.469-0.377-0.776-0.621-1.09
									c-0.256-0.301-0.525-0.586-0.823-0.835c-0.287-0.262-0.602-0.484-0.936-0.682
									C115.833,139.419,115.473,139.265,114.987,139.197z"/>
							</g>
							<path d="M106.025,146.94c-0.22,0.935-0.917,1.571-1.555,1.42c-0.639-0.15-0.98-1.03-0.761-1.963
								c0.22-0.934,0.916-1.571,1.556-1.42C105.904,145.126,106.244,146.006,106.025,146.94z"/>
							<path d="M117.333,149.258c-0.22,0.934-0.916,1.57-1.556,1.42c-0.639-0.15-0.979-1.03-0.76-1.964
								c0.219-0.934,0.916-1.57,1.556-1.42C117.213,147.444,117.553,148.324,117.333,149.258z"/>
						</g>
					</g>
					<g>
						<g>
							<g>
								<path style="fill:#BABABA;" d="M76.014,392.485c2.313,0.56,4.619,0.967,7.131,0.762c2.398-0.195,4.579-0.689,6.841-1.41
									c2.069-0.598,4.245-1.092,6.314-1.688c1.802-0.598,3.579-1.566,5.365-2.338l0.113,1.543c0,0-21.658,7.49-26.392,5.063
									C75.386,394.417,74.475,393.364,76.014,392.485z"/>
							</g>
							<path style="fill:#373A3A;" d="M101.495,385.491l-0.098-1.328c-0.026-0.518-0.057-1.086-0.082-1.678
								c-0.046-0.94-0.093-1.979-0.145-3.09l-9.293,0.76c-0.051,1.342-0.195,2.182-0.459,2.41c-0.11,0.094-0.253,0.207-0.421,0.338
								c-1.603,1.26-5.872,4.184-9.586,6.506c-2.039,1.277-3.914,2.377-5.076,2.912c-0.119,0.051-0.221,0.109-0.322,0.164
								c2.313,0.56,4.619,0.967,7.131,0.762c0.429-0.035,0.846-0.088,1.261-0.145c1.914-0.246,3.722-0.678,5.58-1.266
								c2.069-0.598,4.245-1.092,6.314-1.688c1.802-0.598,3.579-1.566,5.365-2.338L101.495,385.491z"/>
						</g>
						<g>
							<g>
								<path style="fill:#BABABA;" d="M139.732,392.438c-2.311,0.568-4.616,0.986-7.128,0.789c-2.4-0.188-4.583-0.672-6.847-1.385
									c-2.071-0.59-4.249-1.072-6.32-1.664c-1.803-0.588-3.584-1.551-5.373-2.316l-0.108,1.545c0,0,21.683,7.406,26.409,4.961
									C140.366,394.368,141.275,393.311,139.732,392.438z"/>
							</g>
							<path style="fill:#373A3A;" d="M139.41,392.276c-1.163-0.533-3.043-1.623-5.086-2.893c-3.721-2.307-8-5.217-9.608-6.467
								c-0.169-0.133-0.312-0.248-0.422-0.34c-0.264-0.227-0.412-1.068-0.466-2.408l-9.295-0.725
								c-0.048,1.111-0.091,2.15-0.134,3.09c-0.023,0.594-0.052,1.162-0.078,1.68l-0.092,1.328l-0.163,2.32
								c1.789,0.766,3.57,1.729,5.373,2.316c2.071,0.592,4.249,1.074,6.32,1.664c1.86,0.582,3.669,1.01,5.585,1.246
								c0.415,0.055,0.832,0.105,1.262,0.139c2.512,0.197,4.816-0.221,7.128-0.789C139.63,392.382,139.528,392.325,139.41,392.276z"
								/>
						</g>
						<g>
							<g>
								<g>
									<path style="fill:#A2CDDD;" d="M128.826,244.255c0,0-2.077,65.646-2.077,78.324c0,0,0.819,58.254,0.248,60.268
										c-2.691,0.451-8.371,1.42-14.281-0.125l-5.909-112.079l-1.878-0.814l-1.34,111.715c0,0-9.913,3.998-13.634-0.078
										c0,0-1.548-38.561-1.787-44.996c-0.239-6.445-5.153-86.779-3.439-92.215H128.826z"/>
								</g>
								<g>
									<g>
										<path style="fill:#86AAB5;" d="M91.256,248.349c0.302,1.048,0.321,2.173,0.178,3.261
											c-0.137,1.094-0.459,2.155-0.876,3.168c-0.435,1.006-0.968,1.969-1.62,2.845c-0.646,0.878-1.394,1.687-2.274,2.328
											c1.148-1.834,2.166-3.643,2.973-5.562C90.453,252.475,91.038,250.501,91.256,248.349z"/>
									</g>
									<g>
										<path style="fill:#86AAB5;" d="M122.121,248.62c0.29,2.058,0.969,3.904,1.877,5.677c0.901,1.777,2.015,3.426,3.226,5.116
											c-0.89-0.549-1.669-1.264-2.355-2.055c-0.691-0.789-1.274-1.672-1.762-2.608c-0.47-0.944-0.844-1.946-1.033-2.991
											C121.88,250.721,121.854,249.634,122.121,248.62z"/>
									</g>
									<g>
										<path style="fill:#86AAB5;" d="M105.286,249.43c0.334,2.777,0.218,5.536,0.306,8.265c0.023,1.365,0.086,2.724,0.242,4.062
											c0.088,0.666,0.197,1.33,0.404,1.96c0.187,0.638,0.502,1.241,1.089,1.632c-0.7-0.183-1.193-0.82-1.539-1.437
											c-0.339-0.64-0.561-1.325-0.721-2.015c-0.325-1.382-0.432-2.786-0.473-4.179c-0.021-1.395,0.029-2.784,0.157-4.164
											C104.86,252.171,105.078,250.805,105.286,249.43z"/>
									</g>
									<g>
										<path style="fill:#86AAB5;" d="M107.465,247.294c0.204,1.822,0.443,3.629,0.596,5.45c0.171,1.819,0.275,3.647,0.313,5.482
											c0.018,1.834-0.027,3.676-0.245,5.508c-0.206,1.828-0.594,3.656-1.28,5.362c0.309-1.809,0.427-3.615,0.502-5.422
											c0.056-1.808,0.059-3.619,0.023-5.433C107.351,254.615,107.117,250.958,107.465,247.294z"/>
									</g>
									<g>
										<path style="fill:#86AAB5;" d="M100.184,268.589c2.568-0.13,5.145,0.313,7.594,1.079c2.448,0.79,4.773,1.871,6.945,3.238
											c-2.49-0.643-4.851-1.541-7.247-2.285C105.088,269.842,102.668,269.242,100.184,268.589z"/>
									</g>
									<g>
										<path style="fill:#86AAB5;" d="M109.877,273.444c1.138,0.586,2.062,1.415,2.874,2.356c0.786,0.956,1.464,2.048,1.718,3.31
											c-0.942-0.864-1.701-1.757-2.483-2.667C111.229,275.516,110.458,274.588,109.877,273.444z"/>
									</g>
								</g>
							</g>
							<g>
								<path style="fill:#2E2F33;" d="M128.826,243.171v4.152c0,0-28.101,4.199-44.474-0.518l-0.142-5.127
									C84.21,241.678,100.165,246.385,128.826,243.171z"/>
								<path style="fill:#A2CDDD;" d="M122.677,249.516c0.057-0.259,0-8.266,0-8.266l-1.875,1.428v7.506L122.677,249.516z"/>
								<polyline style="fill:#A2CDDD;" points="92.078,250.24 92.078,241.974 89.79,241.974 89.79,250.907 91.62,250.907 								
									"/>
							</g>
						</g>
					</g>
					<g>
						<g>
							<g>
								<path style="fill:#C1946F;" d="M127.519,196.371c1.098,2.744,2.378,5.306,3.659,8.05c1.281,3.11,3.293,9.331,6.22,11.343
									c3.293,2.379,6.952-4.208,8.599-6.769c2.378-4.208,5.122-7.867,7.684-11.892c1.83-2.561,3.842-5.123,5.306-7.867
									c1.646-3.477-0.366-4.757-3.477-2.378c-5.488,4.208-10.428,9.879-15.185,14.819c-2.196-2.013-3.659-6.586-5.122-8.599
									L127.519,196.371z"/>
							</g>
							<g>
								<path style="fill:#C1946F;" d="M154.321,187.799c0.914-1.464,1.099-3.686,3.294-4.326c2.196-0.732,6.587,0.731,8.507,1.92
									c0.366-1.372,2.928-9.696,4.666-9.056c2.104,0.823-0.915,7.775-1.098,9.331c1.006-1.83,1.921-3.568,2.744-5.397
									c0.366-0.732,1.738-4.025,3.019-3.659c2.104,0.549-2.379,8.874-2.744,10.428c1.372-1.555,2.012-3.842,3.019-5.671
									c0.457-0.823,2.012-5.031,3.202-3.751c0.823,0.915-0.576,4.21-0.85,5.217c-0.732,1.921-1.436,3.749-2.443,5.578
									c0,0,1.948-4.292,3.385-7.226c0.524-1.071,1.464-1.738,1.921-0.274c0.275,1.098-0.548,2.744-0.914,3.75
									c-0.641,1.647-1.83,6.038-3.477,6.861c-1.738,1.006-5.122-0.091-6.952-0.366c-2.378-0.366-4.849-0.274-7.136-0.732
									c-1.372-0.183-4.024-0.183-5.031-0.823L154.321,187.799z"/>
							</g>
						</g>
						<g>
							<g>
								<path style="fill:#C1946F;" d="M85.129,196.371c-1.098,2.744-2.378,5.306-3.659,8.05c-1.281,3.11-3.294,9.331-6.221,11.343
									c-3.293,2.379-6.952-4.208-8.599-6.769c-2.378-4.208-5.122-7.867-7.684-11.892c-1.829-2.561-3.842-5.123-5.306-7.867
									c-1.646-3.477,0.366-4.757,3.477-2.378c5.489,4.208,10.429,9.879,15.185,14.819c2.195-2.013,3.659-6.586,5.123-8.599
									L85.129,196.371z"/>
							</g>
							<g>
								<path style="fill:#C1946F;" d="M58.326,187.799c-0.914-1.464-1.098-3.686-3.294-4.326c-2.195-0.732-6.586,0.731-8.507,1.92
									c-0.366-1.372-2.927-9.696-4.665-9.056c-2.104,0.823,0.915,7.775,1.098,9.331c-1.006-1.83-1.921-3.568-2.745-5.397
									c-0.366-0.732-1.738-4.025-3.019-3.659c-2.104,0.549,2.378,8.874,2.744,10.428c-1.372-1.555-2.013-3.842-3.019-5.671
									c-0.458-0.823-2.012-5.031-3.202-3.751c-0.823,0.915,0.575,4.21,0.85,5.217c0.732,1.921,1.438,3.749,2.444,5.578
									c0,0-1.948-4.292-3.385-7.226c-0.524-1.071-1.464-1.738-1.921-0.274c-0.274,1.098,0.549,2.744,0.915,3.75
									c0.64,1.647,1.83,6.038,3.476,6.861c1.738,1.006,5.123-0.091,6.952-0.366c2.378-0.366,4.849-0.274,7.135-0.732
									c1.372-0.183,4.025-0.183,5.031-0.823L58.326,187.799z"/>
							</g>
						</g>
						<g>
							<g>
								<g>
									<path style="fill:#F4DC76;" d="M126.421,234.974c-0.366-2.012,0.915-3.292,1.098-5.123c0-2.012-1.281-3.476-2.013-5.305
										c-0.731-2.013-0.731-3.476-0.731-5.489c-0.183-6.586-1.281-13.904-0.732-20.491c4.94,1.098,9.879-3.11,13.539-5.854
										c-4.208-4.94-5.855-11.526-10.063-16.466c-3.52-4.022-8.456-1.409-13.039-0.115l-9.179,12.556
										c0,0-3.844-8.161-7.048-12.885c-3.353-0.979-5.938-1.62-9.337-2.667c-4.939-1.646-6.769,3.11-8.782,7.135
										c-2.012,3.842-3.659,7.867-5.854,11.526c-0.549,1.098-0.915,2.196-1.83,3.11c3.11,3.476,8.964,5.489,13.721,5.489
										c0.549,7.684,1.647,17.747-1.463,24.516c-1.463,3.111-0.549,3.476,0.183,6.221c0.732,2.743-0.366,3.659-1.28,5.854
										c-1.098,2.561-3.11,10.063-1.281,11.709c1.281,1.098,6.038,1.279,7.867,1.463c2.745,0.366,5.489,0.549,8.05,0.732
										c5.489,0.548,10.611,0,16.1-0.55c4.025-0.548,8.05-0.915,12.258-1.464c2.744-0.549,2.744,0.184,3.293-2.193
										c0.366-1.648,0.366-5.124-0.183-6.771C128.982,237.901,126.97,236.987,126.421,234.974z"/>
								</g>
							</g>
							<g>
								<g>
									<path style="fill:#B7A767;" d="M120.785,226.143c-0.309,0.583-0.834,1.01-1.383,1.371
										c-0.573,0.321-1.174,0.598-1.796,0.807c-1.24,0.434-2.522,0.724-3.806,0.973c-1.285,0.243-2.581,0.417-3.86,0.621
										c-1.266,0.221-2.558,0.461-3.826,0.715c-2.551,0.519-5.1,1.035-7.75,1.287c-1.326,0.079-2.611,0.073-3.831,0.306
										c-1.21,0.214-2.34,0.762-2.748,1.798l-0.177-0.606c1.022,0.637,2.33,0.975,3.625,1.194
										c1.304,0.223,2.637,0.339,3.973,0.406c2.676,0.138,5.367,0.03,8.053-0.099c2.687-0.148,5.373-0.402,8.04-0.784
										c1.336-0.177,2.668-0.385,3.988-0.653c1.313-0.287,2.643-0.562,3.877-1.118c-1.188,0.658-2.511,1.027-3.815,1.381
										c-1.312,0.344-2.638,0.629-3.97,0.883c-2.669,0.478-5.36,0.825-8.063,1.069c-2.703,0.247-5.423,0.326-8.149,0.236
										c-1.363-0.053-2.728-0.155-4.092-0.372c-1.356-0.23-2.744-0.511-4.023-1.322c-0.201-0.127-0.274-0.379-0.184-0.591
										l0.007-0.015c0.296-0.696,0.851-1.292,1.489-1.653c0.637-0.371,1.324-0.563,1.995-0.685
										c1.346-0.24,2.679-0.213,3.949-0.276c2.538-0.205,5.104-0.723,7.672-1.129c1.293-0.213,2.568-0.405,3.873-0.587
										c1.298-0.158,2.587-0.298,3.871-0.479c1.283-0.176,2.562-0.391,3.803-0.748C118.74,227.708,120.04,227.245,120.785,226.143
										z"/>
								</g>
								<g>
									<path style="fill:#B7A767;" d="M92.758,237.535c0.857,1.131,2,1.979,3.266,2.528c1.253,0.578,2.606,0.917,3.975,1.119
										c2.74,0.392,5.56,0.368,8.337,0.215c2.735-0.217,5.479-0.901,8.035-1.939c1.277-0.527,2.5-1.204,3.533-2.11
										c1.051-0.876,1.876-2.067,2.127-3.472c-0.02,1.437-0.796,2.79-1.79,3.828c-1.023,1.034-2.262,1.819-3.55,2.454
										c-2.598,1.252-5.402,1.983-8.287,2.237c-2.85,0.131-5.715,0.132-8.541-0.458c-1.403-0.302-2.794-0.74-4.06-1.439
										C94.557,239.779,93.426,238.794,92.758,237.535z"/>
								</g>
								<g>
									<path style="fill:#B7A767;" d="M86.296,183.505c0.403,3.147,0.805,6.244,1.106,9.388c0.271,3.135,0.442,6.338-0.058,9.485
										l-0.938-9.395C86.138,189.852,85.912,186.667,86.296,183.505z"/>
								</g>
								<g>
									<path style="fill:#B7A767;" d="M81.752,189.447c0.983,0.758,1.751,1.643,2.443,2.619c0.661,0.985,1.249,2.079,1.401,3.323
										c-0.864-0.89-1.548-1.797-2.225-2.756C82.725,191.662,82.084,190.651,81.752,189.447z"/>
								</g>
								<g>
									<path style="fill:#B7A767;" d="M125.092,184.903c0.354,2.166,0.329,4.336,0.255,6.486c-0.105,2.153-0.26,4.284-0.605,6.446
										c-0.449-2.15-0.47-4.333-0.394-6.488C124.456,189.187,124.657,187.049,125.092,184.903z"/>
								</g>
							</g>
						</g>
					</g>
				</g>
			</g>
			<g>
				<path style="opacity:0.2;fill:#0be88f;" d="M460.122,390.212c0,7.703-24.316,13.948-54.31,13.948
					c-29.996,0-54.313-6.245-54.313-13.948c0-7.703,24.316-13.948,54.313-13.948C435.805,376.263,460.122,382.509,460.122,390.212z"
					/>
				<g>
					<g>
						<g>
							<path style="fill:#FFC9AE;" d="M412.876,163.993c0-4.348,0.189-9.831-0.756-13.99l0,0l0,0
								c8.317-2.08,10.964-14.746,10.02-21.93c-1.135-8.319-10.775-17.583-19.474-12.667c-5.481,3.214-5.104,12.856-7.184,18.338
								c-1.134,3.025-1.512,5.482-0.189,8.696c1.323,2.836,3.024,6.239,6.238,6.617c0,4.537-1.701,9.642-2.458,13.989
								L412.876,163.993z"/>
						</g>
						<g>
							<path style="fill:#FFC9AE;" d="M420.122,137.841c2.899-1.764,5.924-0.126,6.303,3.151c0.505,4.411-6.933,6.932-8.571,2.646
								L420.122,137.841z"/>
						</g>
						<g>
							<path style="fill:#825D44;" d="M420.753,137.967c3.402-3.781,7.939-6.176,9.83-11.469c2.395-6.176-4.537-7.94-9.453-8.066
								c-0.755-5.671-4.032-13.737-11.216-10.965c-1.513,0.504-2.899,1.135-4.286,1.891c-0.756,0.378-2.897,2.395-3.781,2.269
								c-2.143-0.378-4.284-7.31-7.057-6.176c-2.395,0.882-0.505,6.176,0.125,7.436c1.261,2.521,3.782,5.42,6.429,6.428
								c5.419,1.89,11.469-0.378,16.888,0.126c0.253,3.025-0.63,8.066,3.277,9.326L420.753,137.967z"/>
						</g>
						<g>
							<g>
								<path style="fill:#DD9778;" d="M409.409,145.781c-0.448-0.332-0.884-0.507-1.338-0.678
									c-0.456-0.157-0.918-0.303-1.394-0.428c-0.951-0.275-1.914-0.501-2.939-0.91c0.521-0.205,1.066-0.27,1.605-0.27
									c0.541-0.004,1.077,0.077,1.605,0.218c0.521,0.158,1.04,0.37,1.497,0.708C408.894,144.746,409.316,145.219,409.409,145.781z
									"/>
							</g>
							<g>
								<path style="fill:#DD9778;" d="M408.905,130.909c-0.057,0.659-0.365,1.295-0.781,1.839
									c-0.432,0.534-0.971,0.964-1.516,1.338c-1.079,0.756-2.237,1.346-2.908,2.269c-0.343,0.454-0.593,0.982-0.457,1.343
									c0.082,0.399,0.609,0.755,1.138,1.039c1.091,0.567,2.392,0.93,3.516,1.625c-1.262-0.334-2.556-0.413-3.837-0.914
									c-0.614-0.25-1.36-0.576-1.712-1.442c-0.182-0.425-0.097-0.891,0.018-1.265c0.139-0.363,0.316-0.691,0.533-0.983
									c0.913-1.18,2.197-1.733,3.301-2.334C407.311,132.829,408.384,132.149,408.905,130.909z"/>
							</g>
							<path style="fill:none;stroke:#664A36;stroke-linecap:round;stroke-linejoin:round;stroke-miterlimit:10;" d="
								M416.594,127.128c-0.253-1.134-1.387-1.765-2.521-1.89"/>
							<path style="fill:none;stroke:#664A36;stroke-linecap:round;stroke-linejoin:round;stroke-miterlimit:10;" d="
								M406.511,122.912c-0.884-0.756-2.268-0.882-3.278-0.252"/>
							<path d="M414.802,133.459c-0.227,0.966-0.945,1.623-1.606,1.467c-0.661-0.155-1.013-1.064-0.785-2.029
								c0.228-0.966,0.946-1.623,1.606-1.468C414.678,131.585,415.03,132.494,414.802,133.459z"/>
							<path d="M403.913,131.19c-0.227,0.965-0.946,1.622-1.607,1.467c-0.661-0.156-1.012-1.064-0.786-2.03
								c0.227-0.965,0.948-1.623,1.608-1.467C403.787,129.316,404.138,130.225,403.913,131.19z"/>
						</g>
					</g>
					<g>
						<g>
							<g>
								<path style="fill:#FFC9AE;" d="M380.16,249.463c-1.281,4.572-1.647,10.609-0.549,15.367
									c0.366,1.83,2.928,10.977,5.489,10.611c2.561-0.365-1.098-8.598-1.465-10.246c-0.73-4.574,8.966-15.916-0.73-17.197
									L380.16,249.463z"/>
							</g>
							<path style="fill:#DD9778;" d="M381.989,263.551c0.55,2.012,0.732,4.207,1.281,6.402c0.55,2.744,2.927,7.867,3.842,2.563
								c0.732-4.393,0.366-14.272-1.646-17.932L381.989,263.551z"/>
							<g>
								<path style="fill:#FFC9AE;" d="M382.721,254.951c0,3.109-0.732,7.318,0.184,10.244c0.915,3.477,2.378,2.563,2.743-0.549
									c0.184-1.645,0.184-4.391-0.365-5.854l0,0l0,0c2.195-1.83,4.757-9.879,1.464-11.526"/>
								<path style="fill:#DD9778;" d="M382.721,254.951c0.114,1.856,0.008,3.72,0.021,5.558c-0.003,1.845,0.161,3.655,0.822,5.318
									c0.142,0.407,0.357,0.799,0.578,1.019c0.119,0.097,0.172,0.12,0.18,0.093c0.033-0.025,0.151-0.085,0.242-0.253
									c0.391-0.629,0.546-1.562,0.624-2.43c0.117-1.774,0.152-3.69-0.344-5.3l-0.005-0.017c-0.058-0.188,0.005-0.385,0.144-0.508
									c0.692-0.607,1.23-1.541,1.679-2.46c0.451-0.932,0.826-1.916,1.072-2.931c0.244-1.013,0.396-2.055,0.348-3.091
									c-0.054-1.017-0.401-2.103-1.335-2.684c1.025,0.43,1.545,1.582,1.702,2.642c0.181,1.088,0.083,2.194-0.107,3.265
									c-0.191,1.075-0.514,2.121-0.929,3.138c-0.441,1.007-0.942,1.996-1.829,2.841l0.138-0.524
									c0.359,0.968,0.439,1.923,0.502,2.872c0.048,0.95,0.044,1.895-0.047,2.844c-0.114,0.958-0.226,1.924-0.816,2.883
									c-0.143,0.23-0.391,0.502-0.79,0.626c-0.221,0.059-0.435,0.035-0.635-0.042c-0.165-0.078-0.334-0.186-0.431-0.297
									c-0.418-0.451-0.607-0.922-0.766-1.386c-0.668-1.823-0.669-3.794-0.562-5.636
									C382.288,258.628,382.585,256.802,382.721,254.951z"/>
							</g>
						</g>
						<g>
							<g>
								<path style="fill:#BA4949;" d="M388.321,161.523c-7.074,2.682-9.757,11.465-10.489,18.782
									c-0.488,5.123,0.244,10.491,0,15.613c0,2.927-0.732,5.123-1.22,7.806c-0.244,1.22-0.976,2.683-0.732,3.903
									c0.244,1.708,1.464,2.439,1.952,3.903c0.488,3.171-1.708,4.879-1.952,7.562c-0.243,2.684,1.464,4.636,1.22,7.318
									c-0.487,4.635-3.901,9.758-1.463,14.635c0.732,1.221,2.195,0.489,2.684,1.709c0.487,0.975-0.244,2.928,0,3.904
									c0.487,3.169,0.487,3.414,3.659,4.146c6.342,1.218,6.099-2.683,5.366-7.563c6.342-2.196,2.684-20.734,2.44-25.857
									c-0.244-8.294-1.22-16.588-1.22-24.882L388.321,161.523z"/>
							</g>
							<g>
								<g>
									<path style="fill:#9B4343;" d="M378.839,243.272c1.468-0.406,2.984-0.317,4.43-0.156c1.456,0.192,2.853,0.457,4.308,0.855
										c-1.472,0.396-2.984,0.299-4.429,0.137C381.694,243.914,380.297,243.656,378.839,243.272z"/>
								</g>
								<g>
									<path style="fill:#9B4343;" d="M380.936,244.32c0.395,0.888,0.424,1.787,0.452,2.637c0.002,0.866-0.034,1.652-0.102,2.605
										c-0.693-0.703-0.876-1.704-0.897-2.594C380.395,246.057,380.542,245.195,380.936,244.32z"/>
								</g>
								<g>
									<path style="fill:#9B4343;" d="M385.13,244.67c0.394,0.699,0.483,1.398,0.5,2.097c-0.015,0.699-0.103,1.398-0.5,2.097
										c-0.396-0.699-0.485-1.398-0.5-2.097C384.647,246.068,384.736,245.369,385.13,244.67z"/>
								</g>
							</g>
						</g>
					</g>
					<g>
						<g>
							<g>
								<path style="fill:#805640;" d="M419.739,390.461c3.522-0.391,5.98-1.164,7.668-2.072l-0.126,1.746
									c0,0-7.456,2.434-17.397,3.139c-8.932,0.641-10.908,0.154-9.353-1.92C405.16,393.611,415.944,390.906,419.739,390.461z"/>
								<g>
									<path style="fill:#DEB255;" d="M404.303,388.031c-1.36,0.994-2.506,1.9-3.133,2.566c-0.258,0.277-0.462,0.518-0.639,0.756
										c2.246,1.092,5.941,1.016,9.58,0.603C408.5,390.113,406.316,388.466,404.303,388.031z"/>
									<path style="fill:#DEB255;" d="M427.862,381.865l-0.422-0.035c-1.925,1.684-4.323,4.92-4.733,8.143
										c1.981-0.41,3.541-0.961,4.7-1.584L427.862,381.865z"/>
									<path style="fill:#C69A46;" d="M414.886,381.318c0.157-0.828,0.134-3.748,0.171-6.029l-0.266,5.852
										c0,0-4.141,2.529-7.944,5.111l0.253,0.234C409.4,386.39,414.886,381.318,414.886,381.318z"/>
									<path style="fill:#B68939;" d="M420.112,383.469c0.157-0.234,0.355-5.041,0.615-8.709
										c-3.993,0.199-5.637-0.246-5.637-0.246l-0.034,0.775c-0.037,2.281-0.014,5.201-0.171,6.029c0,0-5.485,5.072-7.786,5.168
										l-0.253-0.234c-0.888,0.603-1.752,1.199-2.543,1.779c2.013,0.435,4.196,2.082,5.809,3.926
										c0.925-0.102,1.843-0.23,2.738-0.363c-0.078-0.867-0.174-1.822,0.12-2.555
										C414.049,386.388,418.456,385.898,420.112,383.469z"/>
									<path style="fill:#C69A46;" d="M427.44,381.83l0.422,0.035l0.564-7.982c-3.201,0.539-5.729,0.785-7.699,0.877
										c-0.26,3.668-0.458,8.475-0.615,8.709c-1.656,2.43-6.063,2.92-7.142,5.57c-0.294,0.732-0.198,1.688-0.12,2.555
										c2.841-0.438,5.405-0.965,6.889-1.133c1.105-0.119,2.067-0.295,2.968-0.488C423.117,386.75,425.516,383.513,427.44,381.83z
										"/>
								</g>
							</g>
							<g>
								<path style="fill:#805640;" d="M396.089,388.394c3.506-0.506,5.94-1.363,7.598-2.322l-0.072,1.748
									c0,0-7.373,2.68-17.287,3.713c-8.907,0.936-10.897,0.516-9.409-1.605C381.615,392.029,392.309,388.969,396.089,388.394z"/>
								<g>
									<path style="fill:#DEB255;" d="M380.584,386.48c-1.328,1.037-2.445,1.98-3.05,2.67c-0.25,0.281-0.446,0.529-0.616,0.777
										c2.28,1.014,5.969,0.814,9.594,0.283C384.844,388.42,382.609,386.845,380.584,386.48z"/>
									<path style="fill:#DEB255;" d="M403.936,379.535l-0.422-0.022c-1.872,1.746-4.167,5.061-4.478,8.297
										c1.969-0.479,3.51-1.078,4.65-1.738L403.936,379.535z"/>
									<path style="fill:#C69A46;" d="M390.951,379.416c0.131-0.83,0.015-3.748-0.02-6.029l-0.083,5.857
										c0,0-4.059,2.666-7.778,5.371l0.26,0.229C385.626,384.672,390.951,379.416,390.951,379.416z"/>
									<path style="fill:#B68939;" d="M396.241,381.396c0.148-0.24,0.198-5.053,0.342-8.727c-3.983,0.332-5.641-0.061-5.641-0.061
										l-0.011,0.777c0.034,2.281,0.15,5.199,0.02,6.029c0,0-5.325,5.256-7.621,5.428l-0.26-0.229
										c-0.869,0.633-1.714,1.26-2.486,1.865c2.025,0.365,4.26,1.94,5.928,3.73c0.922-0.135,1.834-0.291,2.727-0.455
										c-0.105-0.863-0.23-1.815,0.041-2.557C390.273,384.515,394.661,383.877,396.241,381.396z"/>
									<path style="fill:#C69A46;" d="M403.514,379.513l0.422,0.022l0.314-7.998c-3.183,0.645-5.703,0.975-7.668,1.133
										c-0.143,3.674-0.193,8.486-0.342,8.727c-1.58,2.48-5.968,3.119-6.962,5.803c-0.271,0.742-0.146,1.693-0.041,2.557
										c2.827-0.529,5.372-1.141,6.851-1.361c1.1-0.156,2.055-0.363,2.948-0.584C399.348,384.574,401.642,381.259,403.514,379.513
										z"/>
								</g>
							</g>
						</g>
						<g>
							<g>
								<g>
									<g>
										<path style="fill:#577B9C;" d="M429.997,243.596c0,0-1.194,62.675-1.194,75.369c0,0,0.735,60.711,0.15,62.727
											c0,0-9.838,1.926-14.734-0.879l-5.955-113.836l-2.862-1.685l-0.419,114.09c0,0-9.43,2.393-14.438-0.389
											c0,0-5.937-129.953-4.172-135.396H429.997z"/>
									</g>
								</g>
								<g>
									<g>
										<path style="fill:#466A84;" d="M395.732,261.913c1.397,0.371,2.78,0.701,4.164,1.045c1.387,0.334,2.782,0.696,4.156,1.178
											c1.368,0.495,2.703,1.12,3.926,1.913c1.232,0.778,2.348,1.714,3.365,2.738c-1.256-0.717-2.495-1.418-3.751-2.059
											c-1.262-0.632-2.547-1.187-3.877-1.65c-1.321-0.484-2.689-0.884-4.044-1.375
											C398.313,263.228,396.98,262.641,395.732,261.913z"/>
									</g>
									<g>
										<path style="fill:#466A84;" d="M401.79,246.068c0.194,1.022,0.221,2.052,0.254,3.062c0.034,1.012,0.04,2.014,0.112,2.998
											c0.059,0.981,0.164,1.961,0.461,2.842c0.29,0.871,0.906,1.629,1.969,1.816c-0.25,0.015-0.523,0.057-0.792,0.026
											c-0.249-0.085-0.56-0.103-0.778-0.282c-0.244-0.148-0.475-0.321-0.645-0.547c-0.207-0.205-0.335-0.45-0.467-0.694
											c-0.514-0.988-0.664-2.061-0.746-3.098C401.038,250.097,401.355,248.076,401.79,246.068z"/>
									</g>
									<g>
										<path style="fill:#466A84;" d="M405.518,246.068c0.57,3.238,0.778,6.506,0.866,9.772c0.058,3.267-0.005,6.537-0.4,9.801
											c-0.396-3.263-0.513-6.521-0.599-9.779C405.329,252.603,405.303,249.347,405.518,246.068z"/>
									</g>
									<g>
										<path style="fill:#466A84;" d="M425.674,245.019l0.626,33.812l0.497,33.814c0.08,11.273,0.183,22.546,0.14,33.82
											c-0.047,11.274-0.162,22.549-0.564,33.817l-0.07-16.908l-0.135-16.906l-0.37-33.812l-0.264-33.816
											C425.493,267.567,425.476,256.292,425.674,245.019z"/>
									</g>
									<g>
										<path style="fill:#466A84;" d="M419.732,246.417c0.349,1.774,0.709,3.454,1.254,5.081
											c0.266,0.811,0.594,1.595,0.994,2.337c0.411,0.738,0.902,1.426,1.596,2.019c-0.895-0.22-1.672-0.853-2.245-1.584
											c-0.587-0.735-0.99-1.586-1.294-2.454c-0.282-0.877-0.466-1.778-0.523-2.688
											C419.454,248.221,419.495,247.299,419.732,246.417z"/>
									</g>
									<g>
										<path style="fill:#466A84;" d="M386.878,252.709c0.279-0.475,0.41-0.927,0.572-1.397l0.461-1.419
											c0.347-0.941,0.707-1.92,1.414-2.776c0.048,1.095-0.134,2.105-0.471,3.107c-0.184,0.493-0.395,0.986-0.709,1.437
											C387.842,252.1,387.426,252.558,386.878,252.709z"/>
									</g>
									<g>
										<path style="fill:#466A84;" d="M397.013,271.582c0.206-1.067,0.869-1.958,1.666-2.641
											c0.816-0.665,1.795-1.152,2.878-1.203c-0.752,0.774-1.508,1.344-2.237,1.97
											C398.572,270.314,397.884,270.948,397.013,271.582z"/>
									</g>
									<g>
										<path style="fill:#466A84;" d="M414.839,324.009c0.718,0.339,1.202,0.876,1.627,1.453c0.399,0.596,0.74,1.237,0.82,2.042
											c-0.736-0.36-1.21-0.883-1.627-1.453C415.267,325.464,414.936,324.836,414.839,324.009z"/>
									</g>
								</g>
							</g>
							<g>
								<g>
									<path style="fill:#2E2F33;" d="M429.817,240.66v4.121c0,0-27.177,4.795-43.174,0.118v-4.801
										C386.643,240.097,401.812,243.85,429.817,240.66z"/>
								</g>
							</g>
							<g>
								<g>
									<path style="fill:#577B9C;" d="M421.874,247.381c0.058-0.262,0-8.195,0-8.195l-1.832,1.411v7.445L421.874,247.381z"/>
								</g>
							</g>
							<g>
								<g>
									<polyline style="fill:#577B9C;" points="391.454,247.381 391.454,239.186 389.217,239.186 389.217,248.042 
										391.007,248.042 									"/>
								</g>
							</g>
						</g>
					</g>
					<g>
						<g>
							<path style="fill:#9B4343;" d="M386.979,236.961c-1.645,1.28-2.754,4.025-2.387,5.854c0.914,4.574,5.498,4.392,9.705,4.574
								c8.05,0.732,16.466,1.281,24.516,1.281c2.929,0,8.781-0.183,10.978-2.561c1.464-1.464,1.83-8.965-1.28-8.783L386.979,236.961
								z"/>
						</g>
						<g>
							<path style="fill:#BA4949;" d="M388.627,239.704c-1.648-0.548-3.11-1.829-3.843-3.477c-1.28-2.378-0.731-4.756,0-7.134
								c0.914-3.111,0.914-4.025,0.184-6.953c-1.099-4.025,0-8.05,0-12.441c0-4.574,0.182-9.147,0-13.722
								c-0.184-8.049-0.732-16.283-1.281-24.15c-0.183-4.208,0-8.05,4.024-10.063c3.294-1.646,7.502-2.744,10.978-3.659
								c-0.183-1.281-0.183-2.562-0.365-3.842c0,0,8.05-1.281,12.258-1.281c1.098,0,5.123-0.548,5.854,0.183
								c1.28,1.098-0.366,4.94,0.732,6.221c0.548,0.549,4.39,0.915,5.488,1.281c1.829,0.732,4.208,1.097,5.854,2.195
								c4.391,2.744,4.939,8.965,5.306,13.539c0.915,10.246-0.549,21.223-1.28,31.468c-0.185,4.391-0.732,8.416-0.366,12.624
								c0.182,2.378,0.914,4.207,1.463,6.403c0.366,1.647,0.55,3.476,0.366,5.123c-1.463,9.33-12.807,8.05-19.941,7.684
								c-6.953-0.366-14.82-0.731-21.771,0.367L388.627,239.704z"/>
						</g>
						<g>
							<path style="fill:#BA4949;" d="M425.766,161.766c11.953,1.464,11.465,20.857,12.684,29.396c0.61,4.634,3.294,12.807,0,16.587
								c-5.731,6.342-11.83-0.122-14.392-5.61c-2.073-4.635-1.464-10.977-2.073-15.978c-0.366-2.684-0.732-5.245-1.099-7.928
								c-0.243-2.073-0.121-5.489-0.731-6.952"/>
						</g>
						<g>
							<g>
								<path style="fill:#9B4343;" d="M386.252,238.277c-0.636-0.556-1.18-1.237-1.55-2.013l0.003,0.006
									c-0.67-1.137-0.939-2.499-0.856-3.82c0.062-1.327,0.434-2.614,0.781-3.848c0.329-1.244,0.62-2.492,0.495-3.723
									c-0.112-1.25-0.529-2.44-0.809-3.764c-0.51-2.644-0.186-5.302,0.004-7.866c0.104-1.291,0.177-2.561,0.162-3.846
									c-0.002-1.3-0.005-2.599,0.026-3.895c0.049-2.593,0.101-5.181,0.061-7.763l-0.224-7.768
									c-0.136-5.182-0.25-10.367-0.265-15.56c0.411,5.17,0.722,10.35,1.012,15.531c0.155,2.592,0.293,5.178,0.376,7.778
									c0.069,2.603,0.046,5.203,0.026,7.795l-0.043,3.884c0.001,1.309-0.089,2.63-0.209,3.922
									c-0.229,2.584-0.547,5.155-0.111,7.641c0.21,1.219,0.614,2.515,0.689,3.861c0.089,1.373-0.275,2.689-0.647,3.928
									c-0.388,1.246-0.793,2.457-0.933,3.724c-0.147,1.257,0.032,2.56,0.62,3.704l0.003,0.005l0.001,0.001
									C385.183,236.962,385.655,237.677,386.252,238.277z"/>
							</g>
							<g>
								<path style="fill:#9B4343;" d="M427.771,164.282c-1.019,0.817-1.823,1.834-2.447,2.951
									c-0.648,1.101-1.153,2.285-1.569,3.497c-0.826,2.428-1.409,4.941-1.862,7.478c-0.469,2.536-0.786,5.104-1.09,7.676
									c-0.152,1.287-0.276,2.577-0.381,3.871c-0.139,1.292-0.22,2.588-0.339,3.887c-0.195-2.601-0.177-5.213-0.046-7.82
									c0.125-2.608,0.419-5.21,0.873-7.791c0.485-2.572,1.106-5.14,2.131-7.575c0.516-1.212,1.115-2.399,1.874-3.485
									C425.694,165.907,426.621,164.913,427.771,164.282z"/>
							</g>
							<g>
								<path style="fill:#9B4343;" d="M400.509,160.786c2.199,0.043,4.314,0.121,6.453,0.068c2.137-0.021,4.278-0.163,6.479-0.068
									c-2.089,0.689-4.265,1.016-6.462,1.067C404.787,161.877,402.557,161.606,400.509,160.786z"/>
							</g>
							<g>
								<path style="fill:#9B4343;" d="M402.256,155.893c0.351,0.558,0.448,1.037,0.52,1.535c0.042,0.501,0.052,0.989-0.17,1.611
									c-0.538-0.391-0.748-0.946-0.823-1.501C401.736,156.98,401.819,156.393,402.256,155.893z"/>
							</g>
							<g>
								<path style="fill:#9B4343;" d="M407.499,156.243c0.311,0.636,0.391,1.171,0.458,1.723c0.04,0.556,0.057,1.083-0.108,1.772
									c-0.584-0.418-0.816-1.058-0.887-1.679C406.919,157.434,407.026,156.778,407.499,156.243z"/>
							</g>
							<g>
								<path style="fill:#9B4343;" d="M414.14,154.495c0.005,0.968-0.086,1.776-0.163,2.63c-0.106,0.845-0.188,1.702-0.536,2.613
									c-0.445-0.865-0.544-1.795-0.458-2.721C413.094,156.103,413.413,155.156,414.14,154.495z"/>
							</g>
							<g>
								<path style="fill:#9B4343;" d="M381.285,183.505c0.588,1.411,1.07,2.761,1.62,4.102c0.263,0.672,0.552,1.33,0.848,1.987
									c0.306,0.654,0.625,1.294,1.027,1.95c-0.691-0.354-1.246-0.934-1.698-1.552c-0.46-0.621-0.809-1.308-1.104-2.011
									c-0.277-0.711-0.497-1.442-0.621-2.194C381.23,185.038,381.175,184.269,381.285,183.505z"/>
							</g>
							<g>
								<path style="fill:#9B4343;" d="M392.819,222.65c1.921,0.35,3.888,0.32,5.839,0.39l5.866,0.182
									c1.958,0.048,3.913,0.175,5.871,0.308c1.958,0.147,3.915,0.306,5.881,0.651c0.491,0.095,0.982,0.207,1.476,0.356
									c0.494,0.18,0.993,0.276,1.521,0.819c0.126,0.138,0.251,0.394,0.233,0.655c-0.006,0.154-0.032,0.2-0.049,0.27l-0.058,0.203
									c-0.062,0.275-0.21,0.522-0.331,0.774c-0.295,0.479-0.683,0.881-1.111,1.206c-0.87,0.632-1.854,0.985-2.831,1.237
									c-0.981,0.252-1.977,0.374-2.97,0.431c-1.985,0.114-3.96,0.011-5.915-0.219c-1.942-0.285-3.906-0.586-5.732-1.322
									c1.887,0.516,3.838,0.714,5.778,0.833c1.939,0.129,3.889,0.142,5.805-0.06c1.885-0.232,3.863-0.564,5.316-1.628
									c0.347-0.272,0.638-0.591,0.854-0.948c0.081-0.19,0.195-0.368,0.233-0.575l0.041-0.15c0.015-0.048,0.032-0.118,0.022-0.088
									c-0.001,0.017,0.016,0.03-0.021-0.011c-0.154-0.174-0.642-0.373-1.065-0.49c-0.444-0.128-0.91-0.225-1.38-0.312
									c-3.788-0.694-7.721-0.856-11.609-1.175l-5.853-0.46c-0.975-0.097-1.95-0.197-2.923-0.318
									C394.737,223.078,393.749,222.974,392.819,222.65z"/>
							</g>
						</g>
					</g>
					<g>
						<g>
							<path style="fill:#DD9778;" d="M407.837,155.302c0.243-3.781,0.366-9.879-4.635-9.514c-1.221,0.122-3.05,0.732-1.708,2.073
								c0.731,0.732,2.561-0.122,3.172,0.732c0.976,1.098,0.365,5.977,0.609,7.074v-0.122L407.837,155.302z"/>
							<g>
								<path style="fill:#FFC9AE;" d="M416.13,172.378c-2.927-2.805-4.147-7.562-5.609-11.343c-0.61-1.464-1.586-5.976-2.928-6.708
									c-0.976-0.488-6.708,0-7.318,0.732c-0.365,0.487-0.244,1.464,0,2.073c-1.951-0.366-1.342,1.83-0.854,2.927
									c-1.83-0.122,0.122,6.708,0.854,7.927c1.343,2.075,2.073,1.099,2.073-0.853c0-1.708-0.731-3.172-1.22-4.757
									c0.854,0.244,1.708,0.244,2.684,0.244c-0.122,3.171,2.561,7.441,5.977,7.196c0.488,1.708,1.463,3.903,1.951,5.123
									L416.13,172.378z"/>
							</g>
							<g>
								<path style="fill:#DD9778;" d="M398.781,160.571c-0.008-0.291,0.213-0.597,0.5-0.752c0.286-0.151,0.59-0.22,0.876-0.252
									c0.287-0.042,0.563-0.043,0.818-0.058l0.788-0.053c0.551-0.016,1.109,0.019,1.658,0.135c0.444,0.126,1.139,0.1,1.56,0.575
									c-0.548-0.053-1.008,0.21-1.618,0.22c-0.528,0.036-1.05,0.055-1.577,0.062c-0.256-0.012-0.524,0.022-0.83-0.016
									c-0.285-0.028-0.547-0.067-0.8-0.11C399.65,160.266,399.188,160.134,398.781,160.571z"/>
							</g>
							<g>
								<path style="fill:#DD9778;" d="M398.943,157.924c-0.105-0.311,0.143-0.689,0.443-0.852c0.297-0.172,0.617-0.261,0.926-0.307
									c0.327-0.06,0.587-0.05,0.878-0.092c0.295-0.025,0.596-0.023,0.892-0.026c1.191,0.043,2.314,0.246,3.467,0.644
									c-1.17,0.398-2.363,0.372-3.493,0.354l-0.849-0.033c-0.289-0.011-0.61-0.045-0.863-0.077
									c-0.269-0.021-0.535-0.044-0.783-0.013C399.315,157.548,399.083,157.632,398.943,157.924z"/>
							</g>
						</g>
						<g>
							<path style="fill:#BA4949;" d="M419.18,175.549c-1.587-1.951-2.196-4.757-5.246-3.171c-1.098,0.488-3.903,1.829-4.512,2.927
								c-0.977,1.951,1.219,3.049,1.828,4.757l0,0c-3.658,1.708,0.122,7.196,1.465,9.148c2.316,3.659,3.537,7.806,5.732,11.465
								c3.171,5.244,7.684,13.294,14.879,12.319c6.466-0.854,8.417-7.928,5.489-12.929c-3.048-5.245-6.708-10.246-10.123-15.124
								c-1.707-2.684-3.415-5.367-5.123-7.929C422.962,176.036,419.789,173.475,419.18,175.549L419.18,175.549z"/>
						</g>
						<g>
							<g>
								<path style="fill:#9B4343;" d="M436.672,196.555l-4.254-5.904c-1.408-1.974-2.838-3.932-4.207-5.932l-4.021-6.063
									l-1.001-1.5c-0.309-0.418-0.777-0.813-1.23-1.149c-0.869-0.66-2.225-1.258-2.362-0.337l-0.136,0.914l-0.618-0.762
									c-0.496-0.612-0.887-1.267-1.29-1.874c-0.4-0.598-0.828-1.18-1.355-1.427c-0.512-0.269-1.145-0.144-1.773,0.139
									c-0.659,0.298-1.332,0.615-1.972,0.958c-0.64,0.346-1.274,0.713-1.829,1.137c-0.272,0.209-0.539,0.443-0.7,0.668
									c-0.142,0.2-0.249,0.524-0.253,0.786c-0.035,0.546,0.323,1.11,0.772,1.681c0.439,0.571,0.968,1.185,1.273,2.005l0.16,0.432
									l-0.417,0.182c-0.739,0.323-1.187,0.934-1.25,1.716c-0.077,0.779,0.146,1.635,0.457,2.445
									c0.637,1.652,1.648,3.118,2.663,4.68c1.932,3.201,3.098,6.697,4.752,9.909c1.771,3.152,3.582,6.366,5.917,9.126
									c1.169,1.374,2.505,2.632,4.088,3.507c1.572,0.877,3.415,1.309,5.24,1.1c-1.809,0.312-3.715-0.029-5.359-0.872
									c-1.657-0.832-3.077-2.067-4.325-3.42c-1.246-1.363-2.319-2.868-3.331-4.399c-0.998-1.551-1.978-3.065-2.892-4.689
									c-1.791-3.236-2.968-6.734-4.855-9.787c-0.981-1.488-2.083-3.046-2.777-4.811c-0.341-0.884-0.628-1.839-0.539-2.889
									c0.03-0.523,0.237-1.053,0.545-1.513c0.171-0.211,0.375-0.402,0.572-0.587l0.677-0.412l-0.256,0.614
									c-0.219-0.586-0.671-1.13-1.132-1.735c-0.441-0.585-1.001-1.347-0.956-2.327c0.03-0.477,0.159-0.894,0.44-1.304
									c0.281-0.376,0.592-0.625,0.908-0.869c0.634-0.474,1.297-0.848,1.968-1.205c0.675-0.354,1.352-0.667,2.052-0.976
									c0.699-0.316,1.68-0.547,2.528-0.104c0.827,0.419,1.279,1.133,1.7,1.752c0.413,0.637,0.785,1.265,1.224,1.814l-0.754,0.152
									c0.131-0.347,0.326-0.774,0.778-0.964c0.418-0.175,0.84-0.139,1.176-0.046c0.687,0.189,1.227,0.544,1.739,0.925
									c0.504,0.399,0.974,0.799,1.378,1.364l0.98,1.548l3.871,6.152C431.359,188.448,434.038,192.489,436.672,196.555z"/>
							</g>
							<g>
								<path style="fill:#9B4343;" d="M411.693,179.66c0.414-1.063,1.264-1.844,2.163-2.444c0.922-0.577,1.948-1.008,3.08-1.051
									c-0.82,0.773-1.68,1.322-2.538,1.891C413.523,178.606,412.686,179.138,411.693,179.66z"/>
							</g>
							<g>
								<path style="fill:#9B4343;" d="M411.344,176.165c0.479,0.205,0.678,0.421,0.85,0.677c0.147,0.27,0.248,0.55,0.198,1.071
									c-0.526,0.027-0.848-0.238-1.054-0.555C411.156,177.027,411.07,176.614,411.344,176.165z"/>
							</g>
							<g>
								<path style="fill:#9B4343;" d="M413.79,173.719c0.491,0.258,0.704,0.546,0.884,0.869c0.153,0.336,0.255,0.68,0.165,1.228
									c-0.554-0.085-0.86-0.415-1.059-0.781C413.608,174.655,413.527,174.212,413.79,173.719z"/>
							</g>
							<g>
								<path style="fill:#9B4343;" d="M415.887,173.019c0.528,0.03,0.838,0.275,1.089,0.562c0.227,0.307,0.398,0.663,0.309,1.186
									c-0.555-0.06-0.85-0.286-1.089-0.562C415.981,173.91,415.825,173.572,415.887,173.019z"/>
							</g>
							<g>
								<path style="fill:#9B4343;" d="M433.013,190.495c0.641-0.394,1.282-0.483,1.922-0.5c0.641,0.015,1.282,0.103,1.922,0.5
									c-0.641,0.396-1.282,0.485-1.922,0.5C434.295,190.978,433.654,190.889,433.013,190.495z"/>
							</g>
						</g>
					</g>
				</g>
			</g>
			<g>
				<ellipse style="opacity:0.2;fill:#0be88f;" cx="208.142" cy="470.927" rx="60.312" ry="15.489"/>
				<g>
					<g>
						<g>
							<g>
								<g>
									<path style="fill:#FFC9AE;" d="M205.319,466.639l-0.035-1.64l-1.342-26.182c-1.199-23.083-4.283-37.488-3.566-40.238
										c0.047-0.182,10.812-60.706,10.812-60.706l-24.699-1.398c0,0-2.613,54.396-1.382,60.053
										c0.88,4.044,5.068,32.07,9.989,50.51l4.046,21.592L205.319,466.639z"/>
								</g>
								<g>
									<g>
										<g>
											<g>
												<path style="fill:#394042;" d="M200.993,465.25c0,0-0.261-6.413-2.101-7.681c-1.84-1.268-2.443,1.498-2.443,1.498
													c-0.257,2.344-0.591,3.767-1.017,4.034c-0.127,0.078-0.3,0.179-0.5,0.289c-1.885,1.044-6.841,3.418-11.128,5.259
													c1.658,0.958,2.598,2.429,2.72,4.166c2.086,0.012,4.076-0.167,6.139-0.51c2.303-0.317,4.702-0.521,6.993-0.839
													c2.012-0.351,4.04-1.084,6.06-1.626c0,0,0.23-3.593-0.329-5.65C205.389,464.19,203.675,465.052,200.993,465.25z"/>
											</g>
										</g>
										<g>
											<g>
												<g>
													<path style="fill:#EFF9FF;" d="M177.611,471.015c0.112-0.04,0.235-0.078,0.366-0.12
														c1.316-0.379,3.468-1.226,5.828-2.246c1.658,0.958,2.598,2.429,2.72,4.166c-0.454-0.004-0.909-0.008-1.374-0.032
														C182.431,472.644,180.015,471.905,177.611,471.015z"/>
												</g>
											</g>
										</g>
										<g>
											<g>
												<g>
													<path style="fill:#BABABA;" d="M177.611,471.015c2.405,0.89,4.82,1.628,7.541,1.768
														c2.597,0.134,4.999-0.067,7.512-0.479c2.303-0.317,4.702-0.521,6.993-0.839c2.012-0.351,4.04-1.084,6.06-1.626
														l-0.083,1.589c0,0-24.198,4.587-28.953,1.459C176.681,472.889,175.842,471.694,177.611,471.015z"/>
												</g>
											</g>
										</g>
									</g>
									<g>
										<g>
											<path style="fill:#EFF9FF;" d="M197.018,466.933c-0.162-0.008-0.318-0.096-0.405-0.247
												c-0.994-1.717-2.065-2.098-3.578-2.176c-0.275-0.014-0.486-0.249-0.472-0.524c0.014-0.275,0.249-0.487,0.524-0.473
												c1.521,0.078,3.106,0.457,4.388,2.67c0.138,0.238,0.056,0.544-0.181,0.682
												C197.207,466.917,197.111,466.938,197.018,466.933z"/>
										</g>
									</g>
									<g>
										<g>
											<path style="fill:#EFF9FF;" d="M194.899,468.16c-0.162-0.008-0.318-0.096-0.405-0.247
												c-0.994-1.717-2.065-2.098-3.578-2.176c-0.275-0.014-0.486-0.248-0.471-0.524c0.014-0.276,0.249-0.487,0.524-0.473
												c1.521,0.078,3.106,0.457,4.388,2.67c0.138,0.238,0.057,0.545-0.181,0.683
												C195.088,468.143,194.992,468.165,194.899,468.16z"/>
										</g>
									</g>
									<g>
										<g>
											<path style="fill:#EFF9FF;" d="M192.48,469.144c-0.162-0.008-0.318-0.096-0.405-0.248
												c-0.993-1.715-2.064-2.096-3.578-2.174c-0.275-0.014-0.486-0.248-0.471-0.524c0.014-0.275,0.249-0.487,0.523-0.473
												c1.522,0.078,3.108,0.456,4.389,2.67c0.138,0.238,0.056,0.543-0.182,0.681
												C192.669,469.127,192.573,469.149,192.48,469.144z"/>
										</g>
									</g>
								</g>
							</g>
							<g>
								<g>
									<path style="fill:#FFC9AE;" d="M238.519,351.491c0.308-5.305,0.832-10.823-0.512-15.961
										c-0.713-2.727-1.989-3.422-4.309-4.973c0,0-19.334-11.086-18.741,4.755c0.024,0.646,0.699,17.128,0.752,17.772
										c0.249,3.019,0.499,6.038,0.749,9.057c0.37,4.479,0.741,8.959,1.111,13.439c0.398,4.81,0.795,9.621,1.193,14.432
										c0.332,4.012,0.663,8.024,0.995,12.035c0.112,1.353,0.224,2.707,0.336,4.06c0.037,0.452,0.077,0.903,0.112,1.355
										c0.012,0.156,0.047,0.324,0.04,0.48c-0.04,0.906,0.128,1.62,0.232,2.53c0.287,2.5,6.871,53.977,7.231,57.411
										c0.142,1.352-0.828,3.704-0.687,5.056l7.405-1.839l0.552-2.457c0.067-5.183-0.19-31.142-0.206-35.958
										c-0.023-7.48-1.509-22.029-1.99-24.523c-0.555-2.909,5.368-49.219,5.665-55.323
										C238.468,352.389,238.493,351.941,238.519,351.491z"/>
								</g>
								<g>
									<g>
										<g>
											<g>
												<path style="fill:#394042;" d="M230.324,469.078c0,0-0.282-6.413-2.126-7.678c-1.844-1.266-2.438,1.501-2.438,1.501
													c-0.249,2.345-0.579,3.768-1.004,4.036c-0.127,0.078-0.299,0.179-0.499,0.29c-1.881,1.047-6.83,3.429-11.11,5.277
													c1.66,0.955,2.605,2.425,2.733,4.162c2.086,0.008,4.075-0.173,6.136-0.52c2.302-0.32,4.7-0.528,6.99-0.85
													c2.011-0.354,4.036-1.09,6.055-1.635l0.116-2.369l0.068-1.373c0.017-0.227,0.081-1.083,0.158-2.104
													C235.405,467.816,233.006,468.875,230.324,469.078z"/>
											</g>
										</g>
										<g>
											<g>
												<g>
													<path style="fill:#EFF9FF;" d="M206.962,474.881c0.112-0.04,0.235-0.079,0.366-0.12
														c1.315-0.381,3.464-1.232,5.82-2.256c1.66,0.955,2.605,2.425,2.733,4.162c-0.454-0.003-0.909-0.006-1.373-0.03
														C211.787,476.501,209.37,475.767,206.962,474.881z"/>
												</g>
											</g>
										</g>
										<g>
											<g>
												<g>
													<path style="fill:#BABABA;" d="M206.962,474.881c2.407,0.886,4.825,1.621,7.546,1.756
														c2.597,0.13,4.999-0.074,7.51-0.49c2.302-0.32,4.7-0.528,6.99-0.85c2.011-0.354,4.036-1.09,6.055-1.635l-0.078,1.589
														c0,0-24.181,4.625-28.946,1.506C206.038,476.756,205.197,475.562,206.962,474.881z"/>
												</g>
											</g>
										</g>
									</g>
									<g>
										<g>
											<path style="fill:#EFF9FF;" d="M226.355,470.767c-0.162-0.008-0.318-0.096-0.406-0.247
												c-0.999-1.715-2.071-2.095-3.585-2.17c-0.275-0.014-0.487-0.248-0.473-0.523c0.014-0.275,0.247-0.487,0.522-0.473
												c1.521,0.076,3.107,0.452,4.397,2.663c0.138,0.238,0.058,0.544-0.179,0.683
												C226.544,470.751,226.448,470.772,226.355,470.767z"/>
										</g>
									</g>
									<g>
										<g>
											<path style="fill:#EFF9FF;" d="M224.24,471.998c-0.162-0.008-0.318-0.096-0.406-0.247
												c-0.999-1.716-2.071-2.095-3.585-2.17c-0.275-0.014-0.487-0.248-0.473-0.523c0.014-0.276,0.247-0.487,0.522-0.474
												c1.521,0.076,3.107,0.452,4.397,2.664c0.138,0.238,0.058,0.544-0.179,0.683
												C224.429,471.981,224.334,472.002,224.24,471.998z"/>
										</g>
									</g>
									<g>
										<g>
											<path style="fill:#EFF9FF;" d="M221.825,472.986c-0.162-0.008-0.318-0.096-0.406-0.248
												c-0.999-1.713-2.07-2.093-3.585-2.168c-0.275-0.014-0.487-0.248-0.473-0.523c0.014-0.275,0.247-0.487,0.522-0.474
												c1.522,0.076,3.109,0.451,4.396,2.664c0.138,0.238,0.058,0.543-0.18,0.682
												C222.014,472.969,221.918,472.99,221.825,472.986z"/>
										</g>
									</g>
								</g>
							</g>
						</g>
						<g>
							<path style="fill:#639AAC;" d="M244.115,360.422c-0.182-4.977-4.199-21.85-4.88-24.655
								c-4.526-18.648-7.044-26.025-8.354-27.667c-0.246-0.861-2.384,1.813-3.203,0.992c-22.488,6.148-31.215,2.48-34.945,1.015
								c-0.829,1.578-0.365-3.109-0.652-2.06c0.494-5.006-8.182,12.999-11.184,50.796c0,0,2.665,6.418,34.44,6.156
								C215.337,365,234.271,364.536,244.115,360.422z"/>
							<g>
								<g>
									<path style="fill:#4F7F99;" d="M191.904,312.857c3.034,0.905,6.133,1.478,9.253,1.765c3.122,0.273,6.26,0.321,9.392,0.156
										c3.133-0.143,6.257-0.499,9.372-0.939c1.558-0.219,3.113-0.476,4.662-0.772c1.559-0.25,3.1-0.592,4.658-0.879
										c-1.5,0.506-3.022,0.944-4.552,1.357c-1.534,0.395-3.082,0.738-4.638,1.052c-3.112,0.623-6.275,1.011-9.452,1.179
										c-3.177,0.143-6.377,0.068-9.531-0.393C197.917,314.932,194.799,314.151,191.904,312.857z"/>
								</g>
								<g>
									<path style="fill:#467F8C;" d="M227.499,309.446c1.923,4.088,3.181,8.45,4.397,12.788c1.2,4.35,2.175,8.754,3.148,13.156
										c0.891,4.419,1.767,8.842,2.482,13.293c0.686,4.452,1.428,8.912,1.623,13.424c-0.277-2.236-0.693-4.447-1.112-6.658
										c-0.402-2.214-0.826-4.423-1.268-6.629c-0.871-4.414-1.737-8.829-2.703-13.223c-0.889-4.409-1.877-8.798-2.913-13.172
										c-0.516-2.188-1.047-4.373-1.656-6.536C228.947,313.705,228.256,311.571,227.499,309.446z"/>
								</g>
								<g>
									<path style="fill:#467F8C;" d="M206.528,310.378c-0.124,2.249-0.047,4.505-0.03,6.758l0.062,6.763
										c0.001,2.257,0.038,4.507-0.06,6.78c-0.115,2.252-0.217,4.495-0.263,6.744c-0.073,4.495-0.122,8.99,0.042,13.491
										c0.077,4.502,0.254,9.009,0.25,13.523c-0.461-4.49-0.813-8.984-1.087-13.491c-0.2-4.508-0.346-9.033-0.159-13.55
										c0.08-2.258,0.219-4.517,0.365-6.765c0.129-2.23,0.195-4.488,0.257-6.739c0.067-2.252,0.099-4.507,0.196-6.76
										C206.209,314.88,206.226,312.617,206.528,310.378z"/>
								</g>
								<g>
									<path style="fill:#467F8C;" d="M183.227,357.446c2.263,1.088,4.669,1.823,7.103,2.383c1.214,0.293,2.44,0.54,3.665,0.771
										c1.237,0.178,2.462,0.424,3.706,0.545c1.244,0.116,2.48,0.296,3.725,0.386l3.737,0.259
										c2.498,0.055,4.995,0.152,7.494,0.045c2.5,0.019,4.996-0.171,7.493-0.303c2.497-0.149,4.979-0.492,7.477-0.674l7.453-0.973
										c2.477-0.385,4.95-0.804,7.438-1.161c-2.443,0.578-4.902,1.094-7.356,1.644l-7.439,1.253
										c-4.99,0.639-10.008,1.13-15.05,1.213c-5.036,0.078-10.095-0.14-15.081-0.93c-1.25-0.168-2.481-0.462-3.72-0.686
										c-1.229-0.281-2.458-0.568-3.669-0.917l-1.804-0.566l-1.774-0.653C185.461,358.605,184.294,358.116,183.227,357.446z"/>
								</g>
							</g>
						</g>
					</g>
					<g>
						<path style="fill:#FFC9AE;" d="M240.992,234.035l-4.391-3.903c-0.243-0.245-0.243-0.488-0.488-0.732l0,0
							c0.488-4.147,1.708-12.441-5.122-12.441c-0.244,4.391-0.732,9.514,0,13.661c0.732,4.391,4.147,5.367,7.318,8.294
							L240.992,234.035z"/>
					</g>
					<g>
						<g>
							<g>
								<g>
									<path style="fill:#9B4343;" d="M235.906,259.406c0.669-0.795,1.311-1.612,1.932-2.432c1.731-2.284,3.447-5.153,2.474-7.848
										c-0.633-1.753-2.344-3.138-2.348-5.001c-0.003-1.194,0.717-2.264,0.965-3.432c0.923-4.357-3.627-9.284-4.392-13.621
										c-0.961-5.455,0.139-10.919-1.338-16.37c-1.281-4.73-4.974-8.643-9.762-9.87c-2.167-0.555-4.483-0.072-6.592-0.738
										c-2.444-0.773-4.169-2.62-6.866-2.87c-13.473-1.249-14.743,10.955-15.97,21.269c-0.458,3.851-1.42,7.836-4.008,10.726
										c-1.089,1.216-2.428,2.192-3.495,3.427c-1.068,1.235-1.869,2.862-1.561,4.465c0.529,2.753,4.09,4.591,3.629,7.357
										c-0.267,1.605-1.805,2.618-3.093,3.612c-1.288,0.995-2.555,2.559-2.001,4.089c0.646,1.788,3.086,1.922,4.978,1.735
										c-0.94,3.165-0.088,6.798,2.159,9.216c-0.063-1.561,0.617-3.136,1.796-4.162c-0.159,2.494,0.244,5.44,2.417,6.676
										c2.33,1.325,5.239-0.091,7.913,0.105c2.05,0.15,3.893,1.251,5.857,1.86c2.895,0.899,5.999,0.714,9.024,0.521
										c3.045-0.194,6.143-0.4,8.998-1.478C230.339,265.237,233.322,262.48,235.906,259.406z"/>
								</g>
								<g>
									<path style="fill:#873333;" d="M226.551,226.215c0.299,1.187,0.937,2.209,1.389,3.374c0.463,1.166,0.489,2.545,0.134,3.766
										c-0.718,2.48-2.328,4.359-3.003,6.637c-0.216,0.557-0.361,1.044-0.241,1.475c0.105,0.43,0.469,0.903,0.838,1.346
										c0.376,0.454,0.817,0.931,1.14,1.529c0.333,0.593,0.466,1.306,0.443,1.958c-0.06,1.314-0.502,2.469-0.81,3.628
										c-0.327,1.131-0.623,2.374-0.01,3.472c-0.399-0.469-0.588-1.105-0.613-1.727c-0.033-0.626,0.047-1.247,0.144-1.854
										c0.221-1.202,0.56-2.386,0.518-3.516c-0.033-0.559-0.166-1.068-0.438-1.533c-0.273-0.465-0.676-0.878-1.093-1.339
										c-0.408-0.475-0.848-0.969-1.068-1.721c-0.212-0.766,0.043-1.51,0.252-2.069c0.759-2.402,2.423-4.348,3.207-6.514
										c0.4-1.089,0.47-2.251,0.132-3.391C227.203,228.586,226.627,227.447,226.551,226.215z"/>
								</g>
								<g>
									<path style="fill:#873333;" d="M217.847,204.038c1.122,0.864,2.527,1.12,3.798,1.751c1.263,0.636,2.431,1.45,3.48,2.41
										c2.037,1.977,3.624,4.431,4.467,7.185c0.417,1.365,0.585,2.876,0.371,4.306c-0.176,1.42-0.523,2.774-0.484,4.088
										c0.018,0.654,0.139,1.289,0.388,1.876c0.256,0.61,0.584,1.23,0.904,1.845c0.648,1.226,1.326,2.537,1.628,3.991
										c0.144,0.711,0.211,1.483,0.131,2.224c-0.052,0.746-0.239,1.45-0.425,2.145c-0.406,1.375-0.943,2.671-1.363,3.977
										c-0.427,1.298-0.727,2.639-0.525,3.907c0.033,0.319,0.161,0.614,0.25,0.917l0.449,0.883
										c0.162,0.329,0.35,0.645,0.486,0.984l0.36,1.036c0.751,2.862,0.094,5.803-0.971,8.39c-1.141,2.587-2.678,4.966-4.48,7.103
										c1.622-2.273,3.059-4.689,4.025-7.284c0.956-2.567,1.466-5.407,0.687-7.995l-0.359-0.933
										c-0.133-0.304-0.317-0.585-0.471-0.878c-0.151-0.268-0.347-0.654-0.514-0.979c-0.116-0.359-0.267-0.721-0.313-1.096
										c-0.255-1.511,0.086-2.983,0.508-4.328c0.822-2.682,2.163-5.282,1.546-7.871c-0.254-1.298-0.856-2.513-1.497-3.756
										c-0.317-0.627-0.64-1.247-0.918-1.928c-0.29-0.704-0.423-1.466-0.435-2.208c-0.022-1.493,0.359-2.874,0.535-4.221
										c0.201-1.34,0.092-2.669-0.252-3.99c-0.703-2.622-2.172-5.065-4.069-7.041c-0.962-0.979-2.064-1.84-3.263-2.526
										C220.329,205.356,218.902,204.989,217.847,204.038z"/>
								</g>
								<g>
									<path style="fill:#873333;" d="M218.086,202.846c1.146-0.033,2.297-0.032,3.454,0.133c1.152,0.158,2.323,0.515,3.348,1.167
										c1.04,0.637,1.872,1.55,2.53,2.545c0.657,1.002,1.109,2.076,1.592,3.092l-0.537-0.246c0.326-0.072,0.653-0.156,1.052-0.184
										c0.199-0.01,0.429-0.001,0.66,0.081c0.231,0.083,0.419,0.227,0.561,0.374c0.28,0.297,0.451,0.598,0.621,0.894
										c0.17,0.305,0.321,0.626,0.434,0.951c0.46,1.301,0.54,2.61,1.07,3.833c-0.787-1.088-1.107-2.451-1.664-3.584
										c-0.144-0.284-0.293-0.552-0.469-0.809c-0.179-0.262-0.37-0.52-0.562-0.687c-0.199-0.166-0.314-0.197-0.583-0.169
										c-0.26,0.031-0.573,0.12-0.886,0.209c-0.212,0.06-0.431-0.04-0.528-0.229l-0.009-0.017
										c-0.529-1.027-0.996-2.053-1.583-2.969c-0.588-0.91-1.311-1.737-2.186-2.352c-0.873-0.627-1.898-1.042-2.978-1.333
										C220.344,203.244,219.212,203.067,218.086,202.846z"/>
								</g>
								<g>
									<path style="fill:#873333;" d="M217.251,205.469c1.089,1.255,1.952,2.576,3.03,3.667c1.051,1.118,2.344,1.977,3.647,3.01
										c-1.621-0.305-3.175-1.092-4.365-2.315C218.391,208.592,217.635,207.074,217.251,205.469z"/>
								</g>
								<g>
									<path style="fill:#873333;" d="M213.436,203.442c-2.066,1.327-4.57,1.668-6.905,2.183
										c-2.339,0.467-4.753,1.065-6.451,2.654c-0.907,0.719-1.238,1.776-1.319,2.929c-0.074,1.137,0.038,2.395-0.026,3.604
										c-0.058,2.391-0.01,4.932-0.998,7.321c-1.005,2.315-2.613,4.186-3.376,6.377c-0.394,1.068-0.37,2.16,0.207,3.135
										c0.556,0.983,1.394,1.892,2.011,3.006c0.32,0.567,0.523,1.243,0.497,1.921c-0.017,0.682-0.263,1.303-0.531,1.864
										c-0.569,1.119-1.217,2.091-1.633,3.216c-0.45,1.103-0.789,2.259-0.969,3.442c-0.153,1.174-0.193,2.418,0.297,3.537
										c-0.592-1.075-0.653-2.36-0.56-3.567c0.109-1.219,0.382-2.42,0.773-3.583c0.374-1.171,1.035-2.255,1.519-3.31
										c0.23-0.533,0.414-1.076,0.404-1.612c-0.002-0.534-0.175-1.052-0.464-1.526c-0.595-0.983-1.45-1.846-2.098-2.966
										c-0.325-0.557-0.559-1.218-0.602-1.897c-0.049-0.68,0.087-1.346,0.288-1.956c0.825-2.413,2.43-4.327,3.317-6.471
										c0.915-2.112,0.929-4.548,1.01-6.955c0.08-1.207-0.021-2.37,0.074-3.648c0.051-0.628,0.17-1.281,0.447-1.892
										c0.262-0.609,0.73-1.168,1.224-1.54c1.964-1.685,4.511-2.184,6.874-2.562C208.831,204.787,211.267,204.564,213.436,203.442
										z"/>
								</g>
								<g>
									<path style="fill:#873333;" d="M200.917,210.715c0.43,0.097,0.785,0.11,1.153,0.144l1.092,0.077
										c0.364,0.039,0.731,0.06,1.103,0.109l1.182,0.146c-0.294,0.34-0.711,0.523-1.115,0.631c-0.41,0.114-0.832,0.136-1.25,0.11
										c-0.417-0.045-0.835-0.133-1.225-0.326C201.476,211.424,201.082,211.138,200.917,210.715z"/>
								</g>
								<g>
									<path style="fill:#873333;" d="M202.347,201.892c0.817-0.672,1.595-1.35,2.541-1.894c0.924-0.557,2.127-0.867,3.274-0.661
										c1.118,0.23,2.073,0.66,3.015,1.138c0.936,0.477,1.821,1.003,2.736,1.536c-1.054-0.14-2.064-0.482-3.041-0.818
										c-0.973-0.324-1.953-0.699-2.88-0.871c-0.915-0.176-1.839,0.005-2.766,0.376
										C204.3,201.066,203.364,201.582,202.347,201.892z"/>
								</g>
								<g>
									<path style="fill:#873333;" d="M202.586,239.45c-0.568,1.98-2.264,3.407-3.067,5.098c-0.447,0.837-0.395,1.666,0.007,2.521
										c0.369,0.855,0.959,1.703,1.3,2.757c0.3,1.044,0.369,2.126,0.201,3.187c-0.181,1.054-0.573,2.053-1.107,2.939
										c-0.552,0.9-1.131,1.64-1.517,2.548c-0.201,0.439-0.365,0.9-0.402,1.375c-0.029,0.466,0.12,0.962,0.531,1.274
										c-0.47-0.208-0.766-0.741-0.796-1.27c-0.039-0.53,0.065-1.051,0.207-1.549c0.286-0.989,0.854-1.913,1.291-2.75
										c0.877-1.72,1.19-3.675,0.637-5.461c-0.253-0.868-0.816-1.697-1.217-2.689c-0.194-0.497-0.345-1.055-0.327-1.641
										c0.002-0.582,0.238-1.164,0.505-1.604C199.904,242.321,201.666,241.264,202.586,239.45z"/>
								</g>
								<g>
									<path style="fill:#873333;" d="M199.247,224.069c-0.086,0.886-0.332,1.733-0.574,2.555
										c-0.238,0.825-0.508,1.627-0.692,2.431c-0.201,0.799-0.325,1.599-0.283,2.385c0.04,0.789,0.322,1.555,0.834,2.286
										c-0.79-0.406-1.405-1.236-1.604-2.163c-0.224-0.926-0.119-1.872,0.082-2.745
										C197.456,227.059,198.315,225.553,199.247,224.069z"/>
								</g>
								<g>
									<path style="fill:#873333;" d="M191.021,232.892c-0.391,0.311-0.751,0.649-0.932,1.047
										c-0.202,0.386-0.205,0.808-0.139,1.235c0.164,0.862,0.584,1.738,0.936,2.662c0.342,0.925,0.661,1.892,0.782,2.912
										c0.128,1.011,0.036,2.089-0.408,2.994c0.088-2.006-0.613-3.73-1.309-5.552c-0.319-0.911-0.741-1.848-0.776-2.951
										c-0.016-0.544,0.134-1.151,0.509-1.573C190.052,233.242,190.535,233.008,191.021,232.892z"/>
								</g>
							</g>
							<g>
								<path style="fill:#FFC9AE;" d="M208.382,247.638c0.528-2.109,0.635-4.323,0.91-6.56c-0.897-0.421-2.828-1.327-3.487-1.867
									c-6.084-4.768-4.531-9.621-4.531-16.692c0-3.14,1.478-8.731,2.978-11.228c3.728-0.292,7.32-1.794,9.721-4.595
									c2.325,5.331,6.906,6.742,10.688,9.372c0,3.314-0.252,8.269,2.231,10.882c-0.982,4.842-3.842,11.637-8.81,13.683
									c0.553,4.954,0.207,11.09,6.58,10.786l-1.701,9.702c-2.136,5.261-10.632,8.879-15.565,4.933
									c-3.125-2.631-4.44-9.045-4.769-12.99C206.079,252.078,207.559,251.256,208.382,247.638z"/>
							</g>
							<g>
								<g>
									<g>
										<path style="fill:#8E3838;" d="M220.9,219.318c-0.208-0.49-0.479-0.822-0.806-1.063c-0.328-0.235-0.698-0.414-1.102-0.538
											c-0.399-0.139-0.828-0.222-1.271-0.291c-0.447-0.057-0.899-0.092-1.426-0.082c0.359-0.395,0.882-0.611,1.406-0.698
											c0.529-0.092,1.077-0.041,1.603,0.122c0.515,0.18,1.026,0.482,1.362,0.961C221.015,218.193,221.118,218.833,220.9,219.318
											z"/>
									</g>
									<g>
										<path style="fill:#8E3838;" d="M209.719,218.003c-0.329,0.256-0.68,0.412-1.059,0.507
											c-0.377,0.101-0.786,0.118-1.202,0.045c-0.41-0.088-0.82-0.277-1.119-0.577c-0.303-0.291-0.508-0.66-0.566-1.072
											c0.766,0.336,1.277,0.564,1.878,0.669C208.244,217.711,208.942,217.714,209.719,218.003z"/>
									</g>
								</g>
								<g>
									<path style="fill:#DD9778;" d="M211.692,223.922c-0.009,0.499-0.269,1.004-0.617,1.378
										c-0.344,0.385-0.743,0.681-1.092,0.965l0.026-0.02c-0.215,0.204-0.473,0.337-0.69,0.43
										c-0.219,0.088-0.394,0.194-0.375,0.198c0.002-0.047-0.029,0.052,0.013,0.23c0.029,0.114,0.019,0.096,0.052,0.165
										c0.02,0.053,0.077,0.121,0.133,0.186c0.249,0.265,0.609,0.526,0.967,0.776c0.369,0.242,0.74,0.497,1.144,0.735
										c-0.476,0.028-0.946-0.064-1.398-0.198c-0.452-0.144-0.901-0.315-1.323-0.66c-0.105-0.092-0.212-0.184-0.31-0.324
										c-0.102-0.113-0.184-0.352-0.207-0.456c-0.056-0.246-0.162-0.659,0.142-1.069c0.309-0.353,0.594-0.386,0.782-0.478
										c0.198-0.081,0.353-0.147,0.486-0.234l0.027-0.021C210.306,224.994,211.118,224.746,211.692,223.922z"/>
								</g>
								<g>
									<path style="fill:#DD9778;" d="M212.351,234.994c-0.772,0.001-1.361-0.095-2.003-0.254
										c-0.622-0.182-1.272-0.404-1.834-0.953c0.744-0.223,1.415-0.179,2.093-0.013
										C211.262,233.966,211.964,234.301,212.351,234.994z"/>
								</g>
								<g>
									<path d="M216.39,224.333c-0.077,0.888,0.355,1.651,0.962,1.702c0.608,0.051,1.162-0.626,1.237-1.514
										c0.076-0.889-0.355-1.65-0.962-1.703C217.019,222.767,216.465,223.445,216.39,224.333z"/>
									<path d="M206.232,222.722c-0.075,0.888,0.356,1.65,0.964,1.702c0.608,0.052,1.162-0.626,1.237-1.514
										c0.076-0.888-0.355-1.651-0.962-1.702C206.863,221.156,206.309,221.834,206.232,222.722z"/>
								</g>
							</g>
						</g>
						<path style="fill:#FFFFFF;" d="M220.842,255.826c0,0-5.496,2.244-17.599,0l8.487,23.966L220.842,255.826z"/>
					</g>
					<g>
						<g>
							<path style="fill:#FFC9AE;" d="M183.117,298.266c1.098,2.464,3.476,5.101,5.306,7.214c3.842,3.871,3.476,4.573,0.915,9.149
								c-2.012,3.518-3.11,8.268-5.306,11.611c-1.463,2.288-2.195,1.583-4.757,0.176c-2.012-0.879-3.842-1.232-4.208-3.343
								c-0.549-2.813,1.098-7.916,1.829-10.732c2.562,0.177,1.281,7.038,0.915,8.797c2.195-4.047,5.123-7.214,8.599-10.383
								c-3.476-2.462-5.488-4.748-8.049-8.091L183.117,298.266z"/>
						</g>
						<g>
							<g>
								<g>
									<path style="fill:#FF9FC6;" d="M168.481,279.267c3.842-4.575,16.832-23.4,22.504-25.511
										c3.659-1.407,7.867-1.935,11.709-1.935c0.662,0,1.348-0.003,2.044-0.007l7.347,17.424c0,0,6.181-12.458,9.561-18.564
										c1.768-0.299,3.462-0.669,5.014-1.14c4.025-1.056,8.599,0.351,12.99,0c4.025-0.177,10.612-0.352,10.612-0.352
										c-4.006-2.892-6.453-4.46-16.283-11.436c1.28-1.583,4.757-6.157,6.769-6.334c1.463-0.176,29.042,16.798,29.042,22.272
										c0,0.784-1.216,2.937-1.864,3.249c-5.128,2.471-9.632,3.2-15.03,5.026c-3.207,1.085-6.424,2.142-9.648,3.18
										c-1.402,0.451-2.934,0.755-4.298,1.229c-2.699,0.936-3.05,3.876-3.294,6.26c-0.696,6.813-2.481,13.586-3.758,20.311
										c-0.369,1.945-0.733,3.916-0.611,5.892c0.201,3.259,1.544,6.491,2.328,9.632c0.635,2.545,4.075,8.644,2.33,11.2
										c-0.426,0.623,0.019,1.649-0.696,1.89c-15.526,5.223-34.1,4.024-49.327-2.015c0.515-10.032,8.414-17.647,6.742-28.098
										c-0.732-4.574-2.411-6.192-2.046-10.765c0.366-4.575,2.512-10.297,2.512-10.297c-3.476,4.047-12.391,12.935-13.489,15.047
										c-0.549,1.583,0,4.575-2.927,3.52c1.098,1.407,2.378,4.046,3.476,5.452c0.732,0.881,4.025,3.52,4.025,4.575
										c0.183,1.409-5.488,7.917-7.135,7.74c-2.013-0.175-15.003-14.777-15.369-17.593
										C161.345,286.479,166.834,281.201,168.481,279.267z"/>
								</g>
							</g>
							<g>
								<g>
									<path style="fill:#DD85AC;" d="M198.79,305.013c2.05,1.439,4.426,2.282,6.858,2.706c1.215,0.226,2.445,0.38,3.681,0.5
										c1.252,0.113,2.457,0.261,3.687,0.194c2.476-0.098,4.98-0.22,7.496-0.171c1.259,0.034,2.524,0.102,3.795,0.317
										c0.635,0.116,1.273,0.261,1.902,0.52c0.624,0.224,1.279,0.733,1.676,1.227c0.211,0.27,0.421,0.54,0.583,0.877
										c0.165,0.323,0.29,0.736,0.229,1.185c-0.044,0.471-0.365,0.838-0.657,1.082c-0.309,0.237-0.635,0.398-0.956,0.509
										c-1.291,0.446-2.566,0.519-3.833,0.577c-2.532,0.065-5.038-0.093-7.527-0.419c-2.462-0.439-4.926-0.537-7.426-0.749
										c-1.245-0.118-2.491-0.257-3.725-0.478c-1.231-0.22-2.463-0.529-3.588-1.076c2.353,0.858,4.868,0.964,7.345,1.065
										c2.474,0.11,5.01,0.128,7.48,0.473c2.467,0.202,4.951,0.385,7.406,0.274c1.214-0.065,2.464-0.173,3.532-0.562
										c0.526-0.192,0.97-0.512,0.982-0.835c0.063-0.34-0.255-0.856-0.608-1.281c-0.394-0.469-0.747-0.747-1.292-0.971
										c-0.521-0.222-1.103-0.366-1.692-0.481c-1.187-0.216-2.418-0.3-3.65-0.347c-2.471-0.093-4.953,0.049-7.463,0.028
										c-1.268,0.023-2.543-0.177-3.768-0.335c-1.24-0.169-2.483-0.363-3.709-0.648
										C203.11,307.605,200.705,306.635,198.79,305.013z"/>
								</g>
								<g>
									<path style="fill:#DD85AC;" d="M197.326,313.69c2.069,2.314,4.808,3.849,7.708,4.689c2.912,0.838,5.965,1.121,9.009,1.083
										c3.049-0.021,6.096-0.386,9.125-0.855c1.516-0.237,3.025-0.526,4.529-0.853c1.512-0.293,3.005-0.672,4.513-1.014
										c-2.885,1.112-5.867,1.973-8.901,2.623c-3.033,0.654-6.132,1.054-9.255,1.098c-3.115,0.014-6.283-0.304-9.256-1.354
										c-0.745-0.246-1.448-0.616-2.169-0.918c-0.702-0.348-1.354-0.799-2.025-1.197c-0.623-0.474-1.196-1.015-1.789-1.515
										C198.296,314.896,197.811,314.286,197.326,313.69z"/>
								</g>
								<g>
									<path style="fill:#DD85AC;" d="M192.781,255.812c0.756,2.253,1.153,4.591,1.303,6.956c0.121,2.361-0.02,4.77-0.72,7.048
										c-0.088-2.373-0.132-4.673-0.277-6.992C192.972,260.507,192.758,258.19,192.781,255.812z"/>
								</g>
								<g>
									<path style="fill:#DD85AC;" d="M229.363,250.883c0.547,2.87,1.233,5.645,2.078,8.39c0.838,2.748,1.829,5.424,3.049,8.079
										c-1.901-2.247-3.129-4.996-4.004-7.786C229.652,256.761,229.124,253.814,229.363,250.883z"/>
								</g>
								<g>
									<path style="fill:#DD85AC;" d="M251.033,249.314c1.563,0.105,3.008,0.603,4.417,1.086c1.41,0.513,2.761,1.032,4.204,1.603
										c-1.56,0.217-3.11-0.169-4.54-0.662C253.681,250.814,252.334,250.163,251.033,249.314z"/>
								</g>
								<g>
									<path style="fill:#DD85AC;" d="M253.829,248.754c0.063-0.421,0.198-0.544,0.349-0.598c0.159-0.023,0.335,0.026,0.583,0.374
										c-0.063,0.423-0.197,0.546-0.349,0.598C254.253,249.149,254.077,249.1,253.829,248.754z"/>
								</g>
								<g>
									<path style="fill:#DD85AC;" d="M237.519,238.783c0.684-1.164,1.501-2.148,2.423-3.08c0.936-0.903,1.997-1.747,3.286-2.186
										c-0.816,1.077-1.676,1.984-2.585,2.899C239.718,237.303,238.743,238.193,237.519,238.783z"/>
								</g>
								<g>
									<path style="fill:#DD85AC;" d="M167.499,283.373c1.89,0.516,3.663,1.269,5.375,2.184c0.847,0.472,1.68,0.978,2.458,1.569
										c0.39,0.29,0.767,0.611,1.126,0.931c0.354,0.325,0.748,0.682,0.944,1.142c-0.375-0.321-0.788-0.521-1.223-0.738
										l-1.268-0.678l-2.516-1.349C170.733,285.507,169.038,284.595,167.499,283.373z"/>
								</g>
								<g>
									<path style="fill:#DD85AC;" d="M174.373,280.012c0.8,0.612,1.347,1.397,1.831,2.215c0.456,0.834,0.85,1.707,0.965,2.715
										c-0.816-0.635-1.355-1.405-1.831-2.215C174.89,281.901,174.505,281.043,174.373,280.012z"/>
								</g>
								<g>
									<path style="fill:#DD85AC;" d="M175.538,303.427c0.571-0.459,0.959-1.013,1.401-1.558c0.418-0.557,0.915-1.111,1.413-1.61
										c1.025-0.999,2.077-1.883,3.244-2.77c-0.547,1.385-1.552,2.478-2.54,3.48c-0.52,0.493-1,0.969-1.56,1.443
										C176.945,302.866,176.294,303.345,175.538,303.427z"/>
								</g>
								<g>
									<path style="fill:#DD85AC;" d="M205.363,285.501c2.842,0.097,5.628,0.589,8.382,1.161c2.751,0.602,5.472,1.287,8.161,2.2
										c-2.84-0.136-5.618-0.649-8.37-1.223C210.788,287.036,208.066,286.372,205.363,285.501z"/>
								</g>
							</g>
						</g>
					</g>
				</g>
			</g>
			<g>
				<path style="opacity:0.2;fill:#0be88f;" d="M368.47,463.856c0,6.945-21.925,12.577-48.971,12.577
					c-27.048,0-48.973-5.632-48.973-12.577s21.925-12.577,48.973-12.577C346.545,451.279,368.47,456.911,368.47,463.856z"/>
				<g>
					<g>
						<g>
							<path d="M299.814,240.865c-2.927-2.196-5.366-4.391-5.61-8.05c0-3.659,2.44-4.879,2.928-8.05
								c0.487-2.684-2.684-3.903-1.952-6.342c0.732-2.684,5.367-2.684,5.123-6.343c-0.244-3.903-3.59-7.744,0.732-9.27
								c4.146-1.463,1.463-8.538,5.61-12.44c7.562-7.319,24.638-7.563,30.248,2.927c2.44,4.879,0.976,8.782,2.684,13.661
								c0.732,1.464,1.463,1.707,1.463,3.659c0,1.463-1.463,2.928-1.463,3.903c0,2.196,0.732,2.927,1.22,4.147
								c0.487,1.22,1.707,1.22,1.464,3.172c-0.245,1.463-3.172,3.17-2.927,4.147c0.243,1.707,2.194,1.219,3.414,2.439
								c2.928,2.684,1.952,7.318-0.487,9.514c-5.367,5.366-12.686,5.854-19.516,3.659L299.814,240.865z"/>
						</g>
						<g>
							<path style="fill:#C1946F;" d="M329.275,221.676c2.329-2.575,2.084-6.5,2.329-9.811c0.224-3.196,0.638-7.748,0.159-11.71
								c-0.426-0.243-0.852-0.461-1.277-0.67c0.026-1.743,0.003-3.624-0.889-5.112c-0.138,0.508-0.345,3.166-0.494,4.484
								c-1.229-0.505-2.454-0.881-3.659-1.152c0.049-1.68,0.153-3.921-0.64-5.136c-0.561,1.431-0.249,3.423-0.997,4.73
								c-0.123-1.121-0.247-5.229-1.556-5.602c-0.187,1.37-0.249,2.74-0.311,4.108c0,0.293-0.033,0.872-0.058,1.387
								c-2.93-0.197-5.665,0.151-8.007,0.704l-0.34-5.142c-1.228,1.175-1.949,3.811-2.131,5.833
								c-1.216,0.396-2.265,0.817-3.096,1.19c-0.936,5.687-0.235,10.476-0.134,15.521c0.073,3.59,2.61,8.118,6.118,9.513
								c0.017,3.514,0.271,7.522-2.316,10.109c-1.962,1.962-4.17,1.839-6.622,1.839l-0.491,4.292c-0.122,2.821,2.207,6.5,4.17,8.461
								c2.33,2.453,7.358,1.963,10.547,1.595c4.046-0.49,7.972-1.104,10.056-5.028c1.349-2.698,2.085-6.254,1.472-9.32
								c-2.33,0.123-4.537-0.736-5.396-2.82c-0.982-2.208-1.227-4.906-1.227-7.358c0-0.292,0.083-1.081,0.13-1.882
								C326.843,223.943,328.336,222.683,329.275,221.676z"/>
						</g>
						<g>
							<g>
								<path style="fill:#7A6251;" d="M317.866,219.347c0.652-0.394,1.292-0.512,1.965-0.53c0.662,0.012,1.383,0.133,1.958,0.652
									c-0.712,0.264-1.308,0.333-1.956,0.347C319.195,219.8,318.526,219.741,317.866,219.347z"/>
							</g>
							<g>
								<path style="fill:#7A6251;" d="M319.706,206.347c0.216,0.871,0.298,1.758,0.74,2.375c0.435,0.666,1.086,1.229,1.565,2.137
									c0.202,0.45,0.365,1.037,0.154,1.631c-0.232,0.584-0.738,0.934-1.2,1.088c-0.943,0.327-1.868,0.225-2.73,0.004
									c0.868-0.186,1.743-0.338,2.409-0.715c0.696-0.391,0.807-0.892,0.464-1.581c-0.309-0.656-0.964-1.32-1.349-2.201
									C319.336,208.145,319.52,207.197,319.706,206.347z"/>
							</g>
							<g>
								<path d="M311.73,202.786c-0.119-0.515,0.035-1.088,0.356-1.538c0.316-0.462,0.79-0.792,1.294-1.001
									c1.008-0.394,2.244-0.285,3.01,0.454c-1.031,0.028-1.857,0.166-2.643,0.475c-0.391,0.145-0.75,0.348-1.088,0.597
									C312.324,202.03,312.023,202.351,311.73,202.786z"/>
							</g>
							<g>
								<path d="M322.645,203.277c1.057,0.034,1.951,0.021,2.89-0.042c0.939-0.055,1.826-0.163,2.873-0.326
									c-0.318,0.439-0.78,0.746-1.266,0.956c-0.488,0.219-1.015,0.325-1.543,0.367c-0.529,0.023-1.065-0.015-1.577-0.169
									C323.514,203.917,323.015,203.673,322.645,203.277z"/>
							</g>
							<path d="M316.598,207.236c-0.227,0.965-0.946,1.623-1.606,1.468c-0.661-0.156-1.013-1.064-0.786-2.03
								c0.228-0.965,0.947-1.622,1.607-1.467C316.474,205.362,316.826,206.271,316.598,207.236z"/>
							<path d="M327.256,207.803c-0.227,0.965-0.946,1.623-1.606,1.467c-0.661-0.156-1.013-1.064-0.786-2.03
								c0.228-0.965,0.947-1.623,1.607-1.467C327.132,205.928,327.483,206.838,327.256,207.803z"/>
						</g>
					</g>
					<g>
						<g>
							<g>
								<g>
									<path style="fill:#C1946F;" d="M314.641,374.091c0.348-11.217,0.768-36.611-0.971-46.139l-20.337,15.625
										c0.402,4.395,2.558,19.244,4.265,30.52c0.944,6.238,1.75,11.387,2.044,13.053c0.602,3.404,0.425,10.246-0.215,13.611
										c-1.73,9.152,4.463,39.33,5.396,48.361c0.037,2.125,0.819,4.328-1.937,6.018c-1.101,0.674-8.82,3.768-10.275,4.66
										c-0.083,0.043-0.17,0.086-0.251,0.127c0.013,0.002,0.027,0.004,0.04,0.006c-1.361,0.869-2.008,1.629-0.847,1.998
										c1.99,0.703,16.992-1.248,20.51-2.422c0.271-0.418,0.367-1.357,0.419-2.207c0.241-0.082,0.483-0.166,0.722-0.256
										c0,0,0.068-7.564,0-10.228c0.08-4.48-0.463-42.654-0.267-43.746C313.167,400.26,314.215,387.762,314.641,374.091z"/>
									<g>
										<path style="fill:#380E16;" d="M292.36,459.927c6.771,0.953,14.344-0.479,20.844-2.881v3.68
											c0,0-23.107,5.645-28.277,2.978C284.927,463.704,283.776,462.71,292.36,459.927z"/>
									</g>
									<g>
										<g>
											<path style="fill:#681925;" d="M291.983,460.405c-0.569,0.105-3.101-0.088-3.327-0.172
												c-0.12-0.041-0.199-0.164-0.232-0.27c-0.069-0.221,0.002-0.334,0.218-0.434c0.54-0.242,1.097-0.455,1.665-0.641
												c1.049-0.348,1.647-0.022,3.006,0.498c-0.545,0.221-1.02,0.5-1.49,0.779L291.983,460.405z"/>
										</g>
										<g>
											<path style="fill:#681925;" d="M292.5,460.686c0.864,0.195,2.407,1.066,3.25,1.014c0.721-0.045,2.317-1.35,2.483-1.922
												c-1.37-0.35-2.513-0.354-3.911-0.143L292.5,460.686z"/>
										</g>
										<g>
											<path style="fill:#AF7E1C;" d="M291.058,460.444c0.494,0.066,0.584,0.141,1.935,0.412c0,0,1.528-0.799,1.932-1.289
												c-0.553-0.369-1.342-0.438-2.017-0.397c-0.077,0.008-0.208,0.108-0.275,0.145c-0.106,0.051-0.214,0.104-0.318,0.16
												c-0.204,0.109-0.399,0.23-0.574,0.377C291.509,460.046,291.287,460.249,291.058,460.444z"/>
										</g>
									</g>
								</g>
								<g>
									<path style="fill:#C1946F;" d="M323.838,374.091c-0.35-11.217-0.788-29.049-0.788-41.236l22.096,10.723
										c-0.403,4.395-2.561,19.244-4.266,30.52c-0.943,6.238-1.751,11.387-2.044,13.053c-0.603,3.404-0.425,10.246,0.215,13.611
										c1.732,9.152-4.465,39.33-5.397,48.361c-0.036,2.125-0.82,4.328,1.938,6.018c1.101,0.674,8.818,3.768,10.273,4.66
										c0.085,0.043,0.171,0.086,0.251,0.127c-0.013,0.002-0.026,0.004-0.038,0.006c1.359,0.869,2.006,1.629,0.844,1.998
										c-1.988,0.703-16.991-1.248-20.51-2.422c-0.268-0.418-0.366-1.357-0.418-2.207c-0.241-0.082-0.483-0.166-0.722-0.256
										c0,0-0.066-7.564,0-10.228c-0.08-4.48,0.463-42.654,0.268-43.746C325.309,400.26,324.262,387.762,323.838,374.091z"/>
									<g>
										<path style="fill:#380E16;" d="M346.116,459.927c-6.772,0.953-14.344-0.479-20.844-2.881v3.68
											c0,0,23.106,5.645,28.278,2.978C353.551,463.704,354.7,462.71,346.116,459.927z"/>
									</g>
									<g>
										<g>
											<path style="fill:#681925;" d="M346.494,460.405c0.567,0.105,3.1-0.088,3.325-0.172c0.123-0.041,0.2-0.164,0.232-0.27
												c0.07-0.221-0.001-0.334-0.219-0.434c-0.538-0.242-1.096-0.455-1.662-0.641c-1.051-0.348-1.65-0.022-3.009,0.498
												c0.549,0.221,1.021,0.5,1.493,0.779L346.494,460.405z"/>
										</g>
										<g>
											<path style="fill:#681925;" d="M345.976,460.686c-0.862,0.195-2.407,1.066-3.25,1.014
												c-0.719-0.045-2.315-1.35-2.483-1.922c1.37-0.35,2.514-0.354,3.911-0.143L345.976,460.686z"/>
										</g>
										<g>
											<path style="fill:#AF7E1C;" d="M347.42,460.444c-0.495,0.066-0.587,0.141-1.935,0.412c0,0-1.53-0.799-1.932-1.289
												c0.551-0.369,1.341-0.438,2.016-0.397c0.077,0.008,0.208,0.108,0.276,0.145c0.104,0.051,0.212,0.104,0.316,0.16
												c0.205,0.109,0.4,0.23,0.574,0.377C346.968,460.046,347.19,460.249,347.42,460.444z"/>
										</g>
									</g>
								</g>
							</g>
							<g>
								<path style="fill:#498CAD;" d="M299.266,295.932c0,0,19.105,4.057,38.214,0c0,0,9.694,16.669,10.252,30.757
									c0.271,6.854-4.171,94.81-4.171,94.81c-0.706,2.791-21.898,2.092-21.817,1.047c0.081-1.047-2.137-75.963-2.137-75.963
									l-4.656,76.424c0,0-11.297,1.918-20.582,0c0,0-2.752-81.405-2.093-89.793C293.501,317.641,299.266,295.932,299.266,295.932z
									"/>
								<g>
									<g>
										<path style="fill:#1F637A;" d="M298.2,307.065c1.781,0.25,3.557,0.489,5.342,0.66c1.78,0.203,3.564,0.363,5.349,0.497
											c3.57,0.255,7.145,0.418,10.719,0.435c3.575,0.058,7.148-0.091,10.715-0.332L333,308.12l2.665-0.318
											c1.792-0.136,3.541-0.528,5.332-0.736c-3.471,0.92-7.013,1.655-10.6,2.026c-3.58,0.424-7.19,0.602-10.795,0.566
											c-3.604-0.042-7.208-0.233-10.785-0.672C305.243,308.556,301.681,307.974,298.2,307.065z"/>
									</g>
									<g>
										<path style="fill:#1F637A;" d="M319.58,303.782c0.218,3.488,0.327,6.977,0.419,10.466
											c0.103,3.489,0.128,6.978,0.153,10.467c0.001,3.489,0,6.978-0.079,10.465l-0.121,5.231
											c-0.077,1.743-0.12,3.487-0.227,5.229c-0.119-1.746-0.174-3.491-0.263-5.236l-0.158-5.233
											c-0.103-3.489-0.128-6.977-0.151-10.464c0-3.487,0.001-6.975,0.081-10.462C319.301,310.758,319.386,307.27,319.58,303.782
											z"/>
									</g>
									<g>
										<path style="fill:#1F637A;" d="M309.209,345.442c3.196,0.007,6.362,0.111,9.541,0.469c3.152,0.392,6.39,0.996,9.229,2.527
											c-3.099-0.78-6.202-1.167-9.345-1.534C315.501,346.518,312.319,346.23,309.209,345.442z"/>
									</g>
									<g>
										<path style="fill:#1F637A;" d="M324.206,309.11c0.113,1.063,0.179,2.124,0.28,3.185l0.194,3.187
											c0.123,2.127,0.148,4.26,0.097,6.399c-0.039,1.066-0.107,2.145-0.202,3.204c-0.109,1.052-0.171,2.137-0.449,3.21
											c-0.256,1.061-0.743,2.164-1.609,2.904c-0.878,0.719-1.955,1.076-3.018,1.154c1.021-0.298,2.007-0.753,2.678-1.508
											c0.698-0.723,1.042-1.702,1.196-2.707c0.15-1.011,0.208-2.057,0.258-3.124c0.066-1.061,0.125-2.105,0.147-3.164
											c0.076-2.112,0.076-4.232,0.136-6.357C323.964,313.37,324.004,311.238,324.206,309.11z"/>
									</g>
									<g>
										<path style="fill:#1F637A;" d="M306.334,349.167c0.966-0.655,2.037-0.966,3.099-1.211
											c1.075-0.215,2.139-0.356,3.297-0.278c-0.946,0.686-2.022,1.012-3.088,1.255
											C308.563,349.147,307.489,349.277,306.334,349.167z"/>
									</g>
									<g>
										<path style="fill:#1F637A;" d="M294.24,317.954c1.281,0.337,2.552,0.608,3.832,0.658c1.279,0.058,2.616,0.037,3.941,0.179
											l-0.538,0.465c0.032-1.925,0.314-3.816,0.624-5.674l0.477-2.783c0.164-0.927,0.293-1.858,0.417-2.802
											c0.23,1.892,0.132,3.816-0.045,5.697c-0.18,1.884-0.422,3.741-0.508,5.594l-0.024,0.524l-0.514-0.059
											c-0.643-0.074-1.284-0.16-1.934-0.216c-0.65-0.059-1.308-0.131-1.973-0.233c-0.662-0.118-1.324-0.272-1.948-0.516
											C295.424,318.546,294.817,318.279,294.24,317.954z"/>
									</g>
									<g>
										<path style="fill:#1F637A;" d="M335.989,308.589c1.186,3.64,2.166,7.281,3.5,10.8l-0.422-0.303
											c1.193,0.069,2.441,0.039,3.667-0.022c0.616-0.022,1.23-0.076,1.842-0.137c0.606-0.083,1.234-0.142,1.76-0.48
											c-0.427,0.489-1.09,0.666-1.678,0.868c-0.606,0.197-1.228,0.312-1.849,0.428c-1.25,0.202-2.495,0.326-3.791,0.304
											l-0.3-0.005l-0.122-0.298c-0.731-1.78-1.31-3.617-1.744-5.482C336.415,312.395,336.122,310.5,335.989,308.589z"/>
									</g>
									<g>
										<path style="fill:#1F637A;" d="M318.118,347.53c0.567-0.014,1.104,0.101,1.616,0.246c0.516,0.14,1.003,0.337,1.485,0.533
											c0.963,0.42,1.836,0.886,2.792,1.45c-0.555,0.123-1.121,0.068-1.652-0.041c-0.536-0.105-1.043-0.289-1.535-0.491
											C319.847,348.792,318.959,348.261,318.118,347.53z"/>
									</g>
								</g>
							</g>
						</g>
					</g>
					<g>
						<g>
							<g>
								<g>
									<path style="fill:#AAD9E8;" d="M342.016,297.458c-0.732-4.391-1.281-8.781-2.012-13.172
										c-1.281-7.684-0.915-16.1-0.184-23.967c0.55-6.037,4.574-17.747,0.914-23.052c-2.383-3.576-7.014-3.558-11.57-2.949
										c0.046,2.779-1.021,5.963-2.517,7.706c-2.744,2.927-5.853,4.025-9.879,3.294c-5.32-0.998-8.967-5.172-9.316-10.318
										c-1.662-0.06-3.32-0.111-4.954-0.111c-4.939,0-7.745-0.068-8.294,5.238c-0.366,4.208,0.244,8.849,0.793,12.874
										c1.28,8.781,2.927,17.381,4.025,26.162c1.098,8.781-1.099,16.467-2.928,24.883c-0.733,3.109-1.647,6.037-2.195,9.147
										c4.574,0.916,9.146,1.281,13.539,2.563c4.939,1.463,9.33,3.109,14.636,3.291c4.939,0.184,8.599-1.461,12.808-3.84
										c2.743-1.647,6.585-4.574,9.695-4.941C344.212,306.239,342.748,301.483,342.016,297.458z"/>
								</g>
							</g>
							<g>
								<path style="fill:#86AAB5;" d="M304.206,298.434c2.414,0.944,5.036,1.11,7.581,0.899c2.557-0.211,5.067-0.781,7.58-1.336
									c2.511-0.565,5.029-1.168,7.613-1.505c2.571-0.328,5.258-0.409,7.834,0.309l0.309,0.086l0.004,0.327
									c0.01,0.771-0.23,1.568-0.674,2.206c-0.44,0.644-1.036,1.134-1.662,1.519c-1.264,0.767-2.647,1.184-4.02,1.51
									c-2.757,0.64-5.565,0.837-8.3,1.153c-2.687,0.374-5.39,1.108-8.138,1.62c-2.744,0.522-5.636,0.795-8.454,0.24l0.534-0.475
									c0.097,1.395,0.924,2.621,2.261,3.175c1.294,0.605,2.803,0.787,4.29,0.851c3,0.091,6.031-0.355,9.007-0.951
									c2.98-0.608,5.927-1.401,8.844-2.287c2.904-0.92,5.823-1.857,8.568-3.196c-2.677,1.486-5.577,2.516-8.454,3.545
									c-2.89,1.01-5.835,1.867-8.829,2.543c-2.993,0.666-6.042,1.189-9.159,1.164c-1.551-0.026-3.147-0.211-4.64-0.884
									c-0.383-0.14-0.716-0.408-1.067-0.626c-0.165-0.128-0.31-0.286-0.465-0.429c-0.161-0.139-0.301-0.297-0.411-0.484
									c-0.552-0.675-0.728-1.543-0.845-2.358l-0.086-0.592l0.62,0.117c2.664,0.504,5.412,0.233,8.105-0.299
									c2.71-0.522,5.378-1.289,8.204-1.647c2.783-0.299,5.54-0.476,8.21-1.077c1.324-0.302,2.64-0.7,3.762-1.373
									c1.125-0.654,1.966-1.707,1.941-2.968l0.313,0.413c-2.412-0.674-4.986-0.697-7.516-0.419
									c-2.538,0.275-5.056,0.819-7.583,1.331c-2.525,0.517-5.083,0.982-7.676,1.108
									C309.227,299.775,306.569,299.505,304.206,298.434z"/>
							</g>
							<g>
								<path style="fill:#86AAB5;" d="M336.893,307.217c-1.331,1.659-3.103,2.932-4.961,3.975
									c-1.865,1.048-3.873,1.831-5.941,2.385c-2.072,0.53-4.211,0.861-6.361,0.802c-1.072-0.027-2.145-0.142-3.193-0.375
									c-1.043-0.251-2.051-0.643-2.963-1.177c0.516,0.14,1,0.335,1.51,0.447c0.519,0.079,1.014,0.235,1.539,0.248
									c1.028,0.128,2.065,0.154,3.097,0.088c2.063-0.121,4.113-0.464,6.115-0.999c2.009-0.513,3.958-1.245,5.849-2.101
									c0.945-0.432,1.864-0.92,2.749-1.47c0.461-0.249,0.871-0.57,1.314-0.854C336.073,307.882,336.466,307.536,336.893,307.217z"
									/>
							</g>
						</g>
						<g>
							<path style="fill:#C1946F;" d="M327.975,278.298c5.564,0.021,8.739,1.508,10.391,6.654c1.24,3.986,4.038,8.201,5.021,12.195
								c0.698,2.703-0.337,2.723-3.167,3.553c-2.055,0.815-3.586,1.879-5.422,0.621c-2.49-1.633-5.171-6.498-6.773-9.057
								c1.907-1.719,6.161,4.152,7.226,5.684c-1.51-4.498-1.853-8.891-1.815-13.68c0,0-7.372,1.293-11.652,0.728"/>
						</g>
						<g>
							<path style="fill:#C1946F;" d="M301.278,254.647c-0.122,2.807,0.853,5.855,1.342,8.66c0.61,4.146,1.342,8.416,1.83,12.563
								c3.048-0.121,6.586,0.488,9.635,0.611c2.684,0.121,5.245,0.609,7.806,0.975c2.44,0.367,4.88,0.732,7.318,0.977
								c3.66,0.486,4.513,2.193,1.098,4.267c-4.756,2.684-27.199,4.635-32.443,5.977c-0.854-3.17-6.343-32.443-7.074-32.199
								L301.278,254.647z"/>
						</g>
						<g>
							<g>
								<g>
									<path style="fill:#C1946F;" d="M345.309,250.257c0.243,7.928,0.854,15.734,0.609,23.662
										c-0.121,5.488,0.122,12.441-6.952,12.318c-6.586-0.121-5.001-10.732-5.001-15.367c0-1.952-0.609-15.979,0-15.979
										L345.309,250.257z"/>
									<path style="fill:#C1946F;" d="M345.309,250.257c0.243,7.928,0.854,15.734,0.609,23.662
										c-0.121,5.488,0.122,12.441-6.952,12.318c-6.586-0.121-5.001-10.732-5.001-15.367c0-1.952-0.609-15.979,0-15.979
										L345.309,250.257z"/>
								</g>
								<g>
									<path style="fill:#C1946F;" d="M332.99,257.981c2.278-0.152,8.813,0.987,14.662-1.141c0,0-0.075-2.279-0.304-3.114
										c-0.835-2.735-6.382-23.4-12.231-17.55c-0.228,0.228-0.381,0.532-0.607,0.76L332.99,257.981z"/>
									<path style="fill:#C1946F;" d="M332.99,257.981c2.278-0.152,8.813,0.987,14.662-1.141c0,0-0.075-2.279-0.304-3.114
										c-0.835-2.735-6.382-23.4-12.231-17.55c-0.228,0.228-0.381,0.532-0.607,0.76L332.99,257.981z"/>
								</g>
								<g>
									<g>
										<path style="fill:#C1946F;" d="M325.673,229.278c-0.366-0.61-0.366-1.951-1.221-2.439
											c-1.463-0.853-3.537,0.854-4.757,1.586c-0.609-4.269-4.634-0.976-6.829,0c-1.098,0.487-3.659,0.854-4.392,1.829
											c-1.463,1.707,0.732,2.073,2.074,1.22c-2.562,3.415,7.439,0.244,8.415-0.122c0.488,2.805,1.951,5.977,3.903,8.05
											c0.731,0.854,6.221,4.39,6.342,1.707L325.673,229.278z"/>
										<path style="fill:#C1946F;" d="M325.673,229.278c-0.366-0.61-0.366-1.951-1.221-2.439
											c-1.463-0.853-3.537,0.854-4.757,1.586c-0.609-4.269-4.634-0.976-6.829,0c-1.098,0.487-3.659,0.854-4.392,1.829
											c-1.463,1.707,0.732,2.073,2.074,1.22c-2.562,3.415,7.439,0.244,8.415-0.122c0.488,2.805,1.951,5.977,3.903,8.05
											c0.731,0.854,6.221,4.39,6.342,1.707L325.673,229.278z"/>
									</g>
									<g>
										<path style="fill:#C1946F;" d="M341.04,286.97c-4.146,0.121-7.318-1.463-8.294-5.733c-0.487-2.563,0-5.488-0.121-8.051
											c-0.123-3.292-0.488-6.586-0.731-9.758c-0.244-3.658-0.855-7.195-1.099-10.732c-0.122-1.708-0.122-3.293-0.244-5.001
											c-0.121-1.951-0.366-1.829-2.073-2.439c-3.05-0.976-3.416-2.561-3.659-5.854c-0.122-1.586-1.342-7.562-2.805-8.294
											c-0.732-0.366-3.66,1.585-4.392,1.83c-0.853,0.366-2.805,1.098-3.781,0.732c-3.049-1.463,4.392-3.66,5.854-4.025
											c2.195-0.61,5.001-2.195,6.464-0.366c2.196,2.562,3.416,6.221,5.367,9.026c1.83,2.562,3.05,4.514,3.537,7.563
											c0.732,3.903,1.465,7.684,2.318,11.588c1.341,5.488,3.293,11.098,5,16.587c0.609,2.194,4.025,9.392,1.341,11.099
											L341.04,286.97z"/>
										<path style="fill:#C1946F;" d="M341.04,286.97c-4.146,0.121-7.318-1.463-8.294-5.733c-0.487-2.563,0-5.488-0.121-8.051
											c-0.123-3.292-0.488-6.586-0.731-9.758c-0.244-3.658-0.855-7.195-1.099-10.732c-0.122-1.708-0.122-3.293-0.244-5.001
											c-0.121-1.951-0.366-1.829-2.073-2.439c-3.05-0.976-3.416-2.561-3.659-5.854c-0.122-1.586-1.342-7.562-2.805-8.294
											c-0.732-0.366-3.66,1.585-4.392,1.83c-0.853,0.366-2.805,1.098-3.781,0.732c-3.049-1.463,4.392-3.66,5.854-4.025
											c2.195-0.61,5.001-2.195,6.464-0.366c2.196,2.562,3.416,6.221,5.367,9.026c1.83,2.562,3.05,4.514,3.537,7.563
											c0.732,3.903,1.465,7.684,2.318,11.588c1.341,5.488,3.293,11.098,5,16.587c0.609,2.194,4.025,9.392,1.341,11.099
											L341.04,286.97z"/>
									</g>
								</g>
							</g>
							<g>
								<g>
									<path style="fill:#99785F;" d="M345.309,250.257c0.243,7.928,0.854,15.734,0.609,23.662
										c-0.121,5.488,0.122,12.441-6.952,12.318c-6.586-0.121-5.001-10.732-5.001-15.367c0-1.952-0.609-15.979,0-15.979
										L345.309,250.257z"/>
								</g>
								<g>
									<path style="fill:#AAD9E8;" d="M332.99,257.981c2.278-0.152,8.813,0.987,14.662-1.141c0,0-0.075-2.279-0.304-3.114
										c-0.835-2.735-6.382-23.4-12.231-17.55c-0.228,0.228-0.381,0.532-0.607,0.76L332.99,257.981z"/>
								</g>
								<g>
									<g>
										<path style="fill:#99785F;" d="M325.673,229.278c-0.366-0.61-0.366-1.951-1.221-2.439
											c-1.463-0.853-3.537,0.854-4.757,1.586c-0.609-4.269-4.634-0.976-6.829,0c-1.098,0.487-3.659,0.854-4.392,1.829
											c-1.463,1.707,0.732,2.073,2.074,1.22c-2.562,3.415,7.439,0.244,8.415-0.122c0.488,2.805,1.951,5.977,3.903,8.05
											c0.731,0.854,6.221,4.39,6.342,1.707L325.673,229.278z"/>
									</g>
									<g>
										<path style="fill:#C1946F;" d="M341.04,286.97c-4.146,0.121-7.318-1.463-8.294-5.733c-0.487-2.563,0-5.488-0.121-8.051
											c-0.123-3.292-0.488-6.586-0.731-9.758c-0.244-3.658-0.855-7.195-1.099-10.732c-0.122-1.708-0.122-3.293-0.244-5.001
											c-0.121-1.951-0.366-1.829-2.073-2.439c-3.05-0.976-3.416-2.561-3.659-5.854c-0.122-1.586-1.342-7.562-2.805-8.294
											c-0.732-0.366-3.66,1.585-4.392,1.83c-0.853,0.366-2.805,1.098-3.781,0.732c-3.049-1.463,4.392-3.66,5.854-4.025
											c2.195-0.61,5.001-2.195,6.464-0.366c2.196,2.562,3.416,6.221,5.367,9.026c1.83,2.562,3.05,4.514,3.537,7.563
											c0.732,3.903,1.465,7.684,2.318,11.588c1.341,5.488,3.293,11.098,5,16.587c0.609,2.194,4.025,9.392,1.341,11.099
											L341.04,286.97z"/>
									</g>
								</g>
							</g>
						</g>
						<g>
							<path style="fill:#AAD9E8;" d="M302.279,257.981c-2.279-0.152-8.813,0.987-14.663-1.141c0,0,0.075-2.279,0.304-3.114
								c0.835-2.735,6.383-23.4,12.232-17.55c0.227,0.228,0.379,0.532,0.608,0.76L302.279,257.981z"/>
						</g>
					</g>
				</g>
			</g>
		</g>
		<g>
			<g>
				<g>
					<g>
						<path style="fill:#0be88f;" d="M206.809,22.851c-4.831,0.412-9.636,1.076-14.062,2.755c-2.199,0.865-4.31,1.89-6.243,3.246
							c-1.967,1.285-3.712,2.821-5.188,4.592c-1.481,1.769-2.591,3.825-3.433,5.993c-0.873,2.163-1.436,4.467-1.848,6.814
							c-0.836,4.694-1.135,9.555-1.894,14.355l0-0.006l-0.082,1l-0.082-1l0-0.007c0.008-4.847-0.121-9.692,0.467-14.582
							c0.271-2.442,0.806-4.885,1.645-7.249c0.88-2.341,2.053-4.629,3.685-6.582c1.65-1.921,3.577-3.611,5.713-4.903
							c2.089-1.34,4.393-2.397,6.76-3.127C197.005,22.676,201.983,22.451,206.809,22.851z"/>
					</g>
					<g>
						<path style="fill:#0be88f;" d="M300.559,170.351c4.325-0.29,8.43-1.745,11.691-4.327c3.266-2.572,5.729-6.054,7.5-9.834
							c1.804-3.78,2.938-7.888,3.59-12.068c0.625-4.19,0.754-8.474,0.219-12.771c1.354,4.126,1.686,8.585,1.331,12.952
							c-0.355,4.377-1.452,8.718-3.333,12.741c-1.907,3.986-4.655,7.719-8.392,10.237
							C309.467,169.836,304.854,170.903,300.559,170.351z"/>
					</g>
					<g>
						<path style="fill:#0be88f;" d="M339.809,96.851c-1.489-0.561-2.947-1.186-4.399-1.811l-4.338-1.87
							c-1.445-0.609-2.897-1.181-4.354-1.719c-1.464-0.519-2.935-0.997-4.423-1.407l-0.836-0.23l0.135-0.879
							c0.289-1.879,0.467-3.795,0.565-5.725c0.084-1.931,0.156-3.875,0.166-5.827l0.107-5.879c0.064-1.965,0.136-3.939,0.376-5.902
							c0.479,3.916,0.942,7.802,1.178,11.746c0.094,1.97,0.181,3.95,0.109,5.94c-0.061,1.988-0.201,3.991-0.572,5.981l-0.701-1.109
							c3.11,0.884,6.071,2.191,8.876,3.7c1.408,0.748,2.773,1.563,4.122,2.395C337.169,95.09,338.498,95.951,339.809,96.851z"/>
					</g>
				</g>
				<path style="fill:#0be88f;" d="M318.148,139.798c0,12.93-10.483,23.413-23.413,23.413h-88.074
					c-12.93,0-23.413-10.483-23.413-23.413V51.723c0-12.93,10.483-23.413,23.413-23.413h88.074c12.93,0,23.413,10.483,23.413,23.413
					V139.798z"/>
				<path style="fill:#0be88f;" d="M217.216,134.484c0,0,10.686,19.707,2.549,51.213c0,0,16.792-18.876,5.396-56.874
					L217.216,134.484z"/>
				<path style="fill:#0be88f;" d="M315.298,103.194c0,0,22.417-0.085,46.318,21.995c0,0-8.679-23.726-47.545-31.672
					L315.298,103.194z"/>
				<g>
					<path style="fill:#0be88f;" d="M153.09,125.197c-0.277,1.485-1.891,2.43-3.604,2.109c-1.712-0.32-2.875-1.783-2.598-3.269
						c0.277-1.485,1.891-2.429,3.604-2.109C152.205,122.249,153.368,123.712,153.09,125.197z"/>
					<path style="fill:#0be88f;" d="M169.079,120.203c-0.452,2.415-3.604,3.852-7.042,3.21c-3.438-0.643-5.858-3.122-5.406-5.538
						c0.452-2.416,3.605-3.853,7.042-3.21C167.11,115.308,169.53,117.787,169.079,120.203z"/>
					<path style="fill:#0be88f;" d="M190.919,114.085c-0.566,3.028-4.898,4.758-9.675,3.865c-4.778-0.892-8.191-4.072-7.625-7.1
						c0.566-3.028,4.898-4.759,9.675-3.865C188.071,107.878,191.485,111.057,190.919,114.085z"/>
				</g>
				<g>
					<path style="fill:#0be88f;" d="M287.709,185.88c0,1.915,1.253,3.466,2.798,3.466c1.545,0,2.798-1.552,2.798-3.466
						c0-1.914-1.253-3.465-2.798-3.465C288.962,182.414,287.709,183.966,287.709,185.88z"/>
					<path style="fill:#0be88f;" d="M274.585,175.936c0,3.113,2.515,5.638,5.617,5.638c3.1,0,5.614-2.525,5.614-5.638
						c0-3.114-2.515-5.638-5.614-5.638C277.099,170.298,274.585,172.822,274.585,175.936z"/>
					<path style="fill:#0be88f;" d="M256.545,163.232c0,3.902,3.493,7.066,7.804,7.066c4.31,0,7.804-3.164,7.804-7.066
						c0-3.903-3.494-7.067-7.804-7.067C260.038,156.164,256.545,159.328,256.545,163.232z"/>
				</g>
			</g>
			<g>
				<text x="210" y="110" fill="white" font-family="Arial, Helvetica, sans-serif" font-size="40">Why</text>
			</g>
		</g>
	</g>
</g>
</svg>
